Dotak-Light.ufo
<glyph name="exclam" format="1">
  <advance width="306"/>
  <unicode hex="0021"/>
  <outline>
    <contour>
      <point x="162" y="148" type="line"/>
      <point x="166" y="272" type="line" smooth="yes"/>
      <point x="171" y="423"/>
      <point x="184" y="524"/>
      <point x="184" y="542" type="curve"/>
      <point x="184" y="559"/>
      <point x="175" y="573"/>
      <point x="154" y="573" type="curve"/>
      <point x="132" y="573"/>
      <point x="123" y="559"/>
      <point x="123" y="542" type="curve"/>
      <point x="123" y="524"/>
      <point x="136" y="424"/>
      <point x="141" y="272" type="curve" smooth="yes"/>
      <point x="145" y="148" type="line"/>
    </contour>
    <contour>
      <point x="122" y="54"/>
      <point x="104" y="41"/>
      <point x="104" y="22" type="curve"/>
      <point x="104" y="4"/>
      <point x="122" y="-10"/>
      <point x="153" y="-10" type="curve"/>
      <point x="185" y="-10"/>
      <point x="202" y="4"/>
      <point x="202" y="22" type="curve"/>
      <point x="202" y="41"/>
      <point x="185" y="54"/>
      <point x="153" y="54" type="curve"/>
    </contour>
  </outline>
</glyph>
<glyph name="quotedbl" format="1">
  <advance width="371"/>
  <unicode hex="0022"/>
  <outline>
    <contour>
      <point x="85" y="360" type="line"/>
      <point x="101" y="358" type="line"/>
      <point x="146" y="556" type="line"/>
      <point x="111" y="562" type="line"/>
    </contour>
    <contour>
      <point x="235" y="360" type="line"/>
      <point x="251" y="358" type="line"/>
      <point x="296" y="556" type="line"/>
      <point x="261" y="562" type="line"/>
    </contour>
  </outline>
</glyph>
<glyph name="ampersand" format="1">
  <advance width="733"/>
  <unicode hex="0026"/>
  <outline>
    <contour>
      <point x="489" y="-11"/>
      <point x="640" y="105"/>
      <point x="640" y="209" type="curve" smooth="yes"/>
      <point x="640" y="271"/>
      <point x="608" y="304"/>
      <point x="583" y="325" type="curve"/>
      <point x="566" y="308" type="line"/>
      <point x="591" y="284"/>
      <point x="615" y="262"/>
      <point x="615" y="210" type="curve" smooth="yes"/>
      <point x="615" y="119"/>
      <point x="480" y="11"/>
      <point x="263" y="11" type="curve" smooth="yes"/>
      <point x="113" y="11"/>
      <point x="65" y="66"/>
      <point x="65" y="123" type="curve" smooth="yes"/>
      <point x="65" y="203"/>
      <point x="149" y="229"/>
      <point x="287" y="267" type="curve" smooth="yes"/>
      <point x="434" y="307"/>
      <point x="501" y="356"/>
      <point x="501" y="429" type="curve" smooth="yes"/>
      <point x="501" y="480"/>
      <point x="459" y="528"/>
      <point x="388" y="528" type="curve" smooth="yes"/>
      <point x="306" y="528"/>
      <point x="232" y="462"/>
      <point x="232" y="360" type="curve" smooth="yes"/>
      <point x="232" y="138"/>
      <point x="441" y="-10"/>
      <point x="592" y="-10" type="curve" smooth="yes"/>
      <point x="641" y="-10"/>
      <point x="674" y="-1"/>
      <point x="713" y="21" type="curve"/>
      <point x="704" y="42" type="line"/>
      <point x="670" y="21"/>
      <point x="639" y="13"/>
      <point x="592" y="13" type="curve" smooth="yes"/>
      <point x="450" y="13"/>
      <point x="257" y="154"/>
      <point x="257" y="360" type="curve" smooth="yes"/>
      <point x="257" y="462"/>
      <point x="329" y="505"/>
      <point x="388" y="505" type="curve" smooth="yes"/>
      <point x="442" y="505"/>
      <point x="476" y="471"/>
      <point x="476" y="425" type="curve" smooth="yes"/>
      <point x="476" y="373"/>
      <point x="416" y="328"/>
      <point x="283" y="289" type="curve" smooth="yes"/>
      <point x="130" y="245"/>
      <point x="40" y="216"/>
      <point x="40" y="123" type="curve" smooth="yes"/>
      <point x="40" y="46"/>
      <point x="108" y="-13"/>
      <point x="263" y="-12" type="curve" smooth="yes"/>
    </contour>
  </outline>
</glyph>
<glyph name="one" format="1">
  <advance width="512"/>
  <unicode hex="0031"/>
  <outline>
    <contour>
      <point x="272" y="0" type="line"/>
      <point x="296" y="0" type="line"/>
      <point x="296" y="490" type="line"/>
      <point x="272" y="490" type="line"/>
    </contour>
    <contour>
      <point x="74" y="23" type="line"/>
      <point x="74" y="0" type="line"/>
      <point x="477" y="0" type="line"/>
      <point x="477" y="23" type="line"/>
    </contour>
    <contour>
      <point x="79" y="346" type="line"/>
      <point x="178" y="361"/>
      <point x="264" y="396"/>
      <point x="291" y="485" type="curve"/>
      <point x="272" y="490" type="line"/>
      <point x="245" y="414"/>
      <point x="163" y="381"/>
      <point x="75" y="371" type="curve"/>
    </contour>
  </outline>
</glyph>
<glyph name="question" format="1">
  <advance width="533"/>
  <unicode hex="003F"/>
  <outline>
    <contour>
      <point x="267" y="-10"/>
      <point x="283" y="4"/>
      <point x="283" y="22" type="curve"/>
      <point x="283" y="41"/>
      <point x="267" y="54"/>
      <point x="234" y="54" type="curve"/>
      <point x="203" y="54"/>
      <point x="185" y="41"/>
      <point x="185" y="22" type="curve"/>
      <point x="185" y="4"/>
      <point x="203" y="-10"/>
      <point x="234" y="-10" type="curve"/>
    </contour>
    <contour>
      <point x="107" y="471" type="line"/>
      <point x="157" y="492"/>
      <point x="207" y="506"/>
      <point x="276" y="506" type="curve" smooth="yes"/>
      <point x="364" y="506"/>
      <point x="434" y="468"/>
      <point x="434" y="409" type="curve" smooth="yes"/>
      <point x="434" y="357"/>
      <point x="382" y="330"/>
      <point x="323" y="309" type="curve" smooth="yes"/>
      <point x="251" y="282"/>
      <point x="174" y="264"/>
      <point x="174" y="216" type="curve" smooth="yes"/>
      <point x="174" y="188"/>
      <point x="189" y="162"/>
      <point x="212" y="129" type="curve"/>
      <point x="224" y="134" type="line"/>
      <point x="210" y="162"/>
      <point x="197" y="182"/>
      <point x="197" y="210" type="curve" smooth="yes"/>
      <point x="197" y="248"/>
      <point x="262" y="264"/>
      <point x="330" y="288" type="curve" smooth="yes"/>
      <point x="395" y="311"/>
      <point x="459" y="342"/>
      <point x="459" y="408" type="curve" smooth="yes"/>
      <point x="459" y="488"/>
      <point x="371" y="529"/>
      <point x="276" y="529" type="curve" smooth="yes"/>
      <point x="206" y="529"/>
      <point x="154" y="515"/>
      <point x="100" y="494" type="curve"/>
    </contour>
  </outline>
</glyph>
<glyph name="A" format="1">
  <advance width="1024"/>
  <unicode hex="0041"/>
  <outline>
    <contour>
      <point x="179" y="13" type="line"/>
      <point x="514" y="502" type="line"/>
      <point x="511" y="502" type="line"/>
      <point x="846" y="13" type="line"/>
      <point x="875" y="13" type="line"/>
      <point x="531" y="510" type="line" smooth="yes"/>
      <point x="493" y="510" type="line"/>
      <point x="150" y="13" type="line"/>
    </contour>
    <contour>
      <point x="334" y="0" type="line"/>
      <point x="334" y="23" type="line"/>
      <point x="-5" y="23" type="line"/>
      <point x="-5" y="0" type="line"/>
    </contour>
    <contour>
      <point x="731" y="199" type="line"/>
      <point x="714" y="222" type="line"/>
      <point x="308" y="222" type="line"/>
      <point x="290" y="199" type="line"/>
    </contour>
    <contour>
      <point x="1029" y="0" type="line"/>
      <point x="1029" y="23" type="line"/>
      <point x="691" y="23" type="line"/>
      <point x="691" y="0" type="line"/>
    </contour>
    <contour>
      <point x="700" y="497" type="line"/>
      <point x="700" y="520" type="line"/>
      <point x="324" y="520" type="line"/>
      <point x="324" y="497" type="line"/>
    </contour>
  </outline>
</glyph>
<glyph name="E" format="1">
  <advance width="992"/>
  <unicode hex="0045"/>
  <outline>
    <contour>
      <point x="862" y="0" type="line"/>
      <point x="862" y="183" type="line"/>
      <point x="838" y="183" type="line"/>
      <point x="838" y="23" type="line"/>
      <point x="56" y="23" type="line"/>
      <point x="56" y="0" type="line"/>
    </contour>
    <contour>
      <point x="263" y="13" type="line"/>
      <point x="263" y="507" type="line"/>
      <point x="238" y="507" type="line"/>
      <point x="238" y="13" type="line"/>
    </contour>
    <contour>
      <point x="583" y="261" type="line"/>
      <point x="583" y="284" type="line"/>
      <point x="260" y="284" type="line"/>
      <point x="260" y="261" type="line"/>
    </contour>
    <contour>
      <point x="596" y="153" type="line"/>
      <point x="596" y="392" type="line"/>
      <point x="571" y="392" type="line"/>
      <point x="571" y="153" type="line"/>
    </contour>
    <contour>
      <point x="862" y="337" type="line"/>
      <point x="862" y="520" type="line"/>
      <point x="56" y="520" type="line"/>
      <point x="56" y="497" type="line"/>
      <point x="837" y="497" type="line"/>
      <point x="837" y="337" type="line"/>
    </contour>
  </outline>
</glyph>
<glyph name="G" format="1">
  <advance width="874"/>
  <unicode hex="0047"/>
  <outline>
    <contour>
      <point x="653" y="-10"/>
      <point x="799" y="106"/>
      <point x="799" y="252" type="curve" smooth="yes"/>
      <point x="799" y="254" type="line"/>
      <point x="422" y="254" type="line"/>
      <point x="422" y="231" type="line"/>
      <point x="774" y="231" type="line"/>
      <point x="761" y="118"/>
      <point x="647" y="13"/>
      <point x="426" y="13" type="curve" smooth="yes"/>
      <point x="244" y="13"/>
      <point x="95" y="107"/>
      <point x="95" y="259" type="curve" smooth="yes"/>
      <point x="95" y="413"/>
      <point x="249" y="507"/>
      <point x="434" y="507" type="curve" smooth="yes"/>
      <point x="572" y="507"/>
      <point x="689" y="461"/>
      <point x="779" y="330" type="curve"/>
      <point x="791" y="331" type="line"/>
      <point x="791" y="520" type="line"/>
      <point x="768" y="520" type="line"/>
      <point x="768" y="361" type="line"/>
      <point x="779" y="361" type="line"/>
      <point x="710" y="461"/>
      <point x="595" y="530"/>
      <point x="434" y="530" type="curve" smooth="yes"/>
      <point x="241" y="530"/>
      <point x="70" y="431"/>
      <point x="70" y="259" type="curve" smooth="yes"/>
      <point x="70" y="89"/>
      <point x="234" y="-10"/>
      <point x="426" y="-10" type="curve" smooth="yes"/>
    </contour>
    <contour>
      <point x="429" y="530" type="move" name="top"/>
    </contour>
    <contour>
      <point x="429" y="-10" type="move" name="bottom"/>
    </contour>
  </outline>
</glyph>
<glyph name="I" format="1">
  <advance width="501"/>
  <unicode hex="0049"/>
  <outline>
    <contour>
      <point x="263" y="13" type="line" smooth="yes"/>
      <point x="263" y="507" type="line" smooth="yes"/>
      <point x="238" y="507" type="line" smooth="yes"/>
      <point x="238" y="13" type="line" smooth="yes"/>
    </contour>
    <contour>
      <point x="445" y="0" type="line" smooth="yes"/>
      <point x="445" y="23" type="line" smooth="yes"/>
      <point x="56" y="23" type="line" smooth="yes"/>
      <point x="56" y="0" type="line" smooth="yes"/>
    </contour>
    <contour>
      <point x="445" y="497" type="line" smooth="yes"/>
      <point x="445" y="520" type="line" smooth="yes"/>
      <point x="56" y="520" type="line" smooth="yes"/>
      <point x="56" y="497" type="line" smooth="yes"/>
    </contour>
    <contour>
      <point x="445" y="11" type="move" name="ogonek"/>
    </contour>
    <contour>
      <point x="251" y="0" type="move" name="bottom"/>
    </contour>
    <contour>
      <point x="251" y="520" type="move" name="top"/>
    </contour>
  </outline>
</glyph>
<glyph name="J" format="1">
  <advance width="653"/>
  <unicode hex="004A"/>
  <outline>
    <contour>
      <point x="381" y="-10"/>
      <point x="471" y="65"/>
      <point x="471" y="186" type="curve" smooth="yes"/>
      <point x="471" y="507" type="line"/>
      <point x="446" y="507" type="line"/>
      <point x="446" y="186" type="line" smooth="yes"/>
      <point x="446" y="68"/>
      <point x="355" y="13"/>
      <point x="249" y="13" type="curve" smooth="yes"/>
      <point x="148" y="13"/>
      <point x="77" y="72"/>
      <point x="37" y="127" type="curve"/>
      <point x="20" y="111" type="line"/>
      <point x="59" y="55"/>
      <point x="131" y="-10"/>
      <point x="249" y="-10" type="curve" smooth="yes"/>
    </contour>
    <contour>
      <point x="653" y="497" type="line"/>
      <point x="653" y="520" type="line"/>
      <point x="206" y="520" type="line"/>
      <point x="206" y="497" type="line"/>
    </contour>
    <contour>
      <point x="338.0" y="520.0" type="move" name="top"/>
    </contour>
    <contour>
      <point x="338.0" y="0.0" type="move" name="bottom"/>
    </contour>
  </outline>
</glyph>
<glyph name="L" format="1">
  <advance width="839"/>
  <unicode hex="004C"/>
  <outline>
    <contour>
      <point x="789" y="0" type="line"/>
      <point x="789" y="183" type="line"/>
      <point x="764" y="183" type="line"/>
      <point x="764" y="23" type="line"/>
      <point x="56" y="23" type="line"/>
      <point x="56" y="0" type="line"/>
    </contour>
    <contour>
      <point x="263" y="13" type="line"/>
      <point x="263" y="507" type="line"/>
      <point x="238" y="507" type="line"/>
      <point x="238" y="13" type="line"/>
    </contour>
    <contour>
      <point x="445" y="497" type="line"/>
      <point x="445" y="520" type="line"/>
      <point x="56" y="520" type="line"/>
      <point x="56" y="497" type="line"/>
    </contour>
    <contour>
      <point x="449.0" y="0.0" type="move" name="bottom"/>
    </contour>
    <contour>
      <point x="237.0" y="520.0" type="move" name="top"/>
    </contour>
    <contour>
      <point x="448.0" y="338.0" type="move" name="topright"/>
    </contour>
    <contour>
      <point x="412.0" y="245.0" type="move" name="center"/>
    </contour>
  </outline>
</glyph>
<glyph name="M" format="1">
  <advance width="1237"/>
  <unicode hex="004D"/>
  <outline>
    <contour>
      <point x="621" y="-11" type="line"/>
      <point x="629" y="14" type="line"/>
      <point x="263" y="520" type="line"/>
      <point x="232" y="520" type="line"/>
      <point x="616" y="-11" type="line"/>
    </contour>
    <contour>
      <point x="413" y="0" type="line"/>
      <point x="413" y="23" type="line"/>
      <point x="56" y="23" type="line"/>
      <point x="56" y="0" type="line"/>
    </contour>
    <contour>
      <point x="263" y="12" type="line"/>
      <point x="263" y="520" type="line"/>
      <point x="238" y="520" type="line"/>
      <point x="238" y="12" type="line"/>
    </contour>
    <contour>
      <point x="263" y="497" type="line"/>
      <point x="263" y="520" type="line"/>
      <point x="56" y="520" type="line"/>
      <point x="56" y="497" type="line"/>
    </contour>
    <contour>
      <point x="1181" y="0" type="line"/>
      <point x="1181" y="23" type="line"/>
      <point x="824" y="23" type="line"/>
      <point x="824" y="0" type="line"/>
    </contour>
    <contour>
      <point x="622" y="-11" type="line"/>
      <point x="1006" y="520" type="line"/>
      <point x="974" y="520" type="line"/>
      <point x="611" y="14" type="line"/>
      <point x="617" y="-11" type="line"/>
    </contour>
    <contour>
      <point x="999" y="12" type="line"/>
      <point x="999" y="520" type="line"/>
      <point x="974" y="520" type="line"/>
      <point x="974" y="12" type="line"/>
    </contour>
    <contour>
      <point x="1181" y="497" type="line"/>
      <point x="1181" y="520" type="line"/>
      <point x="974" y="520" type="line"/>
      <point x="974" y="497" type="line"/>
    </contour>
    <contour>
      <point x="619" y="490" type="move" name="top"/>
    </contour>
    <contour>
      <point x="619" y="-20" type="move" name="bottom"/>
    </contour>
  </outline>
</glyph>
<glyph name="O" format="1">
  <advance width="916"/>
  <unicode hex="004F"/>
  <outline>
    <contour>
      <point x="674" y="-10"/>
      <point x="841" y="88"/>
      <point x="841" y="260" type="curve"/>
      <point x="841" y="431"/>
      <point x="674" y="530"/>
      <point x="458" y="530" type="curve"/>
      <point x="242" y="530"/>
      <point x="75" y="431"/>
      <point x="75" y="260" type="curve"/>
      <point x="75" y="88"/>
      <point x="242" y="-10"/>
      <point x="458" y="-10" type="curve"/>
    </contour>
    <contour>
      <point x="252" y="13"/>
      <point x="100" y="106"/>
      <point x="100" y="260" type="curve"/>
      <point x="100" y="414"/>
      <point x="252" y="507"/>
      <point x="458" y="507" type="curve"/>
      <point x="663" y="507"/>
      <point x="816" y="414"/>
      <point x="816" y="260" type="curve"/>
      <point x="816" y="106"/>
      <point x="663" y="13"/>
      <point x="458" y="13" type="curve"/>
    </contour>
    <contour>
      <point x="458.0" y="-10.0" type="move" name="bottom"/>
    </contour>
    <contour>
      <point x="460.0" y="-8.0" type="move" name="ogonek"/>
    </contour>
    <contour>
      <point x="458.0" y="530.0" type="move" name="top"/>
    </contour>
    <contour>
      <point x="891.0" y="490.0" type="move" name="topright"/>
    </contour>
    <contour>
      <point x="458.0" y="245.0" type="move" name="center"/>
    </contour>
  </outline>
</glyph>
<glyph name="Q" format="1">
  <advance width="917"/>
  <unicode hex="0051"/>
  <outline>
    <contour>
      <point x="674" y="-10"/>
      <point x="841" y="88"/>
      <point x="841" y="260" type="curve"/>
      <point x="841" y="431"/>
      <point x="674" y="530"/>
      <point x="458" y="530" type="curve"/>
      <point x="242" y="530"/>
      <point x="75" y="431"/>
      <point x="75" y="260" type="curve"/>
      <point x="75" y="88"/>
      <point x="242" y="-10"/>
      <point x="458" y="-10" type="curve"/>
    </contour>
    <contour>
      <point x="828" y="-158"/>
      <point x="891" y="-99"/>
      <point x="902" y="-13" type="curve"/>
      <point x="879" y="-9" type="line"/>
      <point x="869" y="-87"/>
      <point x="813" y="-135"/>
      <point x="736" y="-135" type="curve" smooth="yes"/>
      <point x="658" y="-135"/>
      <point x="602" y="-80"/>
      <point x="533" y="2" type="curve" smooth="yes"/>
      <point x="515" y="23" type="line" smooth="yes"/>
      <point x="422" y="134"/>
      <point x="355" y="223"/>
      <point x="179" y="223" type="curve" smooth="yes"/>
      <point x="98" y="223" type="line"/>
      <point x="98" y="200" type="line"/>
      <point x="179" y="200" type="line" smooth="yes"/>
      <point x="341" y="200"/>
      <point x="409" y="113"/>
      <point x="490" y="17" type="curve" smooth="yes"/>
      <point x="503" y="1" type="line" smooth="yes"/>
      <point x="586" y="-99"/>
      <point x="644" y="-158"/>
      <point x="736" y="-158" type="curve" smooth="yes"/>
    </contour>
    <contour>
      <point x="252" y="13"/>
      <point x="100" y="106"/>
      <point x="100" y="260" type="curve"/>
      <point x="100" y="414"/>
      <point x="252" y="507"/>
      <point x="458" y="507" type="curve"/>
      <point x="663" y="507"/>
      <point x="816" y="414"/>
      <point x="816" y="260" type="curve"/>
      <point x="816" y="106"/>
      <point x="663" y="13"/>
      <point x="458" y="13" type="curve"/>
    </contour>
  </outline>
</glyph>
<glyph name="S" format="1">
  <advance width="848"/>
  <unicode hex="0053"/>
  <outline>
    <contour>
      <point x="667" y="-10"/>
      <point x="771" y="34"/>
      <point x="771" y="124" type="curve" smooth="yes"/>
      <point x="771" y="218"/>
      <point x="673" y="249"/>
      <point x="434" y="268" type="curve" smooth="yes"/>
      <point x="211" y="286"/>
      <point x="136" y="316"/>
      <point x="136" y="386" type="curve" smooth="yes"/>
      <point x="136" y="468"/>
      <point x="227" y="507"/>
      <point x="366" y="507" type="curve" smooth="yes"/>
      <point x="533" y="507"/>
      <point x="644" y="444"/>
      <point x="730" y="344" type="curve"/>
      <point x="736" y="346" type="line"/>
      <point x="736" y="520" type="line"/>
      <point x="713" y="520" type="line"/>
      <point x="713" y="378" type="line"/>
      <point x="727" y="378" type="line"/>
      <point x="660" y="453"/>
      <point x="552" y="530"/>
      <point x="368" y="530" type="curve" smooth="yes"/>
      <point x="206" y="530"/>
      <point x="111" y="479"/>
      <point x="111" y="386" type="curve" smooth="yes"/>
      <point x="111" y="305"/>
      <point x="188" y="261"/>
      <point x="433" y="244" type="curve" smooth="yes"/>
      <point x="659" y="228"/>
      <point x="747" y="201"/>
      <point x="747" y="124" type="curve" smooth="yes"/>
      <point x="747" y="47"/>
      <point x="651" y="13"/>
      <point x="527" y="13" type="curve" smooth="yes"/>
      <point x="378" y="13"/>
      <point x="205" y="73"/>
      <point x="115" y="177" type="curve"/>
      <point x="109" y="175" type="line"/>
      <point x="109" y="0" type="line"/>
      <point x="132" y="0" type="line"/>
      <point x="132" y="140" type="line"/>
      <point x="117" y="140" type="line"/>
      <point x="190" y="65"/>
      <point x="354" y="-10"/>
      <point x="526" y="-10" type="curve" smooth="yes"/>
    </contour>
    <contour>
      <point x="444" y="530" type="move" name="top"/>
    </contour>
    <contour>
      <point x="464" y="-10" type="move" name="bottom"/>
    </contour>
  </outline>
</glyph>
<glyph name="T" format="1">
  <advance width="921"/>
  <unicode hex="0054"/>
  <outline>
    <contour>
      <point x="115" y="337" type="line"/>
      <point x="115" y="497" type="line"/>
      <point x="806" y="497" type="line"/>
      <point x="806" y="337" type="line"/>
      <point x="831" y="337" type="line"/>
      <point x="831" y="520" type="line"/>
      <point x="90" y="520" type="line"/>
      <point x="90" y="337" type="line"/>
    </contour>
    <contour>
      <point x="665" y="0" type="line"/>
      <point x="665" y="23" type="line"/>
      <point x="256" y="23" type="line"/>
      <point x="256" y="0" type="line"/>
    </contour>
    <contour>
      <point x="473" y="13" type="line"/>
      <point x="473" y="507" type="line"/>
      <point x="448" y="507" type="line"/>
      <point x="448" y="13" type="line"/>
    </contour>
  </outline>
</glyph>
<glyph name="U" format="1">
  <advance width="1001"/>
  <unicode hex="0055"/>
  <outline>
    <contour>
      <point x="694" y="-10"/>
      <point x="819" y="79"/>
      <point x="819" y="254" type="curve" smooth="yes"/>
      <point x="819" y="507" type="line"/>
      <point x="797" y="507" type="line"/>
      <point x="794" y="242" type="line" smooth="yes"/>
      <point x="792" y="89"/>
      <point x="675" y="13"/>
      <point x="501" y="13" type="curve"/>
      <point x="326" y="13"/>
      <point x="209" y="89"/>
      <point x="207" y="243" type="curve" smooth="yes"/>
      <point x="204" y="507" type="line"/>
      <point x="182" y="507" type="line"/>
      <point x="182" y="254" type="line" smooth="yes"/>
      <point x="182" y="79"/>
      <point x="308" y="-10"/>
      <point x="501" y="-10" type="curve"/>
    </contour>
    <contour>
      <point x="386" y="497" type="line"/>
      <point x="386" y="520" type="line"/>
      <point x="0" y="520" type="line"/>
      <point x="0" y="497" type="line"/>
    </contour>
    <contour>
      <point x="1001" y="497" type="line"/>
      <point x="1001" y="520" type="line"/>
      <point x="615" y="520" type="line"/>
      <point x="615" y="497" type="line"/>
    </contour>
  </outline>
</glyph>
<glyph name="Y" format="1">
  <advance width="920"/>
  <unicode hex="0059"/>
  <outline>
    <contour>
      <point x="469" y="178" type="line"/>
      <point x="764" y="508" type="line"/>
      <point x="731" y="508" type="line"/>
      <point x="461" y="206" type="line"/>
      <point x="194" y="505" type="line"/>
      <point x="158" y="505" type="line"/>
      <point x="451" y="178" type="line"/>
    </contour>
    <contour>
      <point x="655" y="0" type="line"/>
      <point x="655" y="23" type="line"/>
      <point x="266" y="23" type="line"/>
      <point x="266" y="0" type="line"/>
    </contour>
    <contour>
      <point x="473" y="0" type="line"/>
      <point x="473" y="204" type="line"/>
      <point x="448" y="204" type="line"/>
      <point x="448" y="0" type="line"/>
    </contour>
    <contour>
      <point x="342" y="497" type="line"/>
      <point x="342" y="520" type="line"/>
      <point x="5" y="520" type="line"/>
      <point x="5" y="497" type="line"/>
    </contour>
    <contour>
      <point x="915" y="497" type="line"/>
      <point x="915" y="520" type="line"/>
      <point x="579" y="520" type="line"/>
      <point x="579" y="497" type="line"/>
    </contour>
  </outline>
</glyph>
<glyph name="backslash" format="1">
  <advance width="417"/>
  <unicode hex="005C"/>
  <outline>
    <contour>
      <point x="396" y="-79" type="line"/>
      <point x="53" y="561" type="line"/>
      <point x="25" y="561" type="line"/>
      <point x="368" y="-79" type="line"/>
    </contour>
  </outline>
</glyph>
<glyph name="underscore" format="1">
  <advance width="400"/>
  <unicode hex="005F"/>
  <outline>
    <contour>
      <point x="-10" y="-67" type="line"/>
      <point x="-10" y="-91" type="line"/>
      <point x="410" y="-91" type="line"/>
      <point x="410" y="-67" type="line"/>
    </contour>
  </outline>
</glyph>
<glyph name="grave" format="1">
  <advance width="490"/>
  <unicode hex="0060"/>
  <outline>
    <contour>
      <point x="291" y="584" type="line"/>
      <point x="50" y="713" type="line"/>
      <point x="65" y="741" type="line"/>
      <point x="300" y="600" type="line"/>
    </contour>
    <contour>
      <point x="232.0" y="520.0" type="move" name="_top"/>
    </contour>
  </outline>
</glyph>
<glyph name="e" format="1">
  <advance width="751"/>
  <unicode hex="0065"/>
  <outline>
    <contour>
      <point x="505" y="-10"/>
      <point x="590" y="22"/>
      <point x="666" y="69" type="curve"/>
      <point x="654" y="89" type="line"/>
      <point x="581" y="43"/>
      <point x="494" y="12"/>
      <point x="370" y="13" type="curve" smooth="yes"/>
      <point x="218" y="14"/>
      <point x="105" y="77"/>
      <point x="105" y="171" type="curve" smooth="yes"/>
      <point x="105" y="280"/>
      <point x="252" y="344"/>
      <point x="400" y="344" type="curve" smooth="yes"/>
      <point x="540" y="344"/>
      <point x="627" y="309"/>
      <point x="627" y="250" type="curve" smooth="yes"/>
      <point x="627" y="187"/>
      <point x="533" y="163"/>
      <point x="413" y="163" type="curve" smooth="yes"/>
      <point x="305" y="163"/>
      <point x="205" y="181"/>
      <point x="99" y="217" type="curve"/>
      <point x="100" y="196" type="line"/>
      <point x="205" y="160"/>
      <point x="305" y="140"/>
      <point x="413" y="140" type="curve" smooth="yes"/>
      <point x="548" y="140"/>
      <point x="652" y="172"/>
      <point x="652" y="250" type="curve" smooth="yes"/>
      <point x="652" y="323"/>
      <point x="551" y="367"/>
      <point x="400" y="367" type="curve" smooth="yes"/>
      <point x="240" y="367"/>
      <point x="80" y="297"/>
      <point x="80" y="171" type="curve" smooth="yes"/>
      <point x="80" y="57"/>
      <point x="208" y="-10"/>
      <point x="370" y="-10" type="curve" smooth="yes"/>
    </contour>
  </outline>
</glyph>
<glyph name="h" format="1">
  <advance width="937"/>
  <unicode hex="0068"/>
  <outline>
    <contour>
      <point x="752" y="0" type="line"/>
      <point x="752" y="135" type="line"/>
      <point x="752" y="257"/>
      <point x="703" y="367"/>
      <point x="547" y="367" type="curve" smooth="yes"/>
      <point x="411" y="367"/>
      <point x="288" y="263"/>
      <point x="224" y="211" type="curve"/>
      <point x="224" y="188" type="line"/>
      <point x="288" y="239"/>
      <point x="411" y="344"/>
      <point x="547" y="344" type="curve" smooth="yes"/>
      <point x="693" y="344"/>
      <point x="727" y="237"/>
      <point x="727" y="135" type="curve"/>
      <point x="727" y="0" type="line"/>
    </contour>
    <contour>
      <point x="397" y="0" type="line"/>
      <point x="397" y="23" type="line"/>
      <point x="30" y="23" type="line"/>
      <point x="30" y="0" type="line"/>
    </contour>
    <contour>
      <point x="238" y="0" type="line"/>
      <point x="238" y="520" type="line"/>
      <point x="31" y="520" type="line"/>
      <point x="31" y="497" type="line"/>
      <point x="213" y="497" type="line"/>
      <point x="213" y="0" type="line"/>
    </contour>
    <contour>
      <point x="924" y="0" type="line"/>
      <point x="924" y="23" type="line"/>
      <point x="567" y="23" type="line"/>
      <point x="567" y="0" type="line"/>
    </contour>
    <contour>
      <point x="466.0" y="179.0" type="move" name="center"/>
    </contour>
    <contour>
      <point x="466.0" y="0.0" type="move" name="bottom"/>
    </contour>
    <contour>
      <point x="466.0" y="367.0" type="move" name="top"/>
    </contour>
  </outline>
</glyph>
<glyph name="j" format="1">
  <advance width="444"/>
  <unicode hex="006A"/>
  <outline>
    <contour>
      <point x="219" y="-180"/>
      <point x="269" y="-119"/>
      <point x="269" y="-22" type="curve" smooth="yes"/>
      <point x="269" y="344" type="line"/>
      <point x="244" y="344" type="line"/>
      <point x="244" y="-23" type="line" smooth="yes"/>
      <point x="244" y="-111"/>
      <point x="202" y="-157"/>
      <point x="126" y="-157" type="curve" smooth="yes"/>
      <point x="79" y="-157"/>
      <point x="34" y="-146"/>
      <point x="-8" y="-133" type="curve"/>
      <point x="-15" y="-155" type="line"/>
      <point x="27" y="-168"/>
      <point x="73" y="-180"/>
      <point x="125" y="-180" type="curve" smooth="yes"/>
    </contour>
    <contour>
      <point x="269" y="334" type="line"/>
      <point x="269" y="357" type="line"/>
      <point x="62" y="357" type="line"/>
      <point x="62" y="334" type="line"/>
    </contour>
    <contour>
      <point x="278" y="469"/>
      <point x="294" y="482"/>
      <point x="294" y="499" type="curve"/>
      <point x="294" y="517"/>
      <point x="278" y="530"/>
      <point x="247" y="530" type="curve"/>
      <point x="217" y="530"/>
      <point x="199" y="517"/>
      <point x="199" y="499" type="curve"/>
      <point x="199" y="482"/>
      <point x="217" y="469"/>
      <point x="247" y="469" type="curve"/>
    </contour>
    <contour>
      <point x="211.0" y="357.0" type="move" name="top"/>
    </contour>
    <contour>
      <point x="211.0" y="0.0" type="move" name="bottom"/>
    </contour>
  </outline>
</glyph>
<glyph name="k" format="1">
  <advance width="889"/>
  <unicode hex="006B"/>
  <outline>
    <contour>
      <point x="645" y="134"/>
      <point x="755" y="177"/>
      <point x="755" y="263" type="curve" smooth="yes"/>
      <point x="755" y="328"/>
      <point x="689" y="367"/>
      <point x="582" y="367" type="curve" smooth="yes"/>
      <point x="465" y="367"/>
      <point x="339" y="311"/>
      <point x="223" y="232" type="curve"/>
      <point x="223" y="212" type="line"/>
      <point x="339" y="288"/>
      <point x="462" y="344"/>
      <point x="577" y="344" type="curve" smooth="yes"/>
      <point x="671" y="344"/>
      <point x="730" y="317"/>
      <point x="730" y="262" type="curve" smooth="yes"/>
      <point x="730" y="194"/>
      <point x="623" y="157"/>
      <point x="472" y="157" type="curve" smooth="yes"/>
      <point x="380" y="157"/>
      <point x="266" y="170"/>
      <point x="222" y="177" type="curve"/>
      <point x="220" y="160" type="line"/>
      <point x="266" y="151"/>
      <point x="366" y="134"/>
      <point x="469" y="134" type="curve" smooth="yes"/>
    </contour>
    <contour>
      <point x="419" y="0" type="line"/>
      <point x="419" y="23" type="line"/>
      <point x="30" y="23" type="line"/>
      <point x="30" y="0" type="line"/>
    </contour>
    <contour>
      <point x="237" y="0" type="line"/>
      <point x="237" y="520" type="line"/>
      <point x="212" y="520" type="line"/>
      <point x="212" y="0" type="line"/>
    </contour>
    <contour>
      <point x="763" y="-20"/>
      <point x="816" y="31"/>
      <point x="829" y="99" type="curve"/>
      <point x="808" y="103" type="line"/>
      <point x="795" y="34"/>
      <point x="743" y="2"/>
      <point x="685" y="2" type="curve" smooth="yes"/>
      <point x="603" y="2"/>
      <point x="554" y="55"/>
      <point x="481" y="151" type="curve"/>
      <point x="456" y="151" type="line"/>
      <point x="520" y="57"/>
      <point x="592" y="-20"/>
      <point x="683" y="-20" type="curve" smooth="yes"/>
    </contour>
    <contour>
      <point x="237" y="497" type="line"/>
      <point x="237" y="520" type="line"/>
      <point x="30" y="520" type="line"/>
      <point x="30" y="497" type="line"/>
    </contour>
    <contour>
      <point x="473.0" y="367.0" type="move" name="top"/>
    </contour>
    <contour>
      <point x="473.0" y="0.0" type="move" name="bottom"/>
    </contour>
  </outline>
</glyph>
<glyph name="l" format="1">
  <advance width="449"/>
  <unicode hex="006C"/>
  <outline>
    <contour>
      <point x="237" y="0" type="line"/>
      <point x="237" y="520" type="line"/>
      <point x="212" y="520" type="line"/>
      <point x="212" y="0" type="line"/>
    </contour>
    <contour>
      <point x="419" y="0" type="line"/>
      <point x="419" y="23" type="line"/>
      <point x="30" y="23" type="line"/>
      <point x="30" y="0" type="line"/>
    </contour>
    <contour>
      <point x="237" y="497" type="line"/>
      <point x="237" y="520" type="line"/>
      <point x="30" y="520" type="line"/>
      <point x="30" y="497" type="line"/>
    </contour>
    <contour>
      <point x="212.0" y="0.0" type="move" name="bottom"/>
    </contour>
    <contour>
      <point x="212.0" y="520.0" type="move" name="top"/>
    </contour>
    <contour>
      <point x="280.0" y="337.0" type="move" name="topright"/>
    </contour>
    <contour>
      <point x="212.0" y="283.0" type="move" name="center"/>
    </contour>
  </outline>
</glyph>
<glyph name="n" format="1">
  <advance width="957"/>
  <unicode hex="006E"/>
  <outline>
    <contour>
      <point x="772" y="0" type="line"/>
      <point x="772" y="135" type="line"/>
      <point x="772" y="257"/>
      <point x="723" y="367"/>
      <point x="567" y="367" type="curve" smooth="yes"/>
      <point x="431" y="367"/>
      <point x="308" y="263"/>
      <point x="244" y="211" type="curve"/>
      <point x="244" y="188" type="line"/>
      <point x="308" y="239"/>
      <point x="431" y="344"/>
      <point x="567" y="344" type="curve" smooth="yes"/>
      <point x="713" y="344"/>
      <point x="747" y="237"/>
      <point x="747" y="135" type="curve"/>
      <point x="747" y="0" type="line"/>
    </contour>
    <contour>
      <point x="417" y="0" type="line"/>
      <point x="417" y="23" type="line"/>
      <point x="50" y="23" type="line"/>
      <point x="50" y="0" type="line"/>
    </contour>
    <contour>
      <point x="257" y="0" type="line"/>
      <point x="257" y="357" type="line"/>
      <point x="232" y="357" type="line"/>
      <point x="232" y="0" type="line"/>
    </contour>
    <contour>
      <point x="257" y="334" type="line"/>
      <point x="257" y="357" type="line"/>
      <point x="50" y="357" type="line"/>
      <point x="50" y="334" type="line"/>
    </contour>
    <contour>
      <point x="944" y="0" type="line"/>
      <point x="944" y="23" type="line"/>
      <point x="587" y="23" type="line"/>
      <point x="587" y="0" type="line"/>
    </contour>
    <contour>
      <point x="519.0" y="367.0" type="move" name="top"/>
    </contour>
    <contour>
      <point x="509.0" y="0.0" type="move" name="bottom"/>
    </contour>
  </outline>
</glyph>
<glyph name="q" format="1">
  <advance width="905"/>
  <unicode hex="0071"/>
  <outline>
    <contour>
      <point x="448" y="-11"/>
      <point x="570" y="53"/>
      <point x="686" y="137" type="curve"/>
      <point x="686" y="160" type="line"/>
      <point x="561" y="72"/>
      <point x="432" y="12"/>
      <point x="318" y="12" type="curve"/>
      <point x="185" y="12"/>
      <point x="105" y="73"/>
      <point x="105" y="161" type="curve"/>
      <point x="105" y="271"/>
      <point x="231" y="344"/>
      <point x="383" y="343" type="curve" smooth="yes"/>
      <point x="526" y="344"/>
      <point x="701" y="285"/>
      <point x="830" y="224" type="curve"/>
      <point x="830" y="248" type="line"/>
      <point x="702" y="310"/>
      <point x="537" y="367"/>
      <point x="383" y="366" type="curve" smooth="yes"/>
      <point x="220" y="366"/>
      <point x="80" y="289"/>
      <point x="80" y="161" type="curve"/>
      <point x="80" y="53"/>
      <point x="175" y="-11"/>
      <point x="318" y="-11" type="curve"/>
    </contour>
    <contour>
      <point x="880" y="-165" type="line"/>
      <point x="880" y="-142" type="line"/>
      <point x="481" y="-142" type="line"/>
      <point x="481" y="-165" type="line"/>
    </contour>
    <contour>
      <point x="698" y="-165" type="line"/>
      <point x="698" y="368" type="line"/>
      <point x="686" y="368" type="line"/>
      <point x="673" y="301" type="line"/>
      <point x="673" y="-165" type="line"/>
    </contour>
    <contour>
      <point x="382.0" y="179.0" type="move" name="center"/>
    </contour>
    <contour>
      <point x="382.0" y="-10.0" type="move" name="bottom"/>
    </contour>
    <contour>
      <point x="382.0" y="367.0" type="move" name="top"/>
    </contour>
  </outline>
</glyph>
<glyph name="r" format="1">
  <advance width="745"/>
  <unicode hex="0072"/>
  <outline>
    <contour>
      <point x="376" y="287"/>
      <point x="499" y="344"/>
      <point x="627" y="344" type="curve"/>
      <point x="627" y="219" type="line"/>
      <point x="650" y="219" type="line"/>
      <point x="650" y="366" type="line"/>
      <point x="625" y="367" type="line"/>
      <point x="482" y="367"/>
      <point x="366" y="305"/>
      <point x="244" y="211" type="curve"/>
      <point x="244" y="188" type="line"/>
    </contour>
    <contour>
      <point x="439" y="0" type="line"/>
      <point x="439" y="23" type="line"/>
      <point x="50" y="23" type="line"/>
      <point x="50" y="0" type="line"/>
    </contour>
    <contour>
      <point x="257" y="0" type="line"/>
      <point x="257" y="357" type="line"/>
      <point x="232" y="357" type="line"/>
      <point x="232" y="0" type="line"/>
    </contour>
    <contour>
      <point x="257" y="334" type="line"/>
      <point x="257" y="357" type="line"/>
      <point x="50" y="357" type="line"/>
      <point x="50" y="334" type="line"/>
    </contour>
    <contour>
      <point x="355.0" y="357.0" type="move" name="top"/>
    </contour>
    <contour>
      <point x="355.0" y="0.0" type="move" name="bottom"/>
    </contour>
  </outline>
</glyph>
<glyph name="t" format="1">
  <advance width="523"/>
  <unicode hex="0074"/>
  <outline>
    <contour>
      <point x="356" y="-10"/>
      <point x="420" y="14"/>
      <point x="463" y="35" type="curve"/>
      <point x="453" y="56" type="line"/>
      <point x="412" y="35"/>
      <point x="353" y="13"/>
      <point x="284" y="13" type="curve" smooth="yes"/>
      <point x="222" y="13"/>
      <point x="180" y="41"/>
      <point x="180" y="123" type="curve"/>
      <point x="180" y="456" type="line"/>
      <point x="155" y="456" type="line"/>
      <point x="155" y="123" type="line"/>
      <point x="155" y="27"/>
      <point x="205" y="-10"/>
      <point x="286" y="-10" type="curve" smooth="yes"/>
    </contour>
    <contour>
      <point x="418" y="334" type="line"/>
      <point x="418" y="357" type="line"/>
      <point x="25" y="357" type="line"/>
      <point x="25" y="334" type="line"/>
    </contour>
  </outline>
</glyph>
<glyph name="u" format="1">
  <advance width="852"/>
  <unicode hex="0075"/>
  <outline>
    <contour>
      <point x="482" y="-10"/>
      <point x="577" y="40"/>
      <point x="677" y="88" type="curve"/>
      <point x="677" y="112" type="line"/>
      <point x="577" y="62"/>
      <point x="467" y="13"/>
      <point x="368" y="13" type="curve"/>
      <point x="258" y="14"/>
      <point x="197" y="60"/>
      <point x="197" y="165" type="curve"/>
      <point x="197" y="357" type="line"/>
      <point x="172" y="357" type="line"/>
      <point x="172" y="165" type="line"/>
      <point x="172" y="39"/>
      <point x="248" y="-10"/>
      <point x="368" y="-10" type="curve"/>
    </contour>
    <contour>
      <point x="184" y="334" type="line"/>
      <point x="184" y="357" type="line"/>
      <point x="0" y="357" type="line"/>
      <point x="0" y="334" type="line"/>
    </contour>
    <contour>
      <point x="786" y="-10"/>
      <point x="812" y="2"/>
      <point x="837" y="19" type="curve"/>
      <point x="827" y="39" type="line"/>
      <point x="804" y="22"/>
      <point x="782" y="13"/>
      <point x="755" y="13" type="curve" smooth="yes"/>
      <point x="723" y="13"/>
      <point x="691" y="38"/>
      <point x="691" y="94" type="curve"/>
      <point x="691" y="357" type="line"/>
      <point x="666" y="357" type="line"/>
      <point x="666" y="94" type="line"/>
      <point x="666" y="28"/>
      <point x="704" y="-10"/>
      <point x="754" y="-10" type="curve" smooth="yes"/>
    </contour>
    <contour>
      <point x="684" y="334" type="line"/>
      <point x="684" y="357" type="line"/>
      <point x="506" y="357" type="line"/>
      <point x="506" y="334" type="line"/>
    </contour>
    <contour>
      <point x="837" y="19" type="move" name="ogonek"/>
    </contour>
    <contour>
      <point x="381" y="347" type="move" name="top"/>
    </contour>
    <contour>
      <point x="812" y="357" type="move" name="topright"/>
    </contour>
    <contour>
      <point x="368" y="-10" type="move" name="bottom"/>
    </contour>
  </outline>
</glyph>
<glyph name="v" format="1">
  <advance width="753"/>
  <unicode hex="0076"/>
  <outline>
    <contour>
      <point x="0" y="357" type="line"/>
      <point x="0" y="334" type="line"/>
      <point x="273" y="334" type="line"/>
      <point x="273" y="357" type="line"/>
    </contour>
    <contour>
      <point x="479" y="357" type="line"/>
      <point x="479" y="334" type="line"/>
      <point x="753" y="334" type="line"/>
      <point x="753" y="357" type="line"/>
    </contour>
    <contour>
      <point x="377" y="-10" type="line"/>
      <point x="635" y="348" type="line"/>
      <point x="608" y="348" type="line"/>
      <point x="375" y="19" type="line"/>
      <point x="142" y="348" type="line"/>
      <point x="112" y="348" type="line"/>
      <point x="371" y="-10" type="line"/>
    </contour>
    <contour>
      <point x="377" y="347" type="move" name="top"/>
    </contour>
    <contour>
      <point x="375" y="0" type="move" name="bottom"/>
    </contour>
  </outline>
</glyph>
<glyph name="z" format="1">
  <advance width="765"/>
  <unicode hex="007A"/>
  <outline>
    <contour>
      <point x="611" y="259"/>
      <point x="498" y="227"/>
      <point x="380" y="190" type="curve" smooth="yes"/>
      <point x="269" y="155"/>
      <point x="154" y="116"/>
      <point x="100" y="1" type="curve"/>
      <point x="121" y="-10" type="line"/>
      <point x="174" y="96"/>
      <point x="280" y="136"/>
      <point x="385" y="170" type="curve" smooth="yes"/>
      <point x="509" y="209"/>
      <point x="632" y="240"/>
      <point x="669" y="358" type="curve"/>
      <point x="647" y="367" type="line"/>
    </contour>
    <contour>
      <point x="635" y="-10"/>
      <point x="692" y="41"/>
      <point x="705" y="121" type="curve"/>
      <point x="682" y="125" type="line"/>
      <point x="669" y="47"/>
      <point x="604" y="13"/>
      <point x="522" y="13" type="curve" smooth="yes"/>
      <point x="435" y="13"/>
      <point x="328" y="52"/>
      <point x="200" y="105" type="curve"/>
      <point x="184" y="90" type="line"/>
      <point x="314" y="35"/>
      <point x="424" y="-10"/>
      <point x="521" y="-10" type="curve" smooth="yes"/>
    </contour>
    <contour>
      <point x="135" y="219" type="line"/>
      <point x="135" y="345" type="line"/>
      <point x="351" y="345"/>
      <point x="470" y="290"/>
      <point x="585" y="250" type="curve"/>
      <point x="593" y="269" type="line"/>
      <point x="478" y="310"/>
      <point x="368" y="367"/>
      <point x="137" y="367" type="curve" smooth="yes"/>
      <point x="112" y="367" type="line"/>
      <point x="112" y="219" type="line"/>
    </contour>
  </outline>
</glyph>
<glyph name="bar" format="1">
  <advance width="214"/>
  <unicode hex="007C"/>
  <outline>
    <contour>
      <point x="134" y="-194" type="line"/>
      <point x="134" y="695" type="line"/>
      <point x="80" y="695" type="line"/>
      <point x="80" y="-194" type="line"/>
    </contour>
  </outline>
</glyph>
<glyph name="dieresis" format="1">
  <advance width="482"/>
  <unicode hex="00A8"/>
  <outline>
    <contour>
      <point x="381" y="634"/>
      <point x="396" y="647"/>
      <point x="396" y="663" type="curve"/>
      <point x="396" y="680"/>
      <point x="381" y="692"/>
      <point x="352" y="692" type="curve"/>
      <point x="324" y="692"/>
      <point x="307" y="680"/>
      <point x="307" y="663" type="curve"/>
      <point x="307" y="647"/>
      <point x="324" y="634"/>
      <point x="352" y="634" type="curve"/>
    </contour>
    <contour>
      <point x="159" y="634"/>
      <point x="175" y="647"/>
      <point x="175" y="663" type="curve"/>
      <point x="175" y="680"/>
      <point x="159" y="692"/>
      <point x="130" y="692" type="curve"/>
      <point x="102" y="692"/>
      <point x="86" y="680"/>
      <point x="86" y="663" type="curve"/>
      <point x="86" y="647"/>
      <point x="102" y="634"/>
      <point x="130" y="634" type="curve"/>
    </contour>
    <contour>
      <point x="245.0" y="520.0" type="move" name="_top"/>
    </contour>
  </outline>
</glyph>
<glyph name="macron" format="1">
  <advance width="617"/>
  <unicode hex="00AF"/>
  <outline>
    <contour>
      <point x="70" y="677" type="line"/>
      <point x="70" y="653" type="line"/>
      <point x="547" y="653" type="line"/>
      <point x="547" y="677" type="line"/>
    </contour>
    <contour>
      <point x="313.0" y="520.0" type="move" name="_top"/>
    </contour>
  </outline>
</glyph>
<glyph name="mu.math" format="1">
  <advance width="535"/>
  <unicode hex="00B5"/>
  <outline>
    <contour>
      <point x="359" y="-7"/>
      <point x="420" y="57"/>
      <point x="417" y="206" type="curve"/>
      <point x="398" y="225" type="line"/>
      <point x="398" y="123"/>
      <point x="348" y="52"/>
      <point x="268" y="52" type="curve" smooth="yes"/>
      <point x="203" y="52"/>
      <point x="137" y="92"/>
      <point x="137" y="172" type="curve" smooth="yes"/>
      <point x="137" y="467" type="line"/>
      <point x="96" y="467" type="line"/>
      <point x="96" y="155" type="line" smooth="yes"/>
      <point x="96" y="59"/>
      <point x="158" y="-7"/>
      <point x="257" y="-7" type="curve" smooth="yes"/>
    </contour>
    <contour>
      <point x="137" y="-179" type="line"/>
      <point x="137" y="507" type="line"/>
      <point x="76" y="507" type="line"/>
      <point x="76" y="-179" type="line"/>
    </contour>
    <contour>
      <point x="459" y="0" type="line"/>
      <point x="459" y="507" type="line"/>
      <point x="398" y="507" type="line"/>
      <point x="398" y="0" type="line"/>
    </contour>
  </outline>
</glyph>
<glyph name="Atilde" format="1">
  <advance width="1024"/>
  <unicode hex="00C3"/>
  <outline>
    <contour>
      <point x="714" y="738" type="curve"/>
      <point x="693" y="742" type="line"/>
      <point x="682" y="675"/>
      <point x="647" y="648"/>
      <point x="609" y="648" type="curve" smooth="yes"/>
      <point x="575" y="648"/>
      <point x="544" y="669"/>
      <point x="512" y="692" type="curve" smooth="yes"/>
      <point x="477" y="716"/>
      <point x="444" y="742"/>
      <point x="399" y="742" type="curve" smooth="yes"/>
      <point x="339" y="742"/>
      <point x="302" y="696"/>
      <point x="291" y="628" type="curve"/>
      <point x="312" y="624" type="line"/>
      <point x="323" y="692"/>
      <point x="358" y="720"/>
      <point x="397" y="720" type="curve" smooth="yes"/>
      <point x="432" y="720"/>
      <point x="461" y="699"/>
      <point x="493" y="676" type="curve" smooth="yes"/>
      <point x="528" y="652"/>
      <point x="563" y="626"/>
      <point x="607" y="626" type="curve" smooth="yes"/>
      <point x="666" y="626"/>
      <point x="703" y="671"/>
    </contour>
    <contour>
      <point x="703" y="222" type="line"/>
      <point x="322" y="222" type="line"/>
      <point x="511" y="497" type="line"/>
      <point x="514" y="497" type="line"/>
    </contour>
    <contour>
      <point x="334" y="0" type="line"/>
      <point x="334" y="23" type="line"/>
      <point x="186" y="23" type="line"/>
      <point x="306" y="199" type="line"/>
      <point x="719" y="199" type="line"/>
      <point x="839" y="23" type="line"/>
      <point x="691" y="23" type="line"/>
      <point x="691" y="0" type="line"/>
      <point x="1029" y="0" type="line"/>
      <point x="1029" y="23" type="line"/>
      <point x="868" y="23" type="line"/>
      <point x="540" y="497" type="line"/>
      <point x="700" y="497" type="line"/>
      <point x="700" y="520" type="line"/>
      <point x="324" y="520" type="line"/>
      <point x="324" y="497" type="line"/>
      <point x="484" y="497" type="line"/>
      <point x="157" y="23" type="line"/>
      <point x="-5" y="23" type="line"/>
      <point x="-5" y="0" type="line"/>
    </contour>
  </outline>
</glyph>
<glyph name="Aring" format="1">
  <advance width="1024"/>
  <unicode hex="00C5"/>
  <outline>
    <contour>
      <point x="647" y="720" type="curve" smooth="yes"/>
      <point x="647" y="783"/>
      <point x="591" y="825"/>
      <point x="512" y="825" type="curve" smooth="yes"/>
      <point x="437" y="825"/>
      <point x="376" y="783"/>
      <point x="376" y="720" type="curve" smooth="yes"/>
      <point x="376" y="660"/>
      <point x="437" y="614"/>
      <point x="512" y="614" type="curve" smooth="yes"/>
      <point x="591" y="614"/>
      <point x="647" y="660"/>
    </contour>
    <contour>
      <point x="399" y="720" type="curve" smooth="yes"/>
      <point x="399" y="768"/>
      <point x="448" y="803"/>
      <point x="512" y="803" type="curve" smooth="yes"/>
      <point x="579" y="803"/>
      <point x="624" y="768"/>
      <point x="624" y="720" type="curve" smooth="yes"/>
      <point x="624" y="674"/>
      <point x="579" y="636"/>
      <point x="512" y="636" type="curve" smooth="yes"/>
      <point x="448" y="636"/>
      <point x="399" y="674"/>
    </contour>
    <contour>
      <point x="703" y="222" type="line"/>
      <point x="322" y="222" type="line"/>
      <point x="511" y="497" type="line"/>
      <point x="514" y="497" type="line"/>
    </contour>
    <contour>
      <point x="334" y="0" type="line"/>
      <point x="334" y="23" type="line"/>
      <point x="186" y="23" type="line"/>
      <point x="306" y="199" type="line"/>
      <point x="719" y="199" type="line"/>
      <point x="839" y="23" type="line"/>
      <point x="691" y="23" type="line"/>
      <point x="691" y="0" type="line"/>
      <point x="1029" y="0" type="line"/>
      <point x="1029" y="23" type="line"/>
      <point x="868" y="23" type="line"/>
      <point x="540" y="497" type="line"/>
      <point x="700" y="497" type="line"/>
      <point x="700" y="520" type="line"/>
      <point x="324" y="520" type="line"/>
      <point x="324" y="497" type="line"/>
      <point x="484" y="497" type="line"/>
      <point x="157" y="23" type="line"/>
      <point x="-5" y="23" type="line"/>
      <point x="-5" y="0" type="line"/>
    </contour>
  </outline>
</glyph>
<glyph name="Edieresis" format="1">
  <advance width="992"/>
  <unicode hex="00CB"/>
  <outline>
    <contour>
      <point x="459" y="663" type="curve" smooth="yes"/>
      <point x="459" y="680"/>
      <point x="443" y="692"/>
      <point x="414" y="692" type="curve" smooth="yes"/>
      <point x="386" y="692"/>
      <point x="370" y="680"/>
      <point x="370" y="663" type="curve" smooth="yes"/>
      <point x="370" y="647"/>
      <point x="386" y="634"/>
      <point x="414" y="634" type="curve" smooth="yes"/>
      <point x="443" y="634"/>
      <point x="459" y="647"/>
    </contour>
    <contour>
      <point x="680" y="663" type="curve" smooth="yes"/>
      <point x="680" y="680"/>
      <point x="665" y="692"/>
      <point x="636" y="692" type="curve" smooth="yes"/>
      <point x="608" y="692"/>
      <point x="591" y="680"/>
      <point x="591" y="663" type="curve" smooth="yes"/>
      <point x="591" y="647"/>
      <point x="608" y="634"/>
      <point x="636" y="634" type="curve" smooth="yes"/>
      <point x="665" y="634"/>
      <point x="680" y="647"/>
    </contour>
    <contour>
      <point x="862" y="183" type="line"/>
      <point x="838" y="183" type="line"/>
      <point x="838" y="23" type="line"/>
      <point x="263" y="23" type="line"/>
      <point x="263" y="261" type="line"/>
      <point x="571" y="261" type="line"/>
      <point x="571" y="153" type="line"/>
      <point x="596" y="153" type="line"/>
      <point x="596" y="392" type="line"/>
      <point x="571" y="392" type="line"/>
      <point x="571" y="284" type="line"/>
      <point x="263" y="284" type="line"/>
      <point x="263" y="497" type="line"/>
      <point x="837" y="497" type="line"/>
      <point x="837" y="337" type="line"/>
      <point x="862" y="337" type="line"/>
      <point x="862" y="520" type="line"/>
      <point x="56" y="520" type="line"/>
      <point x="56" y="497" type="line"/>
      <point x="238" y="497" type="line"/>
      <point x="238" y="23" type="line"/>
      <point x="56" y="23" type="line"/>
      <point x="56" y="0" type="line"/>
      <point x="862" y="0" type="line"/>
    </contour>
  </outline>
</glyph>
<glyph name="Icircumflex" format="1">
  <advance width="501"/>
  <unicode hex="00CE"/>
  <outline>
    <contour>
      <point x="251" y="679" type="line"/>
      <point x="417" y="552" type="line"/>
      <point x="428" y="565" type="line"/>
      <point x="261" y="707" type="line"/>
      <point x="241" y="707" type="line"/>
      <point x="74" y="565" type="line"/>
      <point x="85" y="552" type="line"/>
    </contour>
    <contour>
      <point x="445" y="0" type="line"/>
      <point x="445" y="23" type="line"/>
      <point x="263" y="23" type="line"/>
      <point x="263" y="497" type="line"/>
      <point x="445" y="497" type="line"/>
      <point x="445" y="520" type="line"/>
      <point x="56" y="520" type="line"/>
      <point x="56" y="497" type="line"/>
      <point x="238" y="497" type="line"/>
      <point x="238" y="23" type="line"/>
      <point x="56" y="23" type="line"/>
      <point x="56" y="0" type="line"/>
    </contour>
  </outline>
</glyph>
<glyph name="Eth" format="1">
  <advance width="964"/>
  <unicode hex="00D0"/>
  <outline>
    <contour>
      <point x="545" y="0" type="line" smooth="yes"/>
      <point x="750" y="0"/>
      <point x="889" y="85"/>
      <point x="889" y="260" type="curve" smooth="yes"/>
      <point x="889" y="435"/>
      <point x="750" y="520"/>
      <point x="545" y="520" type="curve" smooth="yes"/>
      <point x="56" y="520" type="line"/>
      <point x="56" y="497" type="line"/>
      <point x="238" y="497" type="line"/>
      <point x="238" y="269" type="line"/>
      <point x="60" y="269" type="line"/>
      <point x="60" y="246" type="line"/>
      <point x="238" y="246" type="line"/>
      <point x="238" y="23" type="line"/>
      <point x="56" y="23" type="line"/>
      <point x="56" y="0" type="line"/>
    </contour>
    <contour>
      <point x="607" y="246" type="line"/>
      <point x="607" y="269" type="line"/>
      <point x="263" y="269" type="line"/>
      <point x="263" y="497" type="line"/>
      <point x="545" y="497" type="line" smooth="yes"/>
      <point x="739" y="497"/>
      <point x="864" y="418"/>
      <point x="864" y="260" type="curve" smooth="yes"/>
      <point x="864" y="102"/>
      <point x="739" y="23"/>
      <point x="545" y="23" type="curve" smooth="yes"/>
      <point x="263" y="23" type="line"/>
      <point x="263" y="246" type="line"/>
    </contour>
  </outline>
</glyph>
<glyph name="Ntilde" format="1">
  <advance width="1107"/>
  <unicode hex="00D1"/>
  <outline>
    <contour>
      <point x="753" y="728" type="curve"/>
      <point x="732" y="732" type="line"/>
      <point x="721" y="665"/>
      <point x="686" y="638"/>
      <point x="648" y="638" type="curve" smooth="yes"/>
      <point x="614" y="638"/>
      <point x="583" y="659"/>
      <point x="551" y="682" type="curve" smooth="yes"/>
      <point x="516" y="706"/>
      <point x="483" y="732"/>
      <point x="438" y="732" type="curve" smooth="yes"/>
      <point x="378" y="732"/>
      <point x="341" y="686"/>
      <point x="330" y="618" type="curve"/>
      <point x="351" y="614" type="line"/>
      <point x="362" y="682"/>
      <point x="397" y="710"/>
      <point x="436" y="710" type="curve" smooth="yes"/>
      <point x="471" y="710"/>
      <point x="500" y="689"/>
      <point x="532" y="666" type="curve" smooth="yes"/>
      <point x="567" y="642"/>
      <point x="602" y="616"/>
      <point x="646" y="616" type="curve" smooth="yes"/>
      <point x="705" y="616"/>
      <point x="742" y="661"/>
    </contour>
    <contour>
      <point x="910" y="-5" type="line"/>
      <point x="910" y="497" type="line"/>
      <point x="1092" y="497" type="line"/>
      <point x="1092" y="520" type="line"/>
      <point x="703" y="520" type="line"/>
      <point x="703" y="497" type="line"/>
      <point x="885" y="497" type="line"/>
      <point x="885" y="43" type="line"/>
      <point x="263" y="520" type="line"/>
      <point x="56" y="520" type="line"/>
      <point x="56" y="497" type="line"/>
      <point x="238" y="497" type="line"/>
      <point x="238" y="23" type="line"/>
      <point x="56" y="23" type="line"/>
      <point x="56" y="0" type="line"/>
      <point x="445" y="0" type="line"/>
      <point x="445" y="23" type="line"/>
      <point x="263" y="23" type="line"/>
      <point x="263" y="486" type="line"/>
      <point x="905" y="-5" type="line"/>
    </contour>
  </outline>
</glyph>
<glyph name="Udieresis" format="1">
  <advance width="1001"/>
  <unicode hex="00DC"/>
  <outline>
    <contour>
      <point x="431" y="653" type="curve" smooth="yes"/>
      <point x="431" y="670"/>
      <point x="415" y="682"/>
      <point x="386" y="682" type="curve" smooth="yes"/>
      <point x="358" y="682"/>
      <point x="342" y="670"/>
      <point x="342" y="653" type="curve" smooth="yes"/>
      <point x="342" y="637"/>
      <point x="358" y="624"/>
      <point x="386" y="624" type="curve" smooth="yes"/>
      <point x="415" y="624"/>
      <point x="431" y="637"/>
    </contour>
    <contour>
      <point x="652" y="653" type="curve" smooth="yes"/>
      <point x="652" y="670"/>
      <point x="637" y="682"/>
      <point x="608" y="682" type="curve" smooth="yes"/>
      <point x="580" y="682"/>
      <point x="563" y="670"/>
      <point x="563" y="653" type="curve" smooth="yes"/>
      <point x="563" y="637"/>
      <point x="580" y="624"/>
      <point x="608" y="624" type="curve" smooth="yes"/>
      <point x="637" y="624"/>
      <point x="652" y="637"/>
    </contour>
    <contour>
      <point x="819" y="254" type="curve" smooth="yes"/>
      <point x="819" y="497" type="line"/>
      <point x="1001" y="497" type="line"/>
      <point x="1001" y="520" type="line"/>
      <point x="615" y="520" type="line"/>
      <point x="615" y="497" type="line"/>
      <point x="797" y="497" type="line"/>
      <point x="794" y="242" type="line" smooth="yes"/>
      <point x="792" y="89"/>
      <point x="675" y="13"/>
      <point x="501" y="13" type="curve" smooth="yes"/>
      <point x="326" y="13"/>
      <point x="209" y="89"/>
      <point x="207" y="243" type="curve" smooth="yes"/>
      <point x="204" y="497" type="line"/>
      <point x="386" y="497" type="line"/>
      <point x="386" y="520" type="line"/>
      <point x="0" y="520" type="line"/>
      <point x="0" y="497" type="line"/>
      <point x="182" y="497" type="line"/>
      <point x="182" y="254" type="line" smooth="yes"/>
      <point x="182" y="79"/>
      <point x="308" y="-10"/>
      <point x="501" y="-10" type="curve" smooth="yes"/>
      <point x="694" y="-10"/>
      <point x="819" y="79"/>
    </contour>
  </outline>
</glyph>
<glyph name="Yacute" format="1">
  <advance width="920"/>
  <unicode hex="00DD"/>
  <outline>
    <contour>
      <point x="392" y="590" type="line"/>
      <point x="401" y="574" type="line"/>
      <point x="642" y="703" type="line"/>
      <point x="627" y="731" type="line"/>
    </contour>
    <contour>
      <point x="655" y="0" type="line"/>
      <point x="655" y="23" type="line"/>
      <point x="473" y="23" type="line"/>
      <point x="473" y="182" type="line"/>
      <point x="754" y="497" type="line"/>
      <point x="915" y="497" type="line"/>
      <point x="915" y="520" type="line"/>
      <point x="579" y="520" type="line"/>
      <point x="579" y="497" type="line"/>
      <point x="721" y="497" type="line"/>
      <point x="461" y="206" type="line"/>
      <point x="201" y="497" type="line"/>
      <point x="342" y="497" type="line"/>
      <point x="342" y="520" type="line"/>
      <point x="5" y="520" type="line"/>
      <point x="5" y="497" type="line"/>
      <point x="165" y="497" type="line"/>
      <point x="448" y="181" type="line"/>
      <point x="448" y="23" type="line"/>
      <point x="266" y="23" type="line"/>
      <point x="266" y="0" type="line"/>
    </contour>
  </outline>
</glyph>
<glyph name="germandbls" format="1">
  <advance width="848"/>
  <unicode hex="00DF"/>
  <outline>
    <contour>
      <point x="742" y="-10"/>
      <point x="803" y="25"/>
      <point x="803" y="82" type="curve" smooth="yes"/>
      <point x="803" y="154"/>
      <point x="714" y="170"/>
      <point x="599" y="181" type="curve" smooth="yes"/>
      <point x="475" y="193"/>
      <point x="418" y="207"/>
      <point x="418" y="252" type="curve" smooth="yes"/>
      <point x="418" y="302"/>
      <point x="490" y="317"/>
      <point x="560" y="329" type="curve" smooth="yes"/>
      <point x="667" y="347"/>
      <point x="729" y="367"/>
      <point x="729" y="442" type="curve" smooth="yes"/>
      <point x="729" y="521"/>
      <point x="607" y="585"/>
      <point x="435" y="585" type="curve" smooth="yes"/>
      <point x="270" y="585"/>
      <point x="210" y="504"/>
      <point x="210" y="406" type="curve" smooth="yes"/>
      <point x="210" y="0" type="line"/>
      <point x="235" y="0" type="line"/>
      <point x="235" y="408" type="line" smooth="yes"/>
      <point x="235" y="495"/>
      <point x="287" y="562"/>
      <point x="433" y="562" type="curve" smooth="yes"/>
      <point x="594" y="562"/>
      <point x="704" y="509"/>
      <point x="704" y="442" type="curve" smooth="yes"/>
      <point x="704" y="381"/>
      <point x="646" y="368"/>
      <point x="555" y="352" type="curve" smooth="yes"/>
      <point x="448" y="333"/>
      <point x="393" y="308"/>
      <point x="393" y="251" type="curve" smooth="yes"/>
      <point x="393" y="192"/>
      <point x="454" y="168"/>
      <point x="599" y="156" type="curve" smooth="yes"/>
      <point x="707" y="147"/>
      <point x="779" y="133"/>
      <point x="779" y="81" type="curve" smooth="yes"/>
      <point x="779" y="38"/>
      <point x="718" y="12"/>
      <point x="648" y="12" type="curve" smooth="yes"/>
      <point x="567" y="12"/>
      <point x="446" y="50"/>
      <point x="377" y="136" type="curve"/>
      <point x="377" y="136" type="line"/>
      <point x="377" y="0" type="line"/>
      <point x="399" y="0" type="line"/>
      <point x="399" y="99" type="line"/>
      <point x="383" y="106" type="line"/>
      <point x="430" y="43"/>
      <point x="545" y="-10"/>
      <point x="648" y="-10" type="curve" smooth="yes"/>
    </contour>
    <contour>
      <point x="220" y="0" type="line"/>
      <point x="220" y="23" type="line"/>
      <point x="50" y="23" type="line"/>
      <point x="50" y="0" type="line"/>
    </contour>
    <contour>
      <point x="219" y="334" type="line"/>
      <point x="219" y="357" type="line"/>
      <point x="50" y="357" type="line"/>
      <point x="50" y="334" type="line"/>
    </contour>
  </outline>
</glyph>
<glyph name="aacute" format="1">
  <advance width="805"/>
  <unicode hex="00E1"/>
  <outline>
    <contour>
      <point x="316" y="447" type="line"/>
      <point x="325" y="431" type="line"/>
      <point x="566" y="560" type="line"/>
      <point x="551" y="588" type="line"/>
    </contour>
    <contour>
      <point x="710" y="-10" type="curve" smooth="yes"/>
      <point x="741" y="-10"/>
      <point x="768" y="2"/>
      <point x="792" y="19" type="curve"/>
      <point x="782" y="39" type="line"/>
      <point x="759" y="22"/>
      <point x="738" y="13"/>
      <point x="711" y="13" type="curve" smooth="yes"/>
      <point x="678" y="13"/>
      <point x="647" y="38"/>
      <point x="647" y="93" type="curve" smooth="yes"/>
      <point x="647" y="197" type="line" smooth="yes"/>
      <point x="647" y="297"/>
      <point x="572" y="367"/>
      <point x="414" y="367" type="curve" smooth="yes"/>
      <point x="315" y="367"/>
      <point x="213" y="346"/>
      <point x="104" y="310" type="curve"/>
      <point x="112" y="287" type="line"/>
      <point x="214" y="319"/>
      <point x="311" y="344"/>
      <point x="414" y="344" type="curve" smooth="yes"/>
      <point x="559" y="344"/>
      <point x="622" y="281"/>
      <point x="622" y="197" type="curve" smooth="yes"/>
      <point x="622" y="175" type="line"/>
      <point x="539" y="193"/>
      <point x="444" y="209"/>
      <point x="328" y="209" type="curve" smooth="yes"/>
      <point x="180" y="209"/>
      <point x="90" y="164"/>
      <point x="90" y="90" type="curve" smooth="yes"/>
      <point x="90" y="24"/>
      <point x="161" y="-10"/>
      <point x="287" y="-10" type="curve" smooth="yes"/>
      <point x="394" y="-10"/>
      <point x="517" y="18"/>
      <point x="624" y="71" type="curve"/>
      <point x="631" y="20"/>
      <point x="665" y="-10"/>
    </contour>
    <contour>
      <point x="287" y="13" type="curve" smooth="yes"/>
      <point x="177" y="13"/>
      <point x="115" y="39"/>
      <point x="115" y="92" type="curve" smooth="yes"/>
      <point x="115" y="148"/>
      <point x="196" y="186"/>
      <point x="328" y="186" type="curve" smooth="yes"/>
      <point x="437" y="186"/>
      <point x="539" y="172"/>
      <point x="622" y="155" type="curve"/>
      <point x="622" y="93" type="line"/>
      <point x="511" y="42"/>
      <point x="392" y="13"/>
    </contour>
  </outline>
</glyph>
<glyph name="atilde" format="1">
  <advance width="805"/>
  <unicode hex="00E3"/>
  <outline>
    <contour>
      <point x="586" y="585" type="curve"/>
      <point x="565" y="589" type="line"/>
      <point x="554" y="522"/>
      <point x="519" y="495"/>
      <point x="481" y="495" type="curve" smooth="yes"/>
      <point x="447" y="495"/>
      <point x="416" y="516"/>
      <point x="384" y="539" type="curve" smooth="yes"/>
      <point x="349" y="563"/>
      <point x="316" y="589"/>
      <point x="271" y="589" type="curve" smooth="yes"/>
      <point x="211" y="589"/>
      <point x="174" y="543"/>
      <point x="163" y="475" type="curve"/>
      <point x="184" y="471" type="line"/>
      <point x="195" y="539"/>
      <point x="230" y="567"/>
      <point x="269" y="567" type="curve" smooth="yes"/>
      <point x="304" y="567"/>
      <point x="333" y="546"/>
      <point x="365" y="523" type="curve" smooth="yes"/>
      <point x="400" y="499"/>
      <point x="435" y="473"/>
      <point x="479" y="473" type="curve" smooth="yes"/>
      <point x="538" y="473"/>
      <point x="575" y="518"/>
    </contour>
    <contour>
      <point x="710" y="-10" type="curve" smooth="yes"/>
      <point x="741" y="-10"/>
      <point x="768" y="2"/>
      <point x="792" y="19" type="curve"/>
      <point x="782" y="39" type="line"/>
      <point x="759" y="22"/>
      <point x="738" y="13"/>
      <point x="711" y="13" type="curve" smooth="yes"/>
      <point x="678" y="13"/>
      <point x="647" y="38"/>
      <point x="647" y="93" type="curve" smooth="yes"/>
      <point x="647" y="197" type="line" smooth="yes"/>
      <point x="647" y="297"/>
      <point x="572" y="367"/>
      <point x="414" y="367" type="curve" smooth="yes"/>
      <point x="315" y="367"/>
      <point x="213" y="346"/>
      <point x="104" y="310" type="curve"/>
      <point x="112" y="287" type="line"/>
      <point x="214" y="319"/>
      <point x="311" y="344"/>
      <point x="414" y="344" type="curve" smooth="yes"/>
      <point x="559" y="344"/>
      <point x="622" y="281"/>
      <point x="622" y="197" type="curve" smooth="yes"/>
      <point x="622" y="175" type="line"/>
      <point x="539" y="193"/>
      <point x="444" y="209"/>
      <point x="328" y="209" type="curve" smooth="yes"/>
      <point x="180" y="209"/>
      <point x="90" y="164"/>
      <point x="90" y="90" type="curve" smooth="yes"/>
      <point x="90" y="24"/>
      <point x="161" y="-10"/>
      <point x="287" y="-10" type="curve" smooth="yes"/>
      <point x="394" y="-10"/>
      <point x="517" y="18"/>
      <point x="624" y="71" type="curve"/>
      <point x="631" y="20"/>
      <point x="665" y="-10"/>
    </contour>
    <contour>
      <point x="287" y="13" type="curve" smooth="yes"/>
      <point x="177" y="13"/>
      <point x="115" y="39"/>
      <point x="115" y="92" type="curve" smooth="yes"/>
      <point x="115" y="148"/>
      <point x="196" y="186"/>
      <point x="328" y="186" type="curve" smooth="yes"/>
      <point x="437" y="186"/>
      <point x="539" y="172"/>
      <point x="622" y="155" type="curve"/>
      <point x="622" y="93" type="line"/>
      <point x="511" y="42"/>
      <point x="392" y="13"/>
    </contour>
  </outline>
</glyph>
<glyph name="ograve" format="1">
  <advance width="799"/>
  <unicode hex="00F2"/>
  <outline>
    <contour>
      <point x="468" y="447" type="line"/>
      <point x="233" y="588" type="line"/>
      <point x="218" y="560" type="line"/>
      <point x="459" y="431" type="line"/>
    </contour>
    <contour>
      <point x="719" y="179" type="curve" smooth="yes"/>
      <point x="719" y="302"/>
      <point x="578" y="367"/>
      <point x="399" y="367" type="curve" smooth="yes"/>
      <point x="221" y="366"/>
      <point x="80" y="302"/>
      <point x="80" y="179" type="curve" smooth="yes"/>
      <point x="80" y="60"/>
      <point x="221" y="-10"/>
      <point x="399" y="-10" type="curve" smooth="yes"/>
      <point x="578" y="-10"/>
      <point x="719" y="60"/>
    </contour>
    <contour>
      <point x="105" y="179" type="curve" smooth="yes"/>
      <point x="105" y="285"/>
      <point x="232" y="343"/>
      <point x="399" y="344" type="curve" smooth="yes"/>
      <point x="567" y="344"/>
      <point x="695" y="285"/>
      <point x="695" y="179" type="curve" smooth="yes"/>
      <point x="695" y="76"/>
      <point x="567" y="13"/>
      <point x="399" y="13" type="curve" smooth="yes"/>
      <point x="232" y="13"/>
      <point x="105" y="76"/>
    </contour>
  </outline>
</glyph>
<glyph name="odieresis" format="1">
  <advance width="799"/>
  <unicode hex="00F6"/>
  <outline>
    <contour>
      <point x="330" y="510" type="curve" smooth="yes"/>
      <point x="330" y="527"/>
      <point x="314" y="539"/>
      <point x="285" y="539" type="curve" smooth="yes"/>
      <point x="257" y="539"/>
      <point x="241" y="527"/>
      <point x="241" y="510" type="curve" smooth="yes"/>
      <point x="241" y="494"/>
      <point x="257" y="481"/>
      <point x="285" y="481" type="curve" smooth="yes"/>
      <point x="314" y="481"/>
      <point x="330" y="494"/>
    </contour>
    <contour>
      <point x="551" y="510" type="curve" smooth="yes"/>
      <point x="551" y="527"/>
      <point x="536" y="539"/>
      <point x="507" y="539" type="curve" smooth="yes"/>
      <point x="479" y="539"/>
      <point x="462" y="527"/>
      <point x="462" y="510" type="curve" smooth="yes"/>
      <point x="462" y="494"/>
      <point x="479" y="481"/>
      <point x="507" y="481" type="curve" smooth="yes"/>
      <point x="536" y="481"/>
      <point x="551" y="494"/>
    </contour>
    <contour>
      <point x="719" y="179" type="curve" smooth="yes"/>
      <point x="719" y="302"/>
      <point x="578" y="367"/>
      <point x="399" y="367" type="curve" smooth="yes"/>
      <point x="221" y="366"/>
      <point x="80" y="302"/>
      <point x="80" y="179" type="curve" smooth="yes"/>
      <point x="80" y="60"/>
      <point x="221" y="-10"/>
      <point x="399" y="-10" type="curve" smooth="yes"/>
      <point x="578" y="-10"/>
      <point x="719" y="60"/>
    </contour>
    <contour>
      <point x="105" y="179" type="curve" smooth="yes"/>
      <point x="105" y="285"/>
      <point x="232" y="343"/>
      <point x="399" y="344" type="curve" smooth="yes"/>
      <point x="567" y="344"/>
      <point x="695" y="285"/>
      <point x="695" y="179" type="curve" smooth="yes"/>
      <point x="695" y="76"/>
      <point x="567" y="13"/>
      <point x="399" y="13" type="curve" smooth="yes"/>
      <point x="232" y="13"/>
      <point x="105" y="76"/>
    </contour>
  </outline>
</glyph>
<glyph name="divide" format="1">
  <advance width="544"/>
  <unicode hex="00F7"/>
  <outline>
    <contour>
      <point x="484" y="312" type="line"/>
      <point x="484" y="368" type="line"/>
      <point x="60" y="368" type="line"/>
      <point x="60" y="312" type="line"/>
    </contour>
    <contour>
      <point x="297" y="115"/>
      <point x="318" y="136"/>
      <point x="318" y="161" type="curve" smooth="yes"/>
      <point x="318" y="186"/>
      <point x="297" y="207"/>
      <point x="272" y="207" type="curve" smooth="yes"/>
      <point x="247" y="207"/>
      <point x="226" y="186"/>
      <point x="226" y="161" type="curve" smooth="yes"/>
      <point x="226" y="136"/>
      <point x="247" y="115"/>
      <point x="272" y="115" type="curve" smooth="yes"/>
    </contour>
    <contour>
      <point x="297" y="473"/>
      <point x="318" y="494"/>
      <point x="318" y="519" type="curve" smooth="yes"/>
      <point x="318" y="544"/>
      <point x="297" y="565"/>
      <point x="272" y="565" type="curve" smooth="yes"/>
      <point x="247" y="565"/>
      <point x="226" y="544"/>
      <point x="226" y="519" type="curve" smooth="yes"/>
      <point x="226" y="494"/>
      <point x="247" y="473"/>
      <point x="272" y="473" type="curve" smooth="yes"/>
    </contour>
  </outline>
</glyph>
<glyph name="udieresis" format="1">
  <advance width="910"/>
  <unicode hex="00FC"/>
  <outline>
    <contour>
      <point x="354" y="490" type="curve" smooth="yes"/>
      <point x="354" y="507"/>
      <point x="338" y="519"/>
      <point x="309" y="519" type="curve" smooth="yes"/>
      <point x="281" y="519"/>
      <point x="265" y="507"/>
      <point x="265" y="490" type="curve" smooth="yes"/>
      <point x="265" y="474"/>
      <point x="281" y="461"/>
      <point x="309" y="461" type="curve" smooth="yes"/>
      <point x="338" y="461"/>
      <point x="354" y="474"/>
    </contour>
    <contour>
      <point x="575" y="490" type="curve" smooth="yes"/>
      <point x="575" y="507"/>
      <point x="560" y="519"/>
      <point x="531" y="519" type="curve" smooth="yes"/>
      <point x="503" y="519"/>
      <point x="486" y="507"/>
      <point x="486" y="490" type="curve" smooth="yes"/>
      <point x="486" y="474"/>
      <point x="503" y="461"/>
      <point x="531" y="461" type="curve" smooth="yes"/>
      <point x="560" y="461"/>
      <point x="575" y="474"/>
    </contour>
    <contour>
      <point x="767" y="-10" type="curve" smooth="yes"/>
      <point x="799" y="-10"/>
      <point x="825" y="2"/>
      <point x="850" y="19" type="curve"/>
      <point x="840" y="39" type="line"/>
      <point x="817" y="22"/>
      <point x="795" y="13"/>
      <point x="768" y="13" type="curve" smooth="yes"/>
      <point x="736" y="13"/>
      <point x="704" y="38"/>
      <point x="704" y="94" type="curve" smooth="yes"/>
      <point x="704" y="357" type="line"/>
      <point x="519" y="357" type="line"/>
      <point x="519" y="334" type="line"/>
      <point x="679" y="334" type="line"/>
      <point x="679" y="107" type="line"/>
      <point x="582" y="58"/>
      <point x="476" y="13"/>
      <point x="381" y="13" type="curve" smooth="yes"/>
      <point x="271" y="14"/>
      <point x="210" y="60"/>
      <point x="210" y="165" type="curve" smooth="yes"/>
      <point x="210" y="357" type="line"/>
      <point x="13" y="357" type="line"/>
      <point x="13" y="334" type="line"/>
      <point x="185" y="334" type="line"/>
      <point x="185" y="165" type="line" smooth="yes"/>
      <point x="185" y="39"/>
      <point x="261" y="-10"/>
      <point x="381" y="-10" type="curve" smooth="yes"/>
      <point x="491" y="-10"/>
      <point x="583" y="37"/>
      <point x="679" y="83" type="curve"/>
      <point x="684" y="24"/>
      <point x="720" y="-10"/>
    </contour>
  </outline>
</glyph>
<glyph name="ydieresis" format="1">
  <advance width="762"/>
  <unicode hex="00FF"/>
  <outline>
    <contour>
      <point x="311" y="490" type="curve" smooth="yes"/>
      <point x="311" y="507"/>
      <point x="295" y="519"/>
      <point x="266" y="519" type="curve" smooth="yes"/>
      <point x="238" y="519"/>
      <point x="222" y="507"/>
      <point x="222" y="490" type="curve" smooth="yes"/>
      <point x="222" y="474"/>
      <point x="238" y="461"/>
      <point x="266" y="461" type="curve" smooth="yes"/>
      <point x="295" y="461"/>
      <point x="311" y="474"/>
    </contour>
    <contour>
      <point x="532" y="490" type="curve" smooth="yes"/>
      <point x="532" y="507"/>
      <point x="517" y="519"/>
      <point x="488" y="519" type="curve" smooth="yes"/>
      <point x="460" y="519"/>
      <point x="443" y="507"/>
      <point x="443" y="490" type="curve" smooth="yes"/>
      <point x="443" y="474"/>
      <point x="460" y="461"/>
      <point x="488" y="461" type="curve" smooth="yes"/>
      <point x="517" y="461"/>
      <point x="532" y="474"/>
    </contour>
    <contour>
      <point x="190" y="-180" type="curve" smooth="yes"/>
      <point x="277" y="-180"/>
      <point x="333" y="-123"/>
      <point x="381" y="-48" type="curve" smooth="yes"/>
      <point x="625" y="334" type="line"/>
      <point x="752" y="334" type="line"/>
      <point x="752" y="357" type="line"/>
      <point x="479" y="357" type="line"/>
      <point x="479" y="334" type="line"/>
      <point x="597" y="334" type="line"/>
      <point x="382" y="-3" type="line"/>
      <point x="155" y="334" type="line"/>
      <point x="278" y="334" type="line"/>
      <point x="278" y="357" type="line"/>
      <point x="5" y="357" type="line"/>
      <point x="5" y="334" type="line"/>
      <point x="127" y="334" type="line"/>
      <point x="367" y="-27" type="line"/>
      <point x="353" y="-49" type="line" smooth="yes"/>
      <point x="309" y="-117"/>
      <point x="261" y="-157"/>
      <point x="191" y="-157" type="curve" smooth="yes"/>
      <point x="135" y="-157"/>
      <point x="93" y="-140"/>
      <point x="43" y="-116" type="curve"/>
      <point x="35" y="-138" type="line"/>
      <point x="87" y="-160"/>
      <point x="126" y="-180"/>
    </contour>
  </outline>
</glyph>
<glyph name="Abreve" format="1">
  <advance width="1024"/>
  <unicode hex="0102"/>
  <outline>
    <contour>
      <point x="685" y="749" type="curve"/>
      <point x="665" y="754" type="line"/>
      <point x="645" y="684"/>
      <point x="586" y="632"/>
      <point x="513" y="632" type="curve" smooth="yes"/>
      <point x="440" y="632"/>
      <point x="379" y="684"/>
      <point x="359" y="754" type="curve"/>
      <point x="339" y="749" type="line"/>
      <point x="354" y="679"/>
      <point x="415" y="608"/>
      <point x="512" y="608" type="curve" smooth="yes"/>
      <point x="609" y="608"/>
      <point x="670" y="679"/>
    </contour>
    <contour>
      <point x="703" y="222" type="line"/>
      <point x="322" y="222" type="line"/>
      <point x="511" y="497" type="line"/>
      <point x="514" y="497" type="line"/>
    </contour>
    <contour>
      <point x="334" y="0" type="line"/>
      <point x="334" y="23" type="line"/>
      <point x="186" y="23" type="line"/>
      <point x="306" y="199" type="line"/>
      <point x="719" y="199" type="line"/>
      <point x="839" y="23" type="line"/>
      <point x="691" y="23" type="line"/>
      <point x="691" y="0" type="line"/>
      <point x="1029" y="0" type="line"/>
      <point x="1029" y="23" type="line"/>
      <point x="868" y="23" type="line"/>
      <point x="540" y="497" type="line"/>
      <point x="700" y="497" type="line"/>
      <point x="700" y="520" type="line"/>
      <point x="324" y="520" type="line"/>
      <point x="324" y="497" type="line"/>
      <point x="484" y="497" type="line"/>
      <point x="157" y="23" type="line"/>
      <point x="-5" y="23" type="line"/>
      <point x="-5" y="0" type="line"/>
    </contour>
  </outline>
</glyph>
<glyph name="Aogonek" format="1">
  <advance width="1024"/>
  <unicode hex="0104"/>
  <outline>
    <contour>
      <point x="703" y="222" type="line"/>
      <point x="322" y="222" type="line"/>
      <point x="511" y="497" type="line"/>
      <point x="514" y="497" type="line"/>
    </contour>
    <contour>
      <point x="1164" y="-129" type="curve"/>
      <point x="1154" y="-109" type="line"/>
      <point x="1128" y="-126"/>
      <point x="1089" y="-144"/>
      <point x="1041" y="-144" type="curve" smooth="yes"/>
      <point x="989" y="-144"/>
      <point x="946" y="-121"/>
      <point x="946" y="-82" type="curve" smooth="yes"/>
      <point x="946" y="-42"/>
      <point x="982" y="-16"/>
      <point x="1029" y="0" type="curve"/>
      <point x="1029" y="23" type="line"/>
      <point x="868" y="23" type="line"/>
      <point x="540" y="497" type="line"/>
      <point x="700" y="497" type="line"/>
      <point x="700" y="520" type="line"/>
      <point x="324" y="520" type="line"/>
      <point x="324" y="497" type="line"/>
      <point x="484" y="497" type="line"/>
      <point x="157" y="23" type="line"/>
      <point x="-5" y="23" type="line"/>
      <point x="-5" y="0" type="line"/>
      <point x="334" y="0" type="line"/>
      <point x="334" y="23" type="line"/>
      <point x="186" y="23" type="line"/>
      <point x="306" y="199" type="line"/>
      <point x="719" y="199" type="line"/>
      <point x="839" y="23" type="line"/>
      <point x="691" y="23" type="line"/>
      <point x="691" y="0" type="line"/>
      <point x="991" y="0" type="line"/>
      <point x="946" y="-19"/>
      <point x="921" y="-49"/>
      <point x="921" y="-85" type="curve" smooth="yes"/>
      <point x="921" y="-137"/>
      <point x="976" y="-167"/>
      <point x="1041" y="-167" type="curve" smooth="yes"/>
      <point x="1096" y="-167"/>
      <point x="1136" y="-147"/>
    </contour>
  </outline>
</glyph>
<glyph name="Dcaron" format="1">
  <advance width="964"/>
  <unicode hex="010E"/>
  <outline>
    <contour>
      <point x="480" y="596" type="line"/>
      <point x="314" y="723" type="line"/>
      <point x="303" y="710" type="line"/>
      <point x="470" y="568" type="line"/>
      <point x="490" y="568" type="line"/>
      <point x="657" y="710" type="line"/>
      <point x="646" y="723" type="line"/>
    </contour>
    <contour>
      <point x="545" y="0" type="line" smooth="yes"/>
      <point x="750" y="0"/>
      <point x="889" y="85"/>
      <point x="889" y="260" type="curve" smooth="yes"/>
      <point x="889" y="435"/>
      <point x="750" y="520"/>
      <point x="545" y="520" type="curve" smooth="yes"/>
      <point x="56" y="520" type="line"/>
      <point x="56" y="497" type="line"/>
      <point x="238" y="497" type="line"/>
      <point x="238" y="23" type="line"/>
      <point x="56" y="23" type="line"/>
      <point x="56" y="0" type="line"/>
    </contour>
    <contour>
      <point x="545" y="497" type="line" smooth="yes"/>
      <point x="739" y="497"/>
      <point x="864" y="418"/>
      <point x="864" y="260" type="curve" smooth="yes"/>
      <point x="864" y="102"/>
      <point x="739" y="23"/>
      <point x="545" y="23" type="curve" smooth="yes"/>
      <point x="263" y="23" type="line"/>
      <point x="263" y="497" type="line"/>
    </contour>
  </outline>
</glyph>
<glyph name="Edotaccent" format="1">
  <advance width="992"/>
  <unicode hex="0116"/>
  <outline>
    <contour>
      <point x="576" y="663" type="curve" smooth="yes"/>
      <point x="576" y="681"/>
      <point x="560" y="694"/>
      <point x="529" y="694" type="curve" smooth="yes"/>
      <point x="499" y="694"/>
      <point x="482" y="681"/>
      <point x="482" y="663" type="curve" smooth="yes"/>
      <point x="482" y="646"/>
      <point x="499" y="633"/>
      <point x="529" y="633" type="curve" smooth="yes"/>
      <point x="560" y="633"/>
      <point x="576" y="646"/>
    </contour>
    <contour>
      <point x="862" y="183" type="line"/>
      <point x="838" y="183" type="line"/>
      <point x="838" y="23" type="line"/>
      <point x="263" y="23" type="line"/>
      <point x="263" y="261" type="line"/>
      <point x="571" y="261" type="line"/>
      <point x="571" y="153" type="line"/>
      <point x="596" y="153" type="line"/>
      <point x="596" y="392" type="line"/>
      <point x="571" y="392" type="line"/>
      <point x="571" y="284" type="line"/>
      <point x="263" y="284" type="line"/>
      <point x="263" y="497" type="line"/>
      <point x="837" y="497" type="line"/>
      <point x="837" y="337" type="line"/>
      <point x="862" y="337" type="line"/>
      <point x="862" y="520" type="line"/>
      <point x="56" y="520" type="line"/>
      <point x="56" y="497" type="line"/>
      <point x="238" y="497" type="line"/>
      <point x="238" y="23" type="line"/>
      <point x="56" y="23" type="line"/>
      <point x="56" y="0" type="line"/>
      <point x="862" y="0" type="line"/>
    </contour>
  </outline>
</glyph>
<glyph name="Gcommaaccent" format="1">
  <advance width="899"/>
  <unicode hex="0122"/>
  <outline>
    <contour>
      <point x="809" y="252" type="curve" smooth="yes"/>
      <point x="809" y="254" type="line"/>
      <point x="432" y="254" type="line"/>
      <point x="432" y="231" type="line"/>
      <point x="784" y="231" type="line"/>
      <point x="771" y="118"/>
      <point x="657" y="13"/>
      <point x="436" y="13" type="curve" smooth="yes"/>
      <point x="254" y="13"/>
      <point x="105" y="107"/>
      <point x="105" y="259" type="curve" smooth="yes"/>
      <point x="105" y="413"/>
      <point x="259" y="507"/>
      <point x="444" y="507" type="curve" smooth="yes"/>
      <point x="582" y="507"/>
      <point x="699" y="461"/>
      <point x="789" y="330" type="curve"/>
      <point x="801" y="331" type="line"/>
      <point x="801" y="520" type="line"/>
      <point x="778" y="520" type="line"/>
      <point x="778" y="376" type="line"/>
      <point x="708" y="468"/>
      <point x="597" y="530"/>
      <point x="444" y="530" type="curve" smooth="yes"/>
      <point x="251" y="530"/>
      <point x="80" y="431"/>
      <point x="80" y="259" type="curve" smooth="yes"/>
      <point x="80" y="89"/>
      <point x="244" y="-10"/>
      <point x="436" y="-10" type="curve" smooth="yes"/>
      <point x="663" y="-10"/>
      <point x="809" y="106"/>
    </contour>
    <contour>
      <point x="439" y="-95" type="curve" smooth="yes"/>
      <point x="411" y="-95"/>
      <point x="394" y="-109"/>
      <point x="394" y="-126" type="curve" smooth="yes"/>
      <point x="394" y="-143"/>
      <point x="410" y="-154"/>
      <point x="433" y="-154" type="curve" smooth="yes"/>
      <point x="446" y="-154"/>
      <point x="457" y="-152"/>
      <point x="468" y="-150" type="curve"/>
      <point x="461" y="-194"/>
      <point x="429" y="-230"/>
      <point x="379" y="-275" type="curve"/>
      <point x="390" y="-287" type="line"/>
      <point x="451" y="-239"/>
      <point x="488" y="-185"/>
      <point x="488" y="-142" type="curve" smooth="yes"/>
      <point x="488" y="-113"/>
      <point x="468" y="-95"/>
    </contour>
  </outline>
</glyph>
<glyph name="Iogonek" format="1">
  <advance width="501"/>
  <unicode hex="012E"/>
  <outline>
    <contour>
      <point x="580" y="-129" type="curve"/>
      <point x="570" y="-109" type="line"/>
      <point x="544" y="-126"/>
      <point x="505" y="-144"/>
      <point x="457" y="-144" type="curve" smooth="yes"/>
      <point x="405" y="-144"/>
      <point x="362" y="-121"/>
      <point x="362" y="-82" type="curve" smooth="yes"/>
      <point x="362" y="-42"/>
      <point x="398" y="-16"/>
      <point x="445" y="0" type="curve"/>
      <point x="445" y="23" type="line"/>
      <point x="263" y="23" type="line"/>
      <point x="263" y="497" type="line"/>
      <point x="445" y="497" type="line"/>
      <point x="445" y="520" type="line"/>
      <point x="56" y="520" type="line"/>
      <point x="56" y="497" type="line"/>
      <point x="238" y="497" type="line"/>
      <point x="238" y="23" type="line"/>
      <point x="56" y="23" type="line"/>
      <point x="56" y="0" type="line"/>
      <point x="407" y="0" type="line"/>
      <point x="362" y="-19"/>
      <point x="337" y="-49"/>
      <point x="337" y="-85" type="curve" smooth="yes"/>
      <point x="337" y="-137"/>
      <point x="392" y="-167"/>
      <point x="457" y="-167" type="curve" smooth="yes"/>
      <point x="512" y="-167"/>
      <point x="552" y="-147"/>
    </contour>
  </outline>
</glyph>
<glyph name="dotlessi" format="1">
  <advance width="469"/>
  <unicode hex="0131"/>
  <outline>
    <contour>
      <point x="257" y="0" type="line"/>
      <point x="257" y="357" type="line"/>
      <point x="232" y="357" type="line"/>
      <point x="232" y="0" type="line"/>
    </contour>
    <contour>
      <point x="439" y="0" type="line"/>
      <point x="439" y="23" type="line"/>
      <point x="50" y="23" type="line"/>
      <point x="50" y="0" type="line"/>
    </contour>
    <contour>
      <point x="257" y="334" type="line"/>
      <point x="257" y="357" type="line"/>
      <point x="50" y="357" type="line"/>
      <point x="50" y="334" type="line"/>
    </contour>
  </outline>
</glyph>
<glyph name="kcommaaccent" format="1">
  <advance width="889"/>
  <unicode hex="0137"/>
  <outline>
    <contour>
      <point x="472" y="157" type="curve" smooth="yes"/>
      <point x="389" y="157"/>
      <point x="288" y="168"/>
      <point x="237" y="175" type="curve"/>
      <point x="237" y="221" type="line"/>
      <point x="349" y="292"/>
      <point x="467" y="344"/>
      <point x="577" y="344" type="curve" smooth="yes"/>
      <point x="671" y="344"/>
      <point x="730" y="317"/>
      <point x="730" y="262" type="curve" smooth="yes"/>
      <point x="730" y="194"/>
      <point x="623" y="157"/>
    </contour>
    <contour>
      <point x="683" y="-20" type="curve" smooth="yes"/>
      <point x="763" y="-20"/>
      <point x="816" y="31"/>
      <point x="829" y="99" type="curve"/>
      <point x="808" y="103" type="line"/>
      <point x="795" y="34"/>
      <point x="743" y="2"/>
      <point x="685" y="2" type="curve" smooth="yes"/>
      <point x="608" y="2"/>
      <point x="560" y="49"/>
      <point x="494" y="134" type="curve"/>
      <point x="655" y="138"/>
      <point x="755" y="181"/>
      <point x="755" y="263" type="curve" smooth="yes"/>
      <point x="755" y="328"/>
      <point x="689" y="367"/>
      <point x="582" y="367" type="curve" smooth="yes"/>
      <point x="470" y="367"/>
      <point x="349" y="315"/>
      <point x="237" y="241" type="curve"/>
      <point x="237" y="520" type="line"/>
      <point x="30" y="520" type="line"/>
      <point x="30" y="497" type="line"/>
      <point x="212" y="497" type="line"/>
      <point x="212" y="23" type="line"/>
      <point x="30" y="23" type="line"/>
      <point x="30" y="0" type="line"/>
      <point x="419" y="0" type="line"/>
      <point x="419" y="23" type="line"/>
      <point x="237" y="23" type="line"/>
      <point x="237" y="157" type="line"/>
      <point x="288" y="148"/>
      <point x="377" y="134"/>
      <point x="468" y="134" type="curve"/>
      <point x="529" y="48"/>
      <point x="598" y="-20"/>
    </contour>
    <contour>
      <point x="473" y="-85" type="curve" smooth="yes"/>
      <point x="445" y="-85"/>
      <point x="428" y="-99"/>
      <point x="428" y="-116" type="curve" smooth="yes"/>
      <point x="428" y="-133"/>
      <point x="444" y="-144"/>
      <point x="467" y="-144" type="curve" smooth="yes"/>
      <point x="480" y="-144"/>
      <point x="491" y="-142"/>
      <point x="502" y="-140" type="curve"/>
      <point x="495" y="-184"/>
      <point x="463" y="-220"/>
      <point x="413" y="-265" type="curve"/>
      <point x="424" y="-277" type="line"/>
      <point x="485" y="-229"/>
      <point x="522" y="-175"/>
      <point x="522" y="-132" type="curve" smooth="yes"/>
      <point x="522" y="-103"/>
      <point x="502" y="-85"/>
    </contour>
  </outline>
</glyph>
<glyph name="Lacute" format="1">
  <advance width="839"/>
  <unicode hex="0139"/>
  <outline>
    <contour>
      <point x="169" y="600" type="line"/>
      <point x="178" y="584" type="line"/>
      <point x="419" y="713" type="line"/>
      <point x="404" y="741" type="line"/>
    </contour>
    <contour>
      <point x="789" y="183" type="line"/>
      <point x="764" y="183" type="line"/>
      <point x="764" y="23" type="line"/>
      <point x="263" y="23" type="line"/>
      <point x="263" y="497" type="line"/>
      <point x="445" y="497" type="line"/>
      <point x="445" y="520" type="line"/>
      <point x="56" y="520" type="line"/>
      <point x="56" y="497" type="line"/>
      <point x="238" y="497" type="line"/>
      <point x="238" y="23" type="line"/>
      <point x="56" y="23" type="line"/>
      <point x="56" y="0" type="line"/>
      <point x="789" y="0" type="line"/>
    </contour>
  </outline>
</glyph>
<glyph name="lacute" format="1">
  <advance width="449"/>
  <unicode hex="013A"/>
  <outline>
    <contour>
      <point x="144" y="600" type="line"/>
      <point x="153" y="584" type="line"/>
      <point x="394" y="713" type="line"/>
      <point x="379" y="741" type="line"/>
    </contour>
    <contour>
      <point x="419" y="0" type="line"/>
      <point x="419" y="23" type="line"/>
      <point x="237" y="23" type="line"/>
      <point x="237" y="520" type="line"/>
      <point x="30" y="520" type="line"/>
      <point x="30" y="497" type="line"/>
      <point x="212" y="497" type="line"/>
      <point x="212" y="23" type="line"/>
      <point x="30" y="23" type="line"/>
      <point x="30" y="0" type="line"/>
    </contour>
  </outline>
</glyph>
<glyph name="Lcommaaccent" format="1">
  <advance width="839"/>
  <unicode hex="013B"/>
  <outline>
    <contour>
      <point x="789" y="183" type="line"/>
      <point x="764" y="183" type="line"/>
      <point x="764" y="23" type="line"/>
      <point x="263" y="23" type="line"/>
      <point x="263" y="497" type="line"/>
      <point x="445" y="497" type="line"/>
      <point x="445" y="520" type="line"/>
      <point x="56" y="520" type="line"/>
      <point x="56" y="497" type="line"/>
      <point x="238" y="497" type="line"/>
      <point x="238" y="23" type="line"/>
      <point x="56" y="23" type="line"/>
      <point x="56" y="0" type="line"/>
      <point x="789" y="0" type="line"/>
    </contour>
    <contour>
      <point x="449" y="-85" type="curve" smooth="yes"/>
      <point x="421" y="-85"/>
      <point x="404" y="-99"/>
      <point x="404" y="-116" type="curve" smooth="yes"/>
      <point x="404" y="-133"/>
      <point x="420" y="-144"/>
      <point x="443" y="-144" type="curve" smooth="yes"/>
      <point x="456" y="-144"/>
      <point x="467" y="-142"/>
      <point x="478" y="-140" type="curve"/>
      <point x="471" y="-184"/>
      <point x="439" y="-220"/>
      <point x="389" y="-265" type="curve"/>
      <point x="400" y="-277" type="line"/>
      <point x="461" y="-229"/>
      <point x="498" y="-175"/>
      <point x="498" y="-132" type="curve" smooth="yes"/>
      <point x="498" y="-103"/>
      <point x="478" y="-85"/>
    </contour>
  </outline>
</glyph>
<glyph name="lcommaaccent" format="1">
  <advance width="449"/>
  <unicode hex="013C"/>
  <outline>
    <contour>
      <point x="419" y="0" type="line"/>
      <point x="419" y="23" type="line"/>
      <point x="237" y="23" type="line"/>
      <point x="237" y="520" type="line"/>
      <point x="30" y="520" type="line"/>
      <point x="30" y="497" type="line"/>
      <point x="212" y="497" type="line"/>
      <point x="212" y="23" type="line"/>
      <point x="30" y="23" type="line"/>
      <point x="30" y="0" type="line"/>
    </contour>
    <contour>
      <point x="212" y="-85" type="curve" smooth="yes"/>
      <point x="184" y="-85"/>
      <point x="167" y="-99"/>
      <point x="167" y="-116" type="curve" smooth="yes"/>
      <point x="167" y="-133"/>
      <point x="183" y="-144"/>
      <point x="206" y="-144" type="curve" smooth="yes"/>
      <point x="219" y="-144"/>
      <point x="230" y="-142"/>
      <point x="241" y="-140" type="curve"/>
      <point x="234" y="-184"/>
      <point x="202" y="-220"/>
      <point x="152" y="-265" type="curve"/>
      <point x="163" y="-277" type="line"/>
      <point x="224" y="-229"/>
      <point x="261" y="-175"/>
      <point x="261" y="-132" type="curve" smooth="yes"/>
      <point x="261" y="-103"/>
      <point x="241" y="-85"/>
    </contour>
  </outline>
</glyph>
<glyph name="nacute" format="1">
  <advance width="957"/>
  <unicode hex="0144"/>
  <outline>
    <contour>
      <point x="451" y="447" type="line"/>
      <point x="460" y="431" type="line"/>
      <point x="701" y="560" type="line"/>
      <point x="686" y="588" type="line"/>
    </contour>
    <contour>
      <point x="417" y="0" type="line"/>
      <point x="417" y="23" type="line"/>
      <point x="257" y="23" type="line"/>
      <point x="257" y="198" type="line"/>
      <point x="324" y="252"/>
      <point x="440" y="344"/>
      <point x="567" y="344" type="curve" smooth="yes"/>
      <point x="713" y="344"/>
      <point x="747" y="237"/>
      <point x="747" y="135" type="curve" smooth="yes"/>
      <point x="747" y="23" type="line"/>
      <point x="587" y="23" type="line"/>
      <point x="587" y="0" type="line"/>
      <point x="944" y="0" type="line"/>
      <point x="944" y="23" type="line"/>
      <point x="772" y="23" type="line"/>
      <point x="772" y="135" type="line" smooth="yes"/>
      <point x="772" y="257"/>
      <point x="723" y="367"/>
      <point x="567" y="367" type="curve" smooth="yes"/>
      <point x="440" y="367"/>
      <point x="324" y="276"/>
      <point x="257" y="222" type="curve"/>
      <point x="257" y="357" type="line"/>
      <point x="50" y="357" type="line"/>
      <point x="50" y="334" type="line"/>
      <point x="232" y="334" type="line"/>
      <point x="232" y="23" type="line"/>
      <point x="50" y="23" type="line"/>
      <point x="50" y="0" type="line"/>
    </contour>
  </outline>
</glyph>
<glyph name="Ncommaaccent" format="1">
  <advance width="1107"/>
  <unicode hex="0145"/>
  <outline>
    <contour>
      <point x="910" y="-5" type="line"/>
      <point x="910" y="497" type="line"/>
      <point x="1092" y="497" type="line"/>
      <point x="1092" y="520" type="line"/>
      <point x="703" y="520" type="line"/>
      <point x="703" y="497" type="line"/>
      <point x="885" y="497" type="line"/>
      <point x="885" y="43" type="line"/>
      <point x="263" y="520" type="line"/>
      <point x="56" y="520" type="line"/>
      <point x="56" y="497" type="line"/>
      <point x="238" y="497" type="line"/>
      <point x="238" y="23" type="line"/>
      <point x="56" y="23" type="line"/>
      <point x="56" y="0" type="line"/>
      <point x="445" y="0" type="line"/>
      <point x="445" y="23" type="line"/>
      <point x="263" y="23" type="line"/>
      <point x="263" y="486" type="line"/>
      <point x="905" y="-5" type="line"/>
    </contour>
    <contour>
      <point x="611" y="-75" type="curve" smooth="yes"/>
      <point x="583" y="-75"/>
      <point x="566" y="-89"/>
      <point x="566" y="-106" type="curve" smooth="yes"/>
      <point x="566" y="-123"/>
      <point x="582" y="-134"/>
      <point x="605" y="-134" type="curve" smooth="yes"/>
      <point x="618" y="-134"/>
      <point x="629" y="-132"/>
      <point x="640" y="-130" type="curve"/>
      <point x="633" y="-174"/>
      <point x="601" y="-210"/>
      <point x="551" y="-255" type="curve"/>
      <point x="562" y="-267" type="line"/>
      <point x="623" y="-219"/>
      <point x="660" y="-165"/>
      <point x="660" y="-122" type="curve" smooth="yes"/>
      <point x="660" y="-93"/>
      <point x="640" y="-75"/>
    </contour>
  </outline>
</glyph>
<glyph name="ncommaaccent" format="1">
  <advance width="957"/>
  <unicode hex="0146"/>
  <outline>
    <contour>
      <point x="417" y="0" type="line"/>
      <point x="417" y="23" type="line"/>
      <point x="257" y="23" type="line"/>
      <point x="257" y="198" type="line"/>
      <point x="324" y="252"/>
      <point x="440" y="344"/>
      <point x="567" y="344" type="curve" smooth="yes"/>
      <point x="713" y="344"/>
      <point x="747" y="237"/>
      <point x="747" y="135" type="curve" smooth="yes"/>
      <point x="747" y="23" type="line"/>
      <point x="587" y="23" type="line"/>
      <point x="587" y="0" type="line"/>
      <point x="944" y="0" type="line"/>
      <point x="944" y="23" type="line"/>
      <point x="772" y="23" type="line"/>
      <point x="772" y="135" type="line" smooth="yes"/>
      <point x="772" y="257"/>
      <point x="723" y="367"/>
      <point x="567" y="367" type="curve" smooth="yes"/>
      <point x="440" y="367"/>
      <point x="324" y="276"/>
      <point x="257" y="222" type="curve"/>
      <point x="257" y="357" type="line"/>
      <point x="50" y="357" type="line"/>
      <point x="50" y="334" type="line"/>
      <point x="232" y="334" type="line"/>
      <point x="232" y="23" type="line"/>
      <point x="50" y="23" type="line"/>
      <point x="50" y="0" type="line"/>
    </contour>
    <contour>
      <point x="509" y="-85" type="curve" smooth="yes"/>
      <point x="481" y="-85"/>
      <point x="464" y="-99"/>
      <point x="464" y="-116" type="curve" smooth="yes"/>
      <point x="464" y="-133"/>
      <point x="480" y="-144"/>
      <point x="503" y="-144" type="curve" smooth="yes"/>
      <point x="516" y="-144"/>
      <point x="527" y="-142"/>
      <point x="538" y="-140" type="curve"/>
      <point x="531" y="-184"/>
      <point x="499" y="-220"/>
      <point x="449" y="-265" type="curve"/>
      <point x="460" y="-277" type="line"/>
      <point x="521" y="-229"/>
      <point x="558" y="-175"/>
      <point x="558" y="-132" type="curve" smooth="yes"/>
      <point x="558" y="-103"/>
      <point x="538" y="-85"/>
    </contour>
  </outline>
</glyph>
<glyph name="Ncaron" format="1">
  <advance width="1107"/>
  <unicode hex="0147"/>
  <outline>
    <contour>
      <point x="551" y="586" type="line"/>
      <point x="385" y="713" type="line"/>
      <point x="374" y="700" type="line"/>
      <point x="541" y="558" type="line"/>
      <point x="561" y="558" type="line"/>
      <point x="728" y="700" type="line"/>
      <point x="717" y="713" type="line"/>
    </contour>
    <contour>
      <point x="910" y="-5" type="line"/>
      <point x="910" y="497" type="line"/>
      <point x="1092" y="497" type="line"/>
      <point x="1092" y="520" type="line"/>
      <point x="703" y="520" type="line"/>
      <point x="703" y="497" type="line"/>
      <point x="885" y="497" type="line"/>
      <point x="885" y="43" type="line"/>
      <point x="263" y="520" type="line"/>
      <point x="56" y="520" type="line"/>
      <point x="56" y="497" type="line"/>
      <point x="238" y="497" type="line"/>
      <point x="238" y="23" type="line"/>
      <point x="56" y="23" type="line"/>
      <point x="56" y="0" type="line"/>
      <point x="445" y="0" type="line"/>
      <point x="445" y="23" type="line"/>
      <point x="263" y="23" type="line"/>
      <point x="263" y="486" type="line"/>
      <point x="905" y="-5" type="line"/>
    </contour>
  </outline>
</glyph>
<glyph name="oe" format="1">
  <advance width="1290"/>
  <unicode hex="0153"/>
  <outline>
    <contour>
      <point x="538" y="-20"/>
      <point x="677" y="50"/>
      <point x="677" y="179" type="curve" smooth="yes"/>
      <point x="677" y="312"/>
      <point x="538" y="377"/>
      <point x="379" y="377" type="curve" smooth="yes"/>
      <point x="221" y="376"/>
      <point x="80" y="312"/>
      <point x="80" y="179" type="curve" smooth="yes"/>
      <point x="80" y="50"/>
      <point x="221" y="-20"/>
      <point x="379" y="-20" type="curve" smooth="yes"/>
    </contour>
    <contour>
      <point x="232" y="3"/>
      <point x="105" y="66"/>
      <point x="105" y="179" type="curve" smooth="yes"/>
      <point x="105" y="295"/>
      <point x="232" y="353"/>
      <point x="379" y="354" type="curve" smooth="yes"/>
      <point x="528" y="354"/>
      <point x="656" y="295"/>
      <point x="656" y="179" type="curve" smooth="yes"/>
      <point x="656" y="66"/>
      <point x="528" y="3"/>
      <point x="379" y="3" type="curve" smooth="yes"/>
    </contour>
    <contour>
      <point x="1031" y="-20"/>
      <point x="1128" y="9"/>
      <point x="1205" y="55" type="curve"/>
      <point x="1194" y="74" type="line"/>
      <point x="1118" y="30"/>
      <point x="1027" y="2"/>
      <point x="930" y="3" type="curve" smooth="yes"/>
      <point x="820" y="2"/>
      <point x="681" y="62"/>
      <point x="681" y="167" type="curve" smooth="yes"/>
      <point x="681" y="290"/>
      <point x="841" y="353"/>
      <point x="967" y="353" type="curve" smooth="yes"/>
      <point x="1077" y="353"/>
      <point x="1179" y="324"/>
      <point x="1179" y="258" type="curve" smooth="yes"/>
      <point x="1179" y="192"/>
      <point x="1070" y="165"/>
      <point x="975" y="165" type="curve" smooth="yes"/>
      <point x="897" y="165"/>
      <point x="766" y="188"/>
      <point x="676" y="217" type="curve"/>
      <point x="677" y="194" type="line"/>
      <point x="766" y="165"/>
      <point x="897" y="142"/>
      <point x="975" y="142" type="curve" smooth="yes"/>
      <point x="1085" y="142"/>
      <point x="1204" y="179"/>
      <point x="1204" y="260" type="curve" smooth="yes"/>
      <point x="1204" y="340"/>
      <point x="1090" y="376"/>
      <point x="971" y="376" type="curve" smooth="yes"/>
      <point x="821" y="376"/>
      <point x="663" y="297"/>
      <point x="663" y="185" type="curve" smooth="yes"/>
      <point x="663" y="165" type="line" smooth="yes"/>
      <point x="663" y="39"/>
      <point x="811" y="-20"/>
      <point x="930" y="-20" type="curve" smooth="yes"/>
    </contour>
    <contour>
      <point x="666.0" y="2.0" type="move" name="bottom"/>
    </contour>
    <contour>
      <point x="1205.0" y="55.0" type="move" name="ogonek"/>
    </contour>
    <contour>
      <point x="666.0" y="357.0" type="move" name="top"/>
    </contour>
    <contour>
      <point x="1171.0" y="357.0" type="move" name="topright"/>
    </contour>
    <contour>
      <point x="666.0" y="179.0" type="move" name="center"/>
    </contour>
  </outline>
</glyph>
<glyph name="racute" format="1">
  <advance width="745"/>
  <unicode hex="0155"/>
  <outline>
    <contour>
      <point x="287" y="437" type="line"/>
      <point x="296" y="421" type="line"/>
      <point x="537" y="550" type="line"/>
      <point x="522" y="578" type="line"/>
    </contour>
    <contour>
      <point x="439" y="0" type="line"/>
      <point x="439" y="23" type="line"/>
      <point x="257" y="23" type="line"/>
      <point x="257" y="198" type="line"/>
      <point x="384" y="291"/>
      <point x="503" y="344"/>
      <point x="627" y="344" type="curve"/>
      <point x="627" y="219" type="line"/>
      <point x="650" y="219" type="line"/>
      <point x="650" y="366" type="line"/>
      <point x="625" y="367" type="line" smooth="yes"/>
      <point x="487" y="367"/>
      <point x="374" y="309"/>
      <point x="257" y="221" type="curve"/>
      <point x="257" y="357" type="line"/>
      <point x="50" y="357" type="line"/>
      <point x="50" y="334" type="line"/>
      <point x="232" y="334" type="line"/>
      <point x="232" y="23" type="line"/>
      <point x="50" y="23" type="line"/>
      <point x="50" y="0" type="line"/>
    </contour>
  </outline>
</glyph>
<glyph name="Rcommaaccent" format="1">
  <advance width="1057"/>
  <unicode hex="0156"/>
  <outline>
    <contour>
      <point x="717" y="497" type="line" smooth="yes"/>
      <point x="826" y="497"/>
      <point x="875" y="441"/>
      <point x="875" y="378" type="curve" smooth="yes"/>
      <point x="875" y="317"/>
      <point x="823" y="262"/>
      <point x="717" y="262" type="curve" smooth="yes"/>
      <point x="263" y="262" type="line"/>
      <point x="263" y="497" type="line"/>
    </contour>
    <contour>
      <point x="1012" y="155" type="curve" smooth="yes"/>
      <point x="1012" y="176" type="line"/>
      <point x="987" y="176" type="line"/>
      <point x="987" y="155" type="line" smooth="yes"/>
      <point x="987" y="75"/>
      <point x="931" y="13"/>
      <point x="854" y="13" type="curve" smooth="yes"/>
      <point x="774" y="13"/>
      <point x="734" y="67"/>
      <point x="675" y="138" type="curve" smooth="yes"/>
      <point x="628" y="195"/>
      <point x="597" y="226"/>
      <point x="553" y="241" type="curve"/>
      <point x="717" y="241" type="line" smooth="yes"/>
      <point x="841" y="241"/>
      <point x="900" y="309"/>
      <point x="900" y="378" type="curve" smooth="yes"/>
      <point x="900" y="457"/>
      <point x="840" y="520"/>
      <point x="717" y="520" type="curve" smooth="yes"/>
      <point x="56" y="520" type="line"/>
      <point x="56" y="497" type="line"/>
      <point x="238" y="497" type="line"/>
      <point x="238" y="22" type="line"/>
      <point x="56" y="22" type="line"/>
      <point x="56" y="-1" type="line"/>
      <point x="445" y="0" type="line"/>
      <point x="445" y="23" type="line"/>
      <point x="263" y="23" type="line"/>
      <point x="263" y="239" type="line"/>
      <point x="472" y="239" type="line" smooth="yes"/>
      <point x="556" y="239"/>
      <point x="595" y="201"/>
      <point x="654" y="125" type="curve" smooth="yes"/>
      <point x="713" y="49"/>
      <point x="765" y="-10"/>
      <point x="854" y="-10" type="curve" smooth="yes"/>
      <point x="949" y="-10"/>
      <point x="1012" y="64"/>
    </contour>
    <contour>
      <point x="564" y="-85" type="curve" smooth="yes"/>
      <point x="536" y="-85"/>
      <point x="519" y="-99"/>
      <point x="519" y="-116" type="curve" smooth="yes"/>
      <point x="519" y="-133"/>
      <point x="535" y="-144"/>
      <point x="558" y="-144" type="curve" smooth="yes"/>
      <point x="571" y="-144"/>
      <point x="582" y="-142"/>
      <point x="593" y="-140" type="curve"/>
      <point x="586" y="-184"/>
      <point x="554" y="-220"/>
      <point x="504" y="-265" type="curve"/>
      <point x="515" y="-277" type="line"/>
      <point x="576" y="-229"/>
      <point x="613" y="-175"/>
      <point x="613" y="-132" type="curve" smooth="yes"/>
      <point x="613" y="-103"/>
      <point x="593" y="-85"/>
    </contour>
  </outline>
</glyph>
<glyph name="rcommaaccent" format="1">
  <advance width="745"/>
  <unicode hex="0157"/>
  <outline>
    <contour>
      <point x="439" y="0" type="line"/>
      <point x="439" y="23" type="line"/>
      <point x="257" y="23" type="line"/>
      <point x="257" y="198" type="line"/>
      <point x="384" y="291"/>
      <point x="503" y="344"/>
      <point x="627" y="344" type="curve"/>
      <point x="627" y="219" type="line"/>
      <point x="650" y="219" type="line"/>
      <point x="650" y="366" type="line"/>
      <point x="625" y="367" type="line" smooth="yes"/>
      <point x="487" y="367"/>
      <point x="374" y="309"/>
      <point x="257" y="221" type="curve"/>
      <point x="257" y="357" type="line"/>
      <point x="50" y="357" type="line"/>
      <point x="50" y="334" type="line"/>
      <point x="232" y="334" type="line"/>
      <point x="232" y="23" type="line"/>
      <point x="50" y="23" type="line"/>
      <point x="50" y="0" type="line"/>
    </contour>
    <contour>
      <point x="355" y="-85" type="curve" smooth="yes"/>
      <point x="327" y="-85"/>
      <point x="310" y="-99"/>
      <point x="310" y="-116" type="curve" smooth="yes"/>
      <point x="310" y="-133"/>
      <point x="326" y="-144"/>
      <point x="349" y="-144" type="curve" smooth="yes"/>
      <point x="362" y="-144"/>
      <point x="373" y="-142"/>
      <point x="384" y="-140" type="curve"/>
      <point x="377" y="-184"/>
      <point x="345" y="-220"/>
      <point x="295" y="-265" type="curve"/>
      <point x="306" y="-277" type="line"/>
      <point x="367" y="-229"/>
      <point x="404" y="-175"/>
      <point x="404" y="-132" type="curve" smooth="yes"/>
      <point x="404" y="-103"/>
      <point x="384" y="-85"/>
    </contour>
  </outline>
</glyph>
<glyph name="rcaron" format="1">
  <advance width="745"/>
  <unicode hex="0159"/>
  <outline>
    <contour>
      <point x="355" y="433" type="line"/>
      <point x="189" y="560" type="line"/>
      <point x="178" y="547" type="line"/>
      <point x="345" y="405" type="line"/>
      <point x="365" y="405" type="line"/>
      <point x="532" y="547" type="line"/>
      <point x="521" y="560" type="line"/>
    </contour>
    <contour>
      <point x="439" y="0" type="line"/>
      <point x="439" y="23" type="line"/>
      <point x="257" y="23" type="line"/>
      <point x="257" y="198" type="line"/>
      <point x="384" y="291"/>
      <point x="503" y="344"/>
      <point x="627" y="344" type="curve"/>
      <point x="627" y="219" type="line"/>
      <point x="650" y="219" type="line"/>
      <point x="650" y="366" type="line"/>
      <point x="625" y="367" type="line" smooth="yes"/>
      <point x="487" y="367"/>
      <point x="374" y="309"/>
      <point x="257" y="221" type="curve"/>
      <point x="257" y="357" type="line"/>
      <point x="50" y="357" type="line"/>
      <point x="50" y="334" type="line"/>
      <point x="232" y="334" type="line"/>
      <point x="232" y="23" type="line"/>
      <point x="50" y="23" type="line"/>
      <point x="50" y="0" type="line"/>
    </contour>
  </outline>
</glyph>
<glyph name="Sacute" format="1">
  <advance width="867"/>
  <unicode hex="015A"/>
  <outline>
    <contour>
      <point x="382" y="610" type="line"/>
      <point x="391" y="594" type="line"/>
      <point x="632" y="723" type="line"/>
      <point x="617" y="751" type="line"/>
    </contour>
    <contour>
      <point x="532" y="-10" type="curve" smooth="yes"/>
      <point x="673" y="-10"/>
      <point x="777" y="34"/>
      <point x="777" y="124" type="curve" smooth="yes"/>
      <point x="777" y="218"/>
      <point x="679" y="249"/>
      <point x="440" y="268" type="curve" smooth="yes"/>
      <point x="217" y="286"/>
      <point x="142" y="316"/>
      <point x="142" y="386" type="curve" smooth="yes"/>
      <point x="142" y="468"/>
      <point x="233" y="507"/>
      <point x="372" y="507" type="curve" smooth="yes"/>
      <point x="539" y="507"/>
      <point x="650" y="444"/>
      <point x="736" y="344" type="curve"/>
      <point x="742" y="346" type="line"/>
      <point x="742" y="520" type="line"/>
      <point x="719" y="520" type="line"/>
      <point x="719" y="393" type="line"/>
      <point x="651" y="463"/>
      <point x="546" y="530"/>
      <point x="374" y="530" type="curve" smooth="yes"/>
      <point x="212" y="530"/>
      <point x="117" y="479"/>
      <point x="117" y="386" type="curve" smooth="yes"/>
      <point x="117" y="305"/>
      <point x="194" y="261"/>
      <point x="439" y="244" type="curve" smooth="yes"/>
      <point x="665" y="228"/>
      <point x="753" y="201"/>
      <point x="753" y="124" type="curve" smooth="yes"/>
      <point x="753" y="47"/>
      <point x="657" y="13"/>
      <point x="533" y="13" type="curve" smooth="yes"/>
      <point x="384" y="13"/>
      <point x="211" y="73"/>
      <point x="121" y="177" type="curve"/>
      <point x="115" y="175" type="line"/>
      <point x="115" y="0" type="line"/>
      <point x="138" y="0" type="line"/>
      <point x="138" y="126" type="line"/>
      <point x="217" y="56"/>
      <point x="371" y="-10"/>
    </contour>
  </outline>
</glyph>
<glyph name="scedilla" format="1">
  <advance width="743"/>
  <unicode hex="015F"/>
  <outline>
    <contour>
      <point x="474" y="-175" type="curve" smooth="yes"/>
      <point x="537" y="-175"/>
      <point x="579" y="-158"/>
      <point x="579" y="-124" type="curve" smooth="yes"/>
      <point x="579" y="-87"/>
      <point x="540" y="-77"/>
      <point x="464" y="-73" type="curve" smooth="yes"/>
      <point x="405" y="-70"/>
      <point x="375" y="-59"/>
      <point x="375" y="-40" type="curve" smooth="yes"/>
      <point x="375" y="-24"/>
      <point x="392" y="-12"/>
      <point x="410" y="-10" type="curve"/>
      <point x="552" y="-10"/>
      <point x="638" y="19"/>
      <point x="638" y="86" type="curve" smooth="yes"/>
      <point x="638" y="158"/>
      <point x="553" y="177"/>
      <point x="363" y="188" type="curve" smooth="yes"/>
      <point x="189" y="198"/>
      <point x="126" y="222"/>
      <point x="126" y="268" type="curve" smooth="yes"/>
      <point x="126" y="318"/>
      <point x="197" y="345"/>
      <point x="314" y="345" type="curve" smooth="yes"/>
      <point x="439" y="345"/>
      <point x="549" y="306"/>
      <point x="622" y="220" type="curve"/>
      <point x="622" y="357" type="line"/>
      <point x="600" y="357" type="line"/>
      <point x="600" y="267" type="line"/>
      <point x="546" y="322"/>
      <point x="444" y="367"/>
      <point x="319" y="367" type="curve" smooth="yes"/>
      <point x="168" y="367"/>
      <point x="102" y="327"/>
      <point x="102" y="267" type="curve" smooth="yes"/>
      <point x="102" y="204"/>
      <point x="180" y="173"/>
      <point x="363" y="163" type="curve" smooth="yes"/>
      <point x="546" y="153"/>
      <point x="614" y="137"/>
      <point x="614" y="85" type="curve" smooth="yes"/>
      <point x="614" y="27"/>
      <point x="518" y="12"/>
      <point x="413" y="12" type="curve" smooth="yes"/>
      <point x="292" y="12"/>
      <point x="164" y="50"/>
      <point x="95" y="136" type="curve"/>
      <point x="95" y="0" type="line"/>
      <point x="117" y="0" type="line"/>
      <point x="117" y="88" type="line"/>
      <point x="167" y="38"/>
      <point x="263" y="-2"/>
      <point x="372" y="-9" type="curve"/>
      <point x="360" y="-16"/>
      <point x="352" y="-28"/>
      <point x="352" y="-44" type="curve" smooth="yes"/>
      <point x="352" y="-70"/>
      <point x="386" y="-91"/>
      <point x="464" y="-95" type="curve" smooth="yes"/>
      <point x="525" y="-98"/>
      <point x="556" y="-102"/>
      <point x="556" y="-124" type="curve" smooth="yes"/>
      <point x="556" y="-146"/>
      <point x="517" y="-153"/>
      <point x="474" y="-153" type="curve" smooth="yes"/>
      <point x="420" y="-153"/>
      <point x="369" y="-134"/>
      <point x="345" y="-115" type="curve"/>
      <point x="332" y="-133" type="line"/>
      <point x="357" y="-153"/>
      <point x="411" y="-175"/>
    </contour>
  </outline>
</glyph>
<glyph name="Tcedilla" format="1">
  <advance width="921"/>
  <unicode hex="0162"/>
  <outline>
    <contour>
      <point x="525" y="-165" type="curve" smooth="yes"/>
      <point x="588" y="-165"/>
      <point x="630" y="-148"/>
      <point x="630" y="-114" type="curve" smooth="yes"/>
      <point x="630" y="-77"/>
      <point x="591" y="-67"/>
      <point x="515" y="-63" type="curve" smooth="yes"/>
      <point x="456" y="-60"/>
      <point x="426" y="-49"/>
      <point x="426" y="-30" type="curve" smooth="yes"/>
      <point x="426" y="-14"/>
      <point x="443" y="-2"/>
      <point x="461" y="0" type="curve"/>
      <point x="665" y="0" type="line"/>
      <point x="665" y="23" type="line"/>
      <point x="473" y="23" type="line"/>
      <point x="473" y="497" type="line"/>
      <point x="806" y="497" type="line"/>
      <point x="806" y="337" type="line"/>
      <point x="831" y="337" type="line"/>
      <point x="831" y="520" type="line"/>
      <point x="90" y="520" type="line"/>
      <point x="90" y="337" type="line"/>
      <point x="115" y="337" type="line"/>
      <point x="115" y="497" type="line"/>
      <point x="448" y="497" type="line"/>
      <point x="448" y="23" type="line"/>
      <point x="256" y="23" type="line"/>
      <point x="256" y="0" type="line"/>
      <point x="422" y="0" type="line"/>
      <point x="411" y="-8"/>
      <point x="403" y="-19"/>
      <point x="403" y="-34" type="curve" smooth="yes"/>
      <point x="403" y="-60"/>
      <point x="437" y="-81"/>
      <point x="515" y="-85" type="curve" smooth="yes"/>
      <point x="576" y="-88"/>
      <point x="607" y="-92"/>
      <point x="607" y="-114" type="curve" smooth="yes"/>
      <point x="607" y="-136"/>
      <point x="568" y="-143"/>
      <point x="525" y="-143" type="curve" smooth="yes"/>
      <point x="471" y="-143"/>
      <point x="420" y="-124"/>
      <point x="396" y="-105" type="curve"/>
      <point x="383" y="-123" type="line"/>
      <point x="408" y="-143"/>
      <point x="462" y="-165"/>
    </contour>
  </outline>
</glyph>
<glyph name="tcedilla" format="1">
  <advance width="523"/>
  <unicode hex="0163"/>
  <outline>
    <contour>
      <point x="325" y="-175" type="curve" smooth="yes"/>
      <point x="388" y="-175"/>
      <point x="430" y="-158"/>
      <point x="430" y="-124" type="curve" smooth="yes"/>
      <point x="430" y="-87"/>
      <point x="391" y="-77"/>
      <point x="315" y="-73" type="curve" smooth="yes"/>
      <point x="256" y="-70"/>
      <point x="226" y="-59"/>
      <point x="226" y="-40" type="curve" smooth="yes"/>
      <point x="226" y="-24"/>
      <point x="243" y="-12"/>
      <point x="261" y="-10" type="curve"/>
      <point x="260" y="-9" type="line"/>
      <point x="268" y="-10"/>
      <point x="277" y="-10"/>
      <point x="286" y="-10" type="curve" smooth="yes"/>
      <point x="356" y="-10"/>
      <point x="420" y="14"/>
      <point x="463" y="35" type="curve"/>
      <point x="453" y="56" type="line"/>
      <point x="412" y="35"/>
      <point x="353" y="13"/>
      <point x="284" y="13" type="curve" smooth="yes"/>
      <point x="222" y="13"/>
      <point x="180" y="41"/>
      <point x="180" y="123" type="curve" smooth="yes"/>
      <point x="180" y="334" type="line"/>
      <point x="418" y="334" type="line"/>
      <point x="418" y="357" type="line"/>
      <point x="180" y="357" type="line"/>
      <point x="180" y="456" type="line"/>
      <point x="155" y="456" type="line"/>
      <point x="155" y="357" type="line"/>
      <point x="25" y="357" type="line"/>
      <point x="25" y="334" type="line"/>
      <point x="155" y="334" type="line"/>
      <point x="155" y="123" type="line" smooth="yes"/>
      <point x="155" y="50"/>
      <point x="184" y="11"/>
      <point x="234" y="-3" type="curve"/>
      <point x="217" y="-10"/>
      <point x="203" y="-24"/>
      <point x="203" y="-44" type="curve" smooth="yes"/>
      <point x="203" y="-70"/>
      <point x="237" y="-91"/>
      <point x="315" y="-95" type="curve" smooth="yes"/>
      <point x="376" y="-98"/>
      <point x="407" y="-102"/>
      <point x="407" y="-124" type="curve" smooth="yes"/>
      <point x="407" y="-146"/>
      <point x="368" y="-153"/>
      <point x="325" y="-153" type="curve" smooth="yes"/>
      <point x="271" y="-153"/>
      <point x="220" y="-134"/>
      <point x="196" y="-115" type="curve"/>
      <point x="183" y="-133" type="line"/>
      <point x="208" y="-153"/>
      <point x="262" y="-175"/>
    </contour>
  </outline>
</glyph>
<glyph name="Tcaron" format="1">
  <advance width="921"/>
  <unicode hex="0164"/>
  <outline>
    <contour>
      <point x="461" y="596" type="line"/>
      <point x="295" y="723" type="line"/>
      <point x="284" y="710" type="line"/>
      <point x="451" y="568" type="line"/>
      <point x="471" y="568" type="line"/>
      <point x="638" y="710" type="line"/>
      <point x="627" y="723" type="line"/>
    </contour>
    <contour>
      <point x="665" y="0" type="line"/>
      <point x="665" y="23" type="line"/>
      <point x="473" y="23" type="line"/>
      <point x="473" y="497" type="line"/>
      <point x="806" y="497" type="line"/>
      <point x="806" y="337" type="line"/>
      <point x="831" y="337" type="line"/>
      <point x="831" y="520" type="line"/>
      <point x="90" y="520" type="line"/>
      <point x="90" y="337" type="line"/>
      <point x="115" y="337" type="line"/>
      <point x="115" y="497" type="line"/>
      <point x="448" y="497" type="line"/>
      <point x="448" y="23" type="line"/>
      <point x="256" y="23" type="line"/>
      <point x="256" y="0" type="line"/>
    </contour>
  </outline>
</glyph>
<glyph name="tcaron" format="1">
  <advance width="523"/>
  <unicode hex="0165"/>
  <outline>
    <contour>
      <point x="259" y="423" type="curve"/>
      <point x="271" y="412" type="line"/>
      <point x="347" y="487"/>
      <point x="379" y="559"/>
      <point x="378" y="636" type="curve"/>
      <point x="351" y="639" type="line"/>
      <point x="351" y="560"/>
      <point x="324" y="499"/>
    </contour>
    <contour>
      <point x="463" y="35" type="curve"/>
      <point x="453" y="56" type="line"/>
      <point x="412" y="35"/>
      <point x="353" y="13"/>
      <point x="284" y="13" type="curve" smooth="yes"/>
      <point x="222" y="13"/>
      <point x="180" y="41"/>
      <point x="180" y="123" type="curve" smooth="yes"/>
      <point x="180" y="334" type="line"/>
      <point x="418" y="334" type="line"/>
      <point x="418" y="357" type="line"/>
      <point x="180" y="357" type="line"/>
      <point x="180" y="456" type="line"/>
      <point x="155" y="456" type="line"/>
      <point x="155" y="357" type="line"/>
      <point x="25" y="357" type="line"/>
      <point x="25" y="334" type="line"/>
      <point x="155" y="334" type="line"/>
      <point x="155" y="123" type="line" smooth="yes"/>
      <point x="155" y="27"/>
      <point x="205" y="-10"/>
      <point x="286" y="-10" type="curve" smooth="yes"/>
      <point x="356" y="-10"/>
      <point x="420" y="14"/>
    </contour>
  </outline>
</glyph>
<glyph name="Umacron" format="1">
  <advance width="1001"/>
  <unicode hex="016A"/>
  <outline>
    <contour>
      <point x="258" y="667" type="line"/>
      <point x="258" y="643" type="line"/>
      <point x="735" y="643" type="line"/>
      <point x="735" y="667" type="line"/>
    </contour>
    <contour>
      <point x="819" y="254" type="curve" smooth="yes"/>
      <point x="819" y="497" type="line"/>
      <point x="1001" y="497" type="line"/>
      <point x="1001" y="520" type="line"/>
      <point x="615" y="520" type="line"/>
      <point x="615" y="497" type="line"/>
      <point x="797" y="497" type="line"/>
      <point x="794" y="242" type="line" smooth="yes"/>
      <point x="792" y="89"/>
      <point x="675" y="13"/>
      <point x="501" y="13" type="curve" smooth="yes"/>
      <point x="326" y="13"/>
      <point x="209" y="89"/>
      <point x="207" y="243" type="curve" smooth="yes"/>
      <point x="204" y="497" type="line"/>
      <point x="386" y="497" type="line"/>
      <point x="386" y="520" type="line"/>
      <point x="0" y="520" type="line"/>
      <point x="0" y="497" type="line"/>
      <point x="182" y="497" type="line"/>
      <point x="182" y="254" type="line" smooth="yes"/>
      <point x="182" y="79"/>
      <point x="308" y="-10"/>
      <point x="501" y="-10" type="curve" smooth="yes"/>
      <point x="694" y="-10"/>
      <point x="819" y="79"/>
    </contour>
  </outline>
</glyph>
<glyph name="uogonek" format="1">
  <advance width="910"/>
  <unicode hex="0173"/>
  <outline>
    <contour>
      <point x="862" y="-148" type="curve" smooth="yes"/>
      <point x="917" y="-148"/>
      <point x="957" y="-128"/>
      <point x="985" y="-110" type="curve"/>
      <point x="975" y="-90" type="line"/>
      <point x="949" y="-107"/>
      <point x="910" y="-125"/>
      <point x="862" y="-125" type="curve" smooth="yes"/>
      <point x="810" y="-125"/>
      <point x="767" y="-102"/>
      <point x="767" y="-63" type="curve" smooth="yes"/>
      <point x="767" y="-39"/>
      <point x="780" y="-20"/>
      <point x="800" y="-5" type="curve"/>
      <point x="818" y="0"/>
      <point x="834" y="8"/>
      <point x="850" y="19" type="curve"/>
      <point x="840" y="39" type="line"/>
      <point x="817" y="22"/>
      <point x="795" y="13"/>
      <point x="768" y="13" type="curve" smooth="yes"/>
      <point x="736" y="13"/>
      <point x="704" y="38"/>
      <point x="704" y="94" type="curve" smooth="yes"/>
      <point x="704" y="357" type="line"/>
      <point x="519" y="357" type="line"/>
      <point x="519" y="334" type="line"/>
      <point x="679" y="334" type="line"/>
      <point x="679" y="107" type="line"/>
      <point x="582" y="58"/>
      <point x="476" y="13"/>
      <point x="381" y="13" type="curve" smooth="yes"/>
      <point x="271" y="14"/>
      <point x="210" y="60"/>
      <point x="210" y="165" type="curve" smooth="yes"/>
      <point x="210" y="357" type="line"/>
      <point x="13" y="357" type="line"/>
      <point x="13" y="334" type="line"/>
      <point x="185" y="334" type="line"/>
      <point x="185" y="165" type="line" smooth="yes"/>
      <point x="185" y="39"/>
      <point x="261" y="-10"/>
      <point x="381" y="-10" type="curve" smooth="yes"/>
      <point x="491" y="-10"/>
      <point x="583" y="37"/>
      <point x="679" y="83" type="curve"/>
      <point x="684" y="24"/>
      <point x="720" y="-10"/>
      <point x="767" y="-10" type="curve"/>
      <point x="751" y="-26"/>
      <point x="742" y="-45"/>
      <point x="742" y="-66" type="curve" smooth="yes"/>
      <point x="742" y="-118"/>
      <point x="797" y="-148"/>
    </contour>
  </outline>
</glyph>
<glyph name="Zacute" format="1">
  <advance width="863"/>
  <unicode hex="0179"/>
  <outline>
    <contour>
      <point x="366" y="600" type="line"/>
      <point x="375" y="584" type="line"/>
      <point x="616" y="713" type="line"/>
      <point x="601" y="741" type="line"/>
    </contour>
    <contour>
      <point x="763" y="0" type="line"/>
      <point x="763" y="183" type="line"/>
      <point x="738" y="183" type="line"/>
      <point x="738" y="23" type="line"/>
      <point x="178" y="23" type="line" smooth="yes"/>
      <point x="165" y="23"/>
      <point x="154" y="20"/>
      <point x="149" y="19" type="curve"/>
      <point x="149" y="20" type="line"/>
      <point x="154" y="22"/>
      <point x="164" y="26"/>
      <point x="173" y="33" type="curve" smooth="yes"/>
      <point x="759" y="507" type="line"/>
      <point x="759" y="520" type="line"/>
      <point x="105" y="520" type="line"/>
      <point x="105" y="337" type="line"/>
      <point x="130" y="337" type="line"/>
      <point x="130" y="497" type="line"/>
      <point x="687" y="497" type="line" smooth="yes"/>
      <point x="703" y="497"/>
      <point x="716" y="500"/>
      <point x="720" y="501" type="curve"/>
      <point x="720" y="500" type="line"/>
      <point x="716" y="499"/>
      <point x="704" y="493"/>
      <point x="693" y="484" type="curve" smooth="yes"/>
      <point x="108" y="13" type="line"/>
      <point x="108" y="0" type="line"/>
    </contour>
  </outline>
</glyph>
<glyph name="zacute" format="1">
  <advance width="765"/>
  <unicode hex="017A"/>
  <outline>
    <contour>
      <point x="358" y="437" type="line"/>
      <point x="367" y="421" type="line"/>
      <point x="608" y="550" type="line"/>
      <point x="593" y="578" type="line"/>
    </contour>
    <contour>
      <point x="521" y="-10" type="curve" smooth="yes"/>
      <point x="635" y="-10"/>
      <point x="692" y="41"/>
      <point x="705" y="121" type="curve"/>
      <point x="682" y="125" type="line"/>
      <point x="669" y="47"/>
      <point x="604" y="13"/>
      <point x="522" y="13" type="curve" smooth="yes"/>
      <point x="439" y="13"/>
      <point x="338" y="48"/>
      <point x="218" y="97" type="curve"/>
      <point x="268" y="130"/>
      <point x="327" y="151"/>
      <point x="385" y="170" type="curve" smooth="yes"/>
      <point x="509" y="209"/>
      <point x="632" y="240"/>
      <point x="669" y="358" type="curve"/>
      <point x="647" y="367" type="line"/>
      <point x="634" y="327"/>
      <point x="610" y="297"/>
      <point x="579" y="274" type="curve"/>
      <point x="469" y="315"/>
      <point x="359" y="367"/>
      <point x="137" y="367" type="curve" smooth="yes"/>
      <point x="112" y="367" type="line"/>
      <point x="112" y="219" type="line"/>
      <point x="135" y="219" type="line"/>
      <point x="135" y="345" type="line"/>
      <point x="334" y="345"/>
      <point x="451" y="298"/>
      <point x="558" y="260" type="curve"/>
      <point x="508" y="229"/>
      <point x="445" y="210"/>
      <point x="380" y="190" type="curve" smooth="yes"/>
      <point x="269" y="155"/>
      <point x="154" y="116"/>
      <point x="100" y="1" type="curve"/>
      <point x="121" y="-10" type="line"/>
      <point x="141" y="29"/>
      <point x="168" y="59"/>
      <point x="199" y="84" type="curve"/>
      <point x="322" y="32"/>
      <point x="428" y="-10"/>
    </contour>
  </outline>
</glyph>
<glyph name="Zcaron" format="1">
  <advance width="863"/>
  <unicode hex="017D"/>
  <outline>
    <contour>
      <point x="434" y="596" type="line"/>
      <point x="268" y="723" type="line"/>
      <point x="257" y="710" type="line"/>
      <point x="424" y="568" type="line"/>
      <point x="444" y="568" type="line"/>
      <point x="611" y="710" type="line"/>
      <point x="600" y="723" type="line"/>
    </contour>
    <contour>
      <point x="763" y="0" type="line"/>
      <point x="763" y="183" type="line"/>
      <point x="738" y="183" type="line"/>
      <point x="738" y="23" type="line"/>
      <point x="178" y="23" type="line" smooth="yes"/>
      <point x="165" y="23"/>
      <point x="154" y="20"/>
      <point x="149" y="19" type="curve"/>
      <point x="149" y="20" type="line"/>
      <point x="154" y="22"/>
      <point x="164" y="26"/>
      <point x="173" y="33" type="curve" smooth="yes"/>
      <point x="759" y="507" type="line"/>
      <point x="759" y="520" type="line"/>
      <point x="105" y="520" type="line"/>
      <point x="105" y="337" type="line"/>
      <point x="130" y="337" type="line"/>
      <point x="130" y="497" type="line"/>
      <point x="687" y="497" type="line" smooth="yes"/>
      <point x="703" y="497"/>
      <point x="716" y="500"/>
      <point x="720" y="501" type="curve"/>
      <point x="720" y="500" type="line"/>
      <point x="716" y="499"/>
      <point x="704" y="493"/>
      <point x="693" y="484" type="curve" smooth="yes"/>
      <point x="108" y="13" type="line"/>
      <point x="108" y="0" type="line"/>
    </contour>
  </outline>
</glyph>
<glyph name="Tcommaaccent" format="1">
  <advance width="465"/>
  <unicode hex="021A"/>
  <outline>
    <contour>
      <point x="263" y="0" type="line"/>
      <point x="263" y="674" type="line"/>
      <point x="201" y="674" type="line"/>
      <point x="201" y="0" type="line"/>
    </contour>
    <contour>
      <point x="157" y="-238" type="line"/>
      <point x="267" y="-51" type="line"/>
      <point x="191" y="-51" type="line"/>
      <point x="103" y="-238" type="line"/>
    </contour>
    <contour>
      <point x="450" y="617" type="line"/>
      <point x="450" y="674" type="line"/>
      <point x="15" y="674" type="line"/>
      <point x="15" y="617" type="line"/>
    </contour>
  </outline>
</glyph>
<glyph name="breve" format="1">
  <advance width="486"/>
  <unicode hex="02D8"/>
  <outline>
    <contour>
      <point x="340" y="608"/>
      <point x="401" y="679"/>
      <point x="416" y="749" type="curve"/>
      <point x="396" y="754" type="line"/>
      <point x="376" y="684"/>
      <point x="317" y="632"/>
      <point x="244" y="632" type="curve"/>
      <point x="171" y="632"/>
      <point x="110" y="684"/>
      <point x="90" y="754" type="curve"/>
      <point x="70" y="749" type="line"/>
      <point x="85" y="679"/>
      <point x="146" y="608"/>
      <point x="243" y="608" type="curve"/>
    </contour>
    <contour>
      <point x="243.0" y="520.0" type="move" name="_top"/>
    </contour>
  </outline>
</glyph>
<glyph name="dotaccent" format="1">
  <advance width="254"/>
  <unicode hex="02D9"/>
  <outline>
    <contour>
      <point x="158" y="633"/>
      <point x="174" y="646"/>
      <point x="174" y="663" type="curve"/>
      <point x="174" y="681"/>
      <point x="158" y="694"/>
      <point x="127" y="694" type="curve"/>
      <point x="97" y="694"/>
      <point x="80" y="681"/>
      <point x="80" y="663" type="curve"/>
      <point x="80" y="646"/>
      <point x="97" y="633"/>
      <point x="127" y="633" type="curve"/>
    </contour>
    <contour>
      <point x="127.0" y="520.0" type="move" name="_top"/>
    </contour>
  </outline>
</glyph>
<glyph name="hungarumlaut" format="1">
  <advance width="510"/>
  <unicode hex="02DD"/>
  <outline>
    <contour>
      <point x="470" y="763" type="line"/>
      <point x="453" y="783" type="line"/>
      <point x="286" y="616" type="line"/>
      <point x="295" y="606" type="line"/>
    </contour>
    <contour>
      <point x="274" y="763" type="line"/>
      <point x="257" y="783" type="line"/>
      <point x="90" y="616" type="line"/>
      <point x="99" y="606" type="line"/>
    </contour>
    <contour>
      <point x="247.0" y="520.0" type="move" name="_top"/>
    </contour>
  </outline>
</glyph>
<glyph name="pi" format="1">
  <advance width="576"/>
  <unicode hex="03C0"/>
  <outline>
    <contour>
      <point x="123" y="0"/>
      <point x="186" y="32"/>
      <point x="186" y="152" type="curve" smooth="yes"/>
      <point x="186" y="467" type="line"/>
      <point x="125" y="467" type="line"/>
      <point x="125" y="151" type="line"/>
      <point x="125" y="74"/>
      <point x="102" y="56"/>
      <point x="41" y="56" type="curve"/>
      <point x="41" y="0" type="line"/>
    </contour>
    <contour>
      <point x="456" y="0" type="line"/>
      <point x="456" y="467" type="line"/>
      <point x="395" y="467" type="line"/>
      <point x="395" y="0" type="line"/>
    </contour>
    <contour>
      <point x="556" y="455" type="line"/>
      <point x="556" y="507" type="line"/>
      <point x="25" y="507" type="line"/>
      <point x="25" y="455" type="line"/>
    </contour>
  </outline>
</glyph>
<glyph name="grAdakbindi" format="1">
  <advance width="0"/>
  <unicode hex="0A01"/>
  <outline>
    <contour>
      <point x="-170" y="719"/>
      <point x="-155" y="731"/>
      <point x="-155" y="746" type="curve"/>
      <point x="-155" y="763"/>
      <point x="-170" y="775"/>
      <point x="-198" y="775" type="curve"/>
      <point x="-225" y="775"/>
      <point x="-241" y="763"/>
      <point x="-241" y="746" type="curve"/>
      <point x="-241" y="731"/>
      <point x="-225" y="719"/>
      <point x="-198" y="719" type="curve"/>
    </contour>
    <component base="grAddak"/>
    <contour>
      <point x="-195" y="489" type="move" name="_center"/>
    </contour>
  </outline>
</glyph>
<glyph name="grBindi" format="1">
  <advance width="0"/>
  <unicode hex="0A02"/>
  <outline>
    <contour>
      <point x="-164" y="623"/>
      <point x="-148" y="636"/>
      <point x="-148" y="653" type="curve"/>
      <point x="-148" y="671"/>
      <point x="-164" y="684"/>
      <point x="-195" y="684" type="curve"/>
      <point x="-225" y="684"/>
      <point x="-242" y="671"/>
      <point x="-242" y="653" type="curve"/>
      <point x="-242" y="636"/>
      <point x="-225" y="623"/>
      <point x="-195" y="623" type="curve"/>
    </contour>
  </outline>
</glyph>
<glyph name="grA" format="1">
  <advance width="1076"/>
  <unicode hex="0A05"/>
  <outline>
    <contour>
      <point x="888" y="490" type="line"/>
      <point x="863" y="490" type="line"/>
      <point x="863" y="0" type="line"/>
      <point x="888" y="0" type="line"/>
    </contour>
    <contour>
      <point x="1086" y="467" type="line"/>
      <point x="1086" y="490" type="line"/>
      <point x="863" y="490" type="line"/>
      <point x="863" y="467" type="line"/>
    </contour>
    <contour>
      <point x="233" y="276" type="curve"/>
      <point x="258" y="286" type="line"/>
      <point x="261" y="345"/>
      <point x="245" y="403"/>
      <point x="210" y="438" type="curve" smooth="yes"/>
      <point x="176" y="472"/>
      <point x="133" y="490"/>
      <point x="46" y="490" type="curve" smooth="yes"/>
      <point x="-10" y="490" type="line"/>
      <point x="-10" y="467" type="line"/>
      <point x="41" y="467" type="line" smooth="yes"/>
      <point x="121" y="467"/>
      <point x="162" y="452"/>
      <point x="192" y="422" type="curve" smooth="yes"/>
      <point x="224" y="390"/>
      <point x="236" y="340"/>
    </contour>
    <contour>
      <point x="519" y="134" type="curve" smooth="yes"/>
      <point x="443" y="65" type="line"/>
      <point x="461" y="49" type="line"/>
      <point x="533" y="113" type="line" smooth="yes"/>
      <point x="601" y="173"/>
      <point x="717" y="199"/>
      <point x="835" y="199" type="curve" smooth="yes"/>
      <point x="881" y="199" type="line"/>
      <point x="881" y="222" type="line"/>
      <point x="832" y="222" type="line" smooth="yes"/>
      <point x="725" y="222"/>
      <point x="613" y="201"/>
      <point x="547" y="151" type="curve"/>
      <point x="560" y="146" type="line"/>
      <point x="597" y="193"/>
      <point x="609" y="259"/>
      <point x="609" y="303" type="curve" smooth="yes"/>
      <point x="609" y="340"/>
      <point x="604" y="378"/>
      <point x="598" y="405" type="curve"/>
      <point x="581" y="405" type="line" smooth="yes"/>
      <point x="437" y="405"/>
      <point x="324" y="363"/>
      <point x="225" y="276" type="curve" smooth="yes"/>
      <point x="135" y="196" type="line"/>
      <point x="152" y="179" type="line"/>
      <point x="239" y="257" type="line" smooth="yes"/>
      <point x="326" y="335"/>
      <point x="441" y="382"/>
      <point x="572" y="382" type="curve" smooth="yes"/>
      <point x="589" y="382" type="line"/>
      <point x="577" y="388" type="line"/>
      <point x="582" y="365"/>
      <point x="585" y="335"/>
      <point x="585" y="304" type="curve" smooth="yes"/>
      <point x="585" y="256"/>
      <point x="568" y="179"/>
    </contour>
  </outline>
</glyph>
<glyph name="grOO" format="1">
  <advance width="1000"/>
  <unicode hex="0A13"/>
  <outline>
    <contour>
      <point x="-10" y="490" type="line"/>
      <point x="-10" y="467" type="line"/>
      <point x="1010" y="467" type="line"/>
      <point x="1010" y="490" type="line"/>
    </contour>
    <contour>
      <point x="159" y="382" type="curve" smooth="yes"/>
      <point x="159" y="167"/>
      <point x="331" y="10"/>
      <point x="569" y="10" type="curve" smooth="yes"/>
      <point x="703" y="10"/>
      <point x="770" y="70"/>
      <point x="770" y="138" type="curve" smooth="yes"/>
      <point x="770" y="193"/>
      <point x="724" y="245"/>
      <point x="628" y="255" type="curve"/>
      <point x="627" y="247" type="line"/>
      <point x="758" y="256"/>
      <point x="860" y="338"/>
      <point x="860" y="468" type="curve"/>
      <point x="835" y="468" type="line"/>
      <point x="835" y="352"/>
      <point x="748" y="263"/>
      <point x="557" y="263" type="curve" smooth="yes"/>
      <point x="196" y="263" type="line"/>
      <point x="196" y="240" type="line"/>
      <point x="562" y="240" type="line" smooth="yes"/>
      <point x="688" y="240"/>
      <point x="746" y="189"/>
      <point x="746" y="138" type="curve" smooth="yes"/>
      <point x="746" y="83"/>
      <point x="686" y="33"/>
      <point x="569" y="33" type="curve" smooth="yes"/>
      <point x="349" y="33"/>
      <point x="184" y="175"/>
      <point x="184" y="382" type="curve" smooth="yes"/>
      <point x="184" y="556"/>
      <point x="311" y="685"/>
      <point x="623" y="685" type="curve" smooth="yes"/>
      <point x="830" y="685" type="line"/>
      <point x="830" y="708" type="line"/>
      <point x="621" y="708" type="line" smooth="yes"/>
      <point x="300" y="708"/>
      <point x="159" y="572"/>
    </contour>
  </outline>
</glyph>
<glyph name="grAU" format="1">
  <advance width="1076"/>
  <unicode hex="0A14"/>
  <outline>
    <component base="grA"/>
    <component base="grmAU" xOffset="1087"/>
    <contour>
      <point x="1698" y="1248" type="move" name="mark0"/>
    </contour>
  </outline>
</glyph>
<glyph name="grKA" format="1">
  <advance width="887"/>
  <unicode hex="0A15"/>
  <outline>
    <contour>
      <point x="897" y="467" type="line"/>
      <point x="897" y="490" type="line"/>
      <point x="-10" y="490" type="line"/>
      <point x="-10" y="467" type="line"/>
    </contour>
    <contour>
      <point x="639" y="224" type="curve" smooth="yes"/>
      <point x="560" y="303"/>
      <point x="446" y="347"/>
      <point x="324" y="347" type="curve" smooth="yes"/>
      <point x="168" y="347"/>
      <point x="96" y="279"/>
      <point x="96" y="206" type="curve" smooth="yes"/>
      <point x="96" y="127"/>
      <point x="180" y="56"/>
      <point x="333" y="56" type="curve" smooth="yes"/>
      <point x="539" y="56"/>
      <point x="719" y="205"/>
      <point x="719" y="435" type="curve" smooth="yes"/>
      <point x="719" y="488" type="line"/>
      <point x="694" y="488" type="line"/>
      <point x="694" y="436" type="line" smooth="yes"/>
      <point x="694" y="219"/>
      <point x="523" y="79"/>
      <point x="334" y="79" type="curve" smooth="yes"/>
      <point x="208" y="79"/>
      <point x="121" y="135"/>
      <point x="121" y="204" type="curve" smooth="yes"/>
      <point x="121" y="269"/>
      <point x="190" y="324"/>
      <point x="324" y="324" type="curve" smooth="yes"/>
      <point x="428" y="324"/>
      <point x="545" y="283"/>
      <point x="621" y="207" type="curve" smooth="yes"/>
      <point x="677" y="151"/>
      <point x="723" y="76"/>
      <point x="753" y="-3" type="curve"/>
      <point x="776" y="4" type="line"/>
      <point x="744" y="85"/>
      <point x="697" y="166"/>
    </contour>
    <contour>
      <point x="694" y="490" type="move" name="top"/>
    </contour>
  </outline>
</glyph>
<glyph name="grKHA" format="1">
  <advance width="916"/>
  <unicode hex="0A16"/>
  <outline>
    <contour>
      <point x="728" y="488" type="line"/>
      <point x="703" y="488" type="line"/>
      <point x="703" y="0" type="line"/>
      <point x="728" y="0" type="line"/>
    </contour>
    <contour>
      <point x="721" y="315" type="line"/>
      <point x="208" y="315" type="line"/>
      <point x="205" y="292" type="line"/>
      <point x="721" y="292" type="line"/>
    </contour>
    <contour>
      <point x="189" y="467" type="line"/>
      <point x="191" y="490" type="line"/>
      <point x="-10" y="490" type="line"/>
      <point x="-10" y="467" type="line"/>
    </contour>
    <contour>
      <point x="703" y="490" type="line"/>
      <point x="703" y="467" type="line"/>
      <point x="926" y="467" type="line"/>
      <point x="926" y="490" type="line"/>
    </contour>
    <contour>
      <point x="174" y="490" type="line"/>
      <point x="200" y="303" type="line"/>
      <point x="167" y="146" type="line"/>
      <point x="254" y="93"/>
      <point x="363" y="68"/>
      <point x="470" y="68" type="curve" smooth="yes"/>
      <point x="569" y="68"/>
      <point x="654" y="81"/>
      <point x="717" y="97" type="curve"/>
      <point x="717" y="121" type="line"/>
      <point x="656" y="105"/>
      <point x="559" y="91"/>
      <point x="470" y="91" type="curve" smooth="yes"/>
      <point x="376" y="91"/>
      <point x="256" y="119"/>
      <point x="186" y="164" type="curve"/>
      <point x="193" y="147" type="line"/>
      <point x="225" y="302" type="line"/>
      <point x="200" y="490" type="line"/>
    </contour>
    <contour>
      <point x="703.0" y="490.0" type="move" name="top"/>
    </contour>
  </outline>
</glyph>
<glyph name="grGA" format="1">
  <advance width="1116"/>
  <unicode hex="0A17"/>
  <outline>
    <contour>
      <point x="1126" y="467" type="line"/>
      <point x="1126" y="490" type="line"/>
      <point x="-10" y="490" type="line"/>
      <point x="-10" y="467" type="line"/>
    </contour>
    <contour>
      <point x="928" y="490" type="line"/>
      <point x="903" y="490" type="line"/>
      <point x="903" y="0" type="line"/>
      <point x="928" y="0" type="line"/>
    </contour>
    <contour>
      <point x="556" y="309" type="line"/>
      <point x="227" y="309" type="line" smooth="yes"/>
      <point x="155" y="309"/>
      <point x="125" y="297"/>
      <point x="105" y="277" type="curve" smooth="yes"/>
      <point x="94" y="266"/>
      <point x="86" y="249"/>
      <point x="86" y="229" type="curve" smooth="yes"/>
      <point x="86" y="120"/>
      <point x="294" y="-1"/>
      <point x="435" y="-1" type="curve" smooth="yes"/>
      <point x="517" y="-1"/>
      <point x="560" y="46"/>
      <point x="560" y="133" type="curve" smooth="yes"/>
      <point x="560" y="477" type="line"/>
      <point x="535" y="477" type="line"/>
      <point x="535" y="136" type="line" smooth="yes"/>
      <point x="535" y="61"/>
      <point x="502" y="22"/>
      <point x="434" y="22" type="curve" smooth="yes"/>
      <point x="314" y="22"/>
      <point x="111" y="135"/>
      <point x="111" y="228" type="curve" smooth="yes"/>
      <point x="111" y="241"/>
      <point x="116" y="253"/>
      <point x="124" y="261" type="curve" smooth="yes"/>
      <point x="139" y="276"/>
      <point x="164" y="286"/>
      <point x="231" y="286" type="curve" smooth="yes"/>
      <point x="556" y="286" type="line"/>
    </contour>
    <contour>
      <point x="903.0" y="490.0" type="move" name="top"/>
    </contour>
    <contour>
      <point x="536.0" y="490.0" type="move" name="topmid"/>
    </contour>
  </outline>
</glyph>
<glyph name="grNGA" format="1">
  <advance width="875"/>
  <unicode hex="0A19"/>
  <outline>
    <contour>
      <point x="885" y="467" type="line"/>
      <point x="885" y="490" type="line"/>
      <point x="-10" y="490" type="line"/>
      <point x="-10" y="467" type="line"/>
    </contour>
    <contour>
      <point x="213" y="487" type="line"/>
      <point x="188" y="487" type="line"/>
      <point x="188" y="322" type="line"/>
      <point x="213" y="322" type="line"/>
    </contour>
    <contour>
      <point x="294" y="183" type="curve" smooth="yes"/>
      <point x="180" y="183"/>
      <point x="132" y="140"/>
      <point x="132" y="91" type="curve" smooth="yes"/>
      <point x="132" y="40"/>
      <point x="180" y="0"/>
      <point x="303" y="0" type="curve" smooth="yes"/>
      <point x="553" y="0"/>
      <point x="754" y="117"/>
      <point x="754" y="231" type="curve" smooth="yes"/>
      <point x="754" y="296"/>
      <point x="700" y="345"/>
      <point x="562" y="345" type="curve" smooth="yes"/>
      <point x="202" y="345" type="line"/>
      <point x="202" y="322" type="line"/>
      <point x="554" y="322" type="line" smooth="yes"/>
      <point x="683" y="322"/>
      <point x="729" y="285"/>
      <point x="729" y="228" type="curve" smooth="yes"/>
      <point x="729" y="134"/>
      <point x="544" y="23"/>
      <point x="302" y="23" type="curve" smooth="yes"/>
      <point x="199" y="23"/>
      <point x="156" y="56"/>
      <point x="156" y="91" type="curve" smooth="yes"/>
      <point x="156" y="125"/>
      <point x="197" y="160"/>
      <point x="294" y="160" type="curve" smooth="yes"/>
      <point x="410" y="160"/>
      <point x="544" y="121"/>
      <point x="658" y="54" type="curve" smooth="yes"/>
      <point x="771" y="-12" type="line"/>
      <point x="784" y="6" type="line"/>
      <point x="676" y="70" type="line" smooth="yes"/>
      <point x="549" y="145"/>
      <point x="415" y="183"/>
    </contour>
  </outline>
</glyph>
<glyph name="grCA" format="1">
  <advance width="914"/>
  <unicode hex="0A1A"/>
  <outline>
    <contour>
      <point x="924" y="467" type="line"/>
      <point x="924" y="490" type="line"/>
      <point x="-10" y="490" type="line"/>
      <point x="-10" y="467" type="line"/>
    </contour>
    <contour>
      <point x="717" y="256" type="line"/>
      <point x="717" y="279" type="line"/>
      <point x="154" y="279" type="line"/>
      <point x="166" y="256" type="line"/>
    </contour>
    <contour>
      <point x="577" y="-1" type="curve" smooth="yes"/>
      <point x="688" y="-1"/>
      <point x="727" y="45"/>
      <point x="727" y="133" type="curve" smooth="yes"/>
      <point x="727" y="488" type="line"/>
      <point x="702" y="488" type="line"/>
      <point x="702" y="136" type="line" smooth="yes"/>
      <point x="702" y="60"/>
      <point x="676" y="22"/>
      <point x="577" y="22" type="curve" smooth="yes"/>
      <point x="438" y="22"/>
      <point x="291" y="102"/>
      <point x="151" y="299" type="curve" smooth="yes"/>
      <point x="93" y="381" type="line"/>
      <point x="74" y="368" type="line"/>
      <point x="125" y="295" type="line" smooth="yes"/>
      <point x="278" y="77"/>
      <point x="430" y="-1"/>
    </contour>
    <contour>
      <point x="702.0" y="490.0" type="move" name="top"/>
    </contour>
    <contour>
      <point x="416" y="489" type="move" name="topmid"/>
    </contour>
  </outline>
</glyph>
<glyph name="grCHA" format="1">
  <advance width="960"/>
  <unicode hex="0A1B"/>
  <outline>
    <contour>
      <point x="103" y="50"/>
      <point x="180" y="-4"/>
      <point x="482" y="-4" type="curve" smooth="yes"/>
      <point x="802" y="-4"/>
      <point x="868" y="51"/>
      <point x="868" y="113" type="curve" smooth="yes"/>
      <point x="868" y="167"/>
      <point x="806" y="230"/>
      <point x="480" y="230" type="curve" smooth="yes"/>
      <point x="170" y="230"/>
      <point x="103" y="171"/>
      <point x="103" y="114" type="curve" smooth="yes"/>
    </contour>
    <contour>
      <point x="476" y="6" type="line"/>
      <point x="501" y="6" type="line"/>
      <point x="501" y="221" type="line"/>
      <point x="476" y="221" type="line"/>
    </contour>
    <contour>
      <point x="213" y="19"/>
      <point x="127" y="62"/>
      <point x="127" y="114" type="curve" smooth="yes"/>
      <point x="127" y="158"/>
      <point x="195" y="207"/>
      <point x="480" y="207" type="curve" smooth="yes"/>
      <point x="778" y="207"/>
      <point x="844" y="156"/>
      <point x="844" y="114" type="curve" smooth="yes"/>
      <point x="844" y="62"/>
      <point x="772" y="19"/>
      <point x="483" y="19" type="curve" smooth="yes"/>
    </contour>
    <contour>
      <point x="772" y="344" type="line"/>
      <point x="772" y="483" type="line"/>
      <point x="747" y="483" type="line"/>
      <point x="747" y="344" type="line"/>
    </contour>
    <contour>
      <point x="970" y="467" type="line"/>
      <point x="970" y="490" type="line"/>
      <point x="-10" y="490" type="line"/>
      <point x="-10" y="467" type="line"/>
    </contour>
    <contour>
      <point x="238" y="195" type="curve"/>
      <point x="268" y="208" type="line"/>
      <point x="183" y="225"/>
      <point x="152" y="255"/>
      <point x="152" y="283" type="curve" smooth="yes"/>
      <point x="152" y="293"/>
      <point x="155" y="303"/>
      <point x="164" y="312" type="curve" smooth="yes"/>
      <point x="183" y="331"/>
      <point x="222" y="344"/>
      <point x="320" y="344" type="curve" smooth="yes"/>
      <point x="759.0" y="344.0" type="line"/>
      <point x="759.0" y="367.0" type="line"/>
      <point x="318" y="367" type="line" smooth="yes"/>
      <point x="215" y="367"/>
      <point x="171" y="352"/>
      <point x="147" y="328" type="curve" smooth="yes"/>
      <point x="133" y="314"/>
      <point x="129" y="299"/>
      <point x="129" y="284" type="curve" smooth="yes"/>
      <point x="129" y="246"/>
      <point x="166" y="209"/>
    </contour>
    <contour>
      <point x="747.0" y="490.0" type="move" name="top"/>
    </contour>
    <contour>
      <point x="469" y="489" type="move" name="topmid"/>
    </contour>
  </outline>
</glyph>
<glyph name="grJA" format="1">
  <advance width="904"/>
  <unicode hex="0A1C"/>
  <outline>
    <contour>
      <point x="200" y="264" type="line"/>
      <point x="200" y="241" type="line"/>
      <point x="712" y="241" type="line"/>
      <point x="712" y="264" type="line"/>
    </contour>
    <contour>
      <point x="196" y="264" type="line"/>
      <point x="196" y="0" type="line"/>
      <point x="221" y="0" type="line"/>
      <point x="221" y="264" type="line"/>
    </contour>
    <contour>
      <point x="222" y="256" type="line"/>
      <point x="128" y="362" type="line"/>
      <point x="110" y="346" type="line"/>
      <point x="199" y="245" type="line"/>
    </contour>
    <contour>
      <point x="716" y="488" type="line"/>
      <point x="691" y="488" type="line"/>
      <point x="691" y="0" type="line"/>
      <point x="716" y="0" type="line"/>
    </contour>
    <contour>
      <point x="914" y="467" type="line"/>
      <point x="914" y="490" type="line"/>
      <point x="-10" y="490" type="line"/>
      <point x="-10" y="467" type="line"/>
    </contour>
    <contour>
      <point x="691" y="490" type="move" name="top"/>
    </contour>
    <contour>
      <point x="412" y="490" type="move" name="topmid"/>
    </contour>
  </outline>
</glyph>
<glyph name="grJHA" format="1">
  <advance width="954"/>
  <unicode hex="0A1D"/>
  <outline>
    <contour>
      <point x="964" y="467" type="line"/>
      <point x="964" y="490" type="line"/>
      <point x="-10" y="490" type="line"/>
      <point x="-10" y="467" type="line"/>
    </contour>
    <contour>
      <point x="104.0" y="296.0" type="line"/>
      <point x="104.0" y="273.0" type="line"/>
      <point x="667.0" y="273.0" type="line" smooth="yes"/>
      <point x="761.0" y="273.0"/>
      <point x="802" y="254"/>
      <point x="819" y="237" type="curve" smooth="yes"/>
      <point x="829" y="227"/>
      <point x="834" y="215"/>
      <point x="834" y="203" type="curve" smooth="yes"/>
      <point x="834" y="189"/>
      <point x="829" y="177"/>
      <point x="818" y="166" type="curve" smooth="yes"/>
      <point x="797" y="145"/>
      <point x="749" y="131"/>
      <point x="639" y="131" type="curve" smooth="yes"/>
      <point x="286.0" y="131.0" type="line"/>
      <point x="286.0" y="108.0" type="line"/>
      <point x="557.0" y="108.0" type="line"/>
      <point x="790.0" y="-14.0" type="line"/>
      <point x="803" y="6" type="line"/>
      <point x="580.0" y="120.0" type="line"/>
      <point x="580" y="108" type="line"/>
      <point x="644" y="108" type="line" smooth="yes"/>
      <point x="766" y="108"/>
      <point x="815" y="129"/>
      <point x="836" y="150" type="curve" smooth="yes"/>
      <point x="854" y="168"/>
      <point x="859" y="185"/>
      <point x="859" y="203" type="curve" smooth="yes"/>
      <point x="859" y="219"/>
      <point x="854" y="236"/>
      <point x="837" y="253" type="curve" smooth="yes"/>
      <point x="813" y="277"/>
      <point x="766" y="296"/>
      <point x="665" y="296" type="curve" smooth="yes"/>
    </contour>
    <contour>
      <point x="779" y="481" type="curve"/>
      <point x="753" y="481" type="line"/>
      <point x="693" y="380"/>
      <point x="589" y="296"/>
      <point x="484" y="296" type="curve" smooth="yes"/>
      <point x="369" y="296"/>
      <point x="266" y="380"/>
      <point x="208" y="482" type="curve"/>
      <point x="182" y="482" type="line"/>
      <point x="256" y="354"/>
      <point x="353" y="278"/>
      <point x="484" y="278" type="curve" smooth="yes"/>
      <point x="604" y="278"/>
      <point x="703" y="354"/>
    </contour>
    <contour>
      <point x="755.0" y="490.0" type="move" name="top"/>
    </contour>
    <contour>
      <point x="480" y="490" type="move" name="topmid"/>
    </contour>
  </outline>
</glyph>
<glyph name="grTTA" format="1">
  <advance width="907"/>
  <unicode hex="0A1F"/>
  <outline>
    <contour>
      <point x="704" y="315" type="line"/>
      <point x="704" y="338" type="line"/>
      <point x="615" y="338" type="line" smooth="yes"/>
      <point x="368" y="338"/>
      <point x="222" y="282"/>
      <point x="104" y="176" type="curve"/>
      <point x="104" y="173" type="line"/>
      <point x="222" y="55"/>
      <point x="369" y="4"/>
      <point x="547" y="4" type="curve" smooth="yes"/>
      <point x="642" y="4"/>
      <point x="714" y="16"/>
      <point x="782" y="33" type="curve"/>
      <point x="778" y="56" type="line"/>
      <point x="707" y="38"/>
      <point x="632" y="27"/>
      <point x="546" y="27" type="curve" smooth="yes"/>
      <point x="385" y="27"/>
      <point x="225" y="81"/>
      <point x="132" y="181" type="curve"/>
      <point x="132" y="169" type="line"/>
      <point x="245" y="264"/>
      <point x="387" y="315"/>
      <point x="615" y="315" type="curve" smooth="yes"/>
    </contour>
    <contour>
      <point x="683" y="315" type="line"/>
      <point x="708" y="315" type="line"/>
      <point x="708" y="487" type="line"/>
      <point x="683" y="487" type="line"/>
    </contour>
    <contour>
      <point x="917" y="467" type="line"/>
      <point x="917" y="490" type="line"/>
      <point x="-10" y="490" type="line"/>
      <point x="-10" y="467" type="line"/>
    </contour>
    <contour>
      <point x="683.0" y="490.0" type="move" name="top"/>
    </contour>
    <contour>
      <point x="430" y="490" type="move" name="topmid"/>
    </contour>
  </outline>
</glyph>
<glyph name="grTTHA" format="1">
  <advance width="924"/>
  <unicode hex="0A20"/>
  <outline>
    <contour>
      <point x="934" y="467" type="line"/>
      <point x="934" y="490" type="line"/>
      <point x="-10" y="490" type="line"/>
      <point x="-10" y="467" type="line"/>
    </contour>
    <contour>
      <point x="480" y="490" type="line"/>
      <point x="455" y="490" type="line"/>
      <point x="455" y="351" type="line"/>
      <point x="480" y="351" type="line"/>
    </contour>
    <contour>
      <point x="201" y="20"/>
      <point x="109" y="112"/>
      <point x="109" y="164" type="curve" smooth="yes"/>
      <point x="109" y="220"/>
      <point x="189" y="285"/>
      <point x="468" y="338" type="curve"/>
      <point x="751" y="290"/>
      <point x="826" y="225"/>
      <point x="826" y="166" type="curve" smooth="yes"/>
      <point x="826" y="108"/>
      <point x="710" y="20"/>
      <point x="465" y="20" type="curve" smooth="yes"/>
    </contour>
    <contour>
      <point x="741" y="-3"/>
      <point x="851" y="100"/>
      <point x="851" y="166" type="curve" smooth="yes"/>
      <point x="851" y="233"/>
      <point x="786" y="310"/>
      <point x="477" y="359" type="curve"/>
      <point x="460" y="359" type="line"/>
      <point x="161" y="306"/>
      <point x="84" y="231"/>
      <point x="84" y="165" type="curve" smooth="yes"/>
      <point x="84" y="103"/>
      <point x="174" y="-3"/>
      <point x="465" y="-3" type="curve" smooth="yes"/>
    </contour>
    <contour>
      <point x="454" y="489" type="move" name="center"/>
    </contour>
  </outline>
</glyph>
<glyph name="grDDA" format="1">
  <advance width="829"/>
  <unicode hex="0A21"/>
  <outline>
    <contour>
      <point x="839" y="467" type="line"/>
      <point x="839" y="490" type="line"/>
      <point x="-10" y="490" type="line"/>
      <point x="-10" y="467" type="line"/>
    </contour>
    <contour>
      <point x="709" y="166" type="curve" smooth="yes"/>
      <point x="709" y="93"/>
      <point x="613" y="21"/>
      <point x="388" y="21" type="curve" smooth="yes"/>
      <point x="202" y="21"/>
      <point x="109" y="70"/>
      <point x="109" y="119" type="curve" smooth="yes"/>
      <point x="109" y="149"/>
      <point x="139" y="175"/>
      <point x="205" y="175" type="curve" smooth="yes"/>
      <point x="309" y="175"/>
      <point x="440" y="122"/>
      <point x="532" y="19" type="curve"/>
      <point x="556" y="25" type="line"/>
      <point x="459" y="139"/>
      <point x="323" y="198"/>
      <point x="204" y="198" type="curve" smooth="yes"/>
      <point x="123" y="198"/>
      <point x="85" y="162"/>
      <point x="85" y="118" type="curve" smooth="yes"/>
      <point x="85" y="56"/>
      <point x="179" y="-2"/>
      <point x="389" y="-2" type="curve" smooth="yes"/>
      <point x="631" y="-2"/>
      <point x="734" y="79"/>
      <point x="734" y="166" type="curve" smooth="yes"/>
      <point x="734" y="242"/>
      <point x="659" y="315"/>
      <point x="450" y="320" type="curve"/>
      <point x="450" y="311" type="line"/>
      <point x="630" y="314"/>
      <point x="700" y="384"/>
      <point x="700" y="472" type="curve" smooth="yes"/>
      <point x="700" y="490" type="line"/>
      <point x="675" y="490" type="line"/>
      <point x="675" y="471" type="line" smooth="yes"/>
      <point x="675" y="393"/>
      <point x="611" y="326"/>
      <point x="373" y="326" type="curve" smooth="yes"/>
      <point x="211" y="326" type="line"/>
      <point x="211" y="303" type="line"/>
      <point x="386" y="303" type="line" smooth="yes"/>
      <point x="632" y="303"/>
      <point x="709" y="233"/>
    </contour>
    <contour>
      <point x="675" y="490" type="move" name="top"/>
    </contour>
  </outline>
</glyph>
<glyph name="grDDHA" format="1">
  <advance width="860"/>
  <unicode hex="0A22"/>
  <outline>
    <contour>
      <point x="100" y="302" type="line" smooth="yes"/>
      <point x="201" y="86"/>
      <point x="316" y="-5"/>
      <point x="545" y="-5" type="curve" smooth="yes"/>
      <point x="683" y="-5"/>
      <point x="738" y="43"/>
      <point x="738" y="92" type="curve" smooth="yes"/>
      <point x="738" y="137"/>
      <point x="695" y="171"/>
      <point x="593" y="171" type="curve" smooth="yes"/>
      <point x="503" y="171"/>
      <point x="399" y="138"/>
      <point x="307" y="67" type="curve"/>
      <point x="328" y="56" type="line"/>
      <point x="413" y="121"/>
      <point x="517" y="148"/>
      <point x="592" y="148" type="curve" smooth="yes"/>
      <point x="678" y="148"/>
      <point x="714" y="121"/>
      <point x="714" y="90" type="curve" smooth="yes"/>
      <point x="714" y="57"/>
      <point x="668" y="18"/>
      <point x="544" y="18" type="curve" smooth="yes"/>
      <point x="331" y="18"/>
      <point x="219" y="102"/>
      <point x="126" y="301" type="curve" smooth="yes"/>
      <point x="84" y="391" type="line"/>
      <point x="63" y="381" type="line"/>
    </contour>
    <contour>
      <point x="870" y="467" type="line"/>
      <point x="870" y="490" type="line"/>
      <point x="-10" y="490" type="line"/>
      <point x="-10" y="467" type="line"/>
    </contour>
    <contour>
      <point x="647" y="286" type="line"/>
      <point x="672" y="286" type="line"/>
      <point x="672" y="486" type="line"/>
      <point x="647" y="486" type="line"/>
    </contour>
    <contour>
      <point x="672" y="271" type="line"/>
      <point x="672" y="294" type="line"/>
      <point x="121" y="294" type="line"/>
      <point x="132" y="271" type="line"/>
    </contour>
  </outline>
</glyph>
<glyph name="grTA" format="1">
  <advance width="827"/>
  <unicode hex="0A24"/>
  <outline>
    <contour>
      <point x="837" y="467" type="line"/>
      <point x="837" y="490" type="line"/>
      <point x="-10" y="490" type="line"/>
      <point x="-10" y="467" type="line"/>
    </contour>
    <contour>
      <point x="322" y="29"/>
      <point x="221" y="49"/>
      <point x="100" y="91" type="curve"/>
      <point x="93" y="70" type="line"/>
      <point x="216" y="27"/>
      <point x="316" y="6"/>
      <point x="435" y="6" type="curve" smooth="yes"/>
      <point x="609" y="6"/>
      <point x="691" y="69"/>
      <point x="691" y="148" type="curve" smooth="yes"/>
      <point x="691" y="218"/>
      <point x="625" y="284"/>
      <point x="439" y="291" type="curve"/>
      <point x="439" y="284" type="line"/>
      <point x="604" y="291"/>
      <point x="639" y="373"/>
      <point x="639" y="455" type="curve" smooth="yes"/>
      <point x="639" y="490" type="line"/>
      <point x="614" y="490" type="line"/>
      <point x="614" y="454" type="line" smooth="yes"/>
      <point x="614" y="379"/>
      <point x="585" y="296"/>
      <point x="350" y="296" type="curve" smooth="yes"/>
      <point x="204" y="296" type="line"/>
      <point x="204" y="273" type="line"/>
      <point x="370" y="273" type="line" smooth="yes"/>
      <point x="599" y="273"/>
      <point x="666" y="209"/>
      <point x="666" y="148" type="curve" smooth="yes"/>
      <point x="666" y="83"/>
      <point x="591" y="29"/>
      <point x="435" y="29" type="curve" smooth="yes"/>
    </contour>
  </outline>
</glyph>
<glyph name="grTHA" format="1">
  <advance width="926"/>
  <unicode hex="0A25"/>
  <outline>
    <contour>
      <point x="738" y="488" type="line"/>
      <point x="713" y="488" type="line"/>
      <point x="713" y="0" type="line"/>
      <point x="738" y="0" type="line"/>
    </contour>
    <contour>
      <point x="936" y="467" type="line"/>
      <point x="936" y="490" type="line"/>
      <point x="-10" y="490" type="line"/>
      <point x="-10" y="467" type="line"/>
    </contour>
    <contour>
      <point x="731" y="315" type="line"/>
      <point x="208" y="315" type="line"/>
      <point x="208" y="292" type="line"/>
      <point x="731" y="292" type="line"/>
    </contour>
    <contour>
      <point x="177" y="490" type="line"/>
      <point x="203" y="303" type="line"/>
      <point x="170" y="146" type="line"/>
      <point x="257" y="93"/>
      <point x="366" y="68"/>
      <point x="473" y="68" type="curve" smooth="yes"/>
      <point x="572" y="68"/>
      <point x="657" y="81"/>
      <point x="720" y="97" type="curve"/>
      <point x="720" y="121" type="line"/>
      <point x="659" y="105"/>
      <point x="562" y="91"/>
      <point x="473" y="91" type="curve" smooth="yes"/>
      <point x="379" y="91"/>
      <point x="259" y="119"/>
      <point x="189" y="164" type="curve"/>
      <point x="196" y="147" type="line"/>
      <point x="228" y="302" type="line"/>
      <point x="203" y="490" type="line"/>
    </contour>
    <contour>
      <point x="713.0" y="490.0" type="move" name="top"/>
    </contour>
  </outline>
</glyph>
<glyph name="grDA" format="1">
  <advance width="844"/>
  <unicode hex="0A26"/>
  <outline>
    <contour>
      <point x="110" y="302" type="line" smooth="yes"/>
      <point x="211" y="86"/>
      <point x="340" y="2"/>
      <point x="559" y="2" type="curve" smooth="yes"/>
      <point x="616" y="2"/>
      <point x="682" y="12"/>
      <point x="733" y="24" type="curve"/>
      <point x="729" y="46" type="line"/>
      <point x="678" y="34"/>
      <point x="611" y="25"/>
      <point x="558" y="25" type="curve" smooth="yes"/>
      <point x="357" y="25"/>
      <point x="229" y="102"/>
      <point x="136" y="301" type="curve" smooth="yes"/>
      <point x="94" y="391" type="line"/>
      <point x="73" y="381" type="line"/>
    </contour>
    <contour>
      <point x="854" y="467" type="line"/>
      <point x="854" y="490" type="line"/>
      <point x="-10" y="490" type="line"/>
      <point x="-10" y="467" type="line"/>
    </contour>
    <contour>
      <point x="632" y="264" type="line"/>
      <point x="657" y="264" type="line"/>
      <point x="657" y="488" type="line"/>
      <point x="632" y="488" type="line"/>
    </contour>
    <contour>
      <point x="657" y="257" type="line"/>
      <point x="657" y="280" type="line"/>
      <point x="139" y="280" type="line"/>
      <point x="141" y="257" type="line"/>
    </contour>
    <contour>
      <point x="632.0" y="490.0" type="move" name="top"/>
    </contour>
  </outline>
</glyph>
<glyph name="grDHA" format="1">
  <advance width="891"/>
  <unicode hex="0A27"/>
  <outline>
    <contour>
      <point x="703" y="488" type="line"/>
      <point x="678" y="488" type="line"/>
      <point x="678" y="0" type="line"/>
      <point x="703" y="0" type="line"/>
    </contour>
    <contour>
      <point x="901" y="467" type="line"/>
      <point x="901" y="490" type="line"/>
      <point x="-10" y="490" type="line"/>
      <point x="-10" y="467" type="line"/>
    </contour>
    <contour>
      <point x="178" y="490" type="line"/>
      <point x="204" y="305" type="line"/>
      <point x="171" y="150" type="line"/>
      <point x="258" y="97"/>
      <point x="370" y="72"/>
      <point x="463" y="72" type="curve" smooth="yes"/>
      <point x="550" y="72"/>
      <point x="630" y="86"/>
      <point x="688" y="103" type="curve"/>
      <point x="688" y="127" type="line"/>
      <point x="632" y="110"/>
      <point x="541" y="95"/>
      <point x="463" y="95" type="curve" smooth="yes"/>
      <point x="381" y="95"/>
      <point x="260" y="123"/>
      <point x="190" y="168" type="curve"/>
      <point x="197" y="151" type="line"/>
      <point x="229" y="304" type="line"/>
      <point x="204" y="490" type="line"/>
    </contour>
    <contour>
      <point x="678.0" y="490.0" type="move" name="top"/>
    </contour>
  </outline>
</glyph>
<glyph name="grPHA" format="1">
  <advance width="868"/>
  <unicode hex="0A2B"/>
  <outline>
    <contour>
      <point x="298" y="59" type="line"/>
      <point x="378" y="124"/>
      <point x="492" y="160"/>
      <point x="589" y="160" type="curve" smooth="yes"/>
      <point x="675" y="160"/>
      <point x="715" y="131"/>
      <point x="715" y="98" type="curve" smooth="yes"/>
      <point x="715" y="58"/>
      <point x="663" y="23"/>
      <point x="549" y="23" type="curve" smooth="yes"/>
      <point x="307" y="23"/>
      <point x="122" y="134"/>
      <point x="122" y="228" type="curve" smooth="yes"/>
      <point x="122" y="285"/>
      <point x="168" y="322"/>
      <point x="297" y="322" type="curve" smooth="yes"/>
      <point x="676" y="322" type="line"/>
      <point x="676" y="345" type="line"/>
      <point x="289" y="345" type="line" smooth="yes"/>
      <point x="151" y="345"/>
      <point x="97" y="296"/>
      <point x="97" y="231" type="curve" smooth="yes"/>
      <point x="97" y="117"/>
      <point x="298" y="0"/>
      <point x="548" y="0" type="curve" smooth="yes"/>
      <point x="685" y="0"/>
      <point x="739" y="47"/>
      <point x="739" y="99" type="curve" smooth="yes"/>
      <point x="739" y="144"/>
      <point x="696" y="183"/>
      <point x="589" y="183" type="curve" smooth="yes"/>
      <point x="474" y="183"/>
      <point x="356" y="137"/>
      <point x="275" y="70" type="curve"/>
    </contour>
    <contour>
      <point x="878" y="467" type="line"/>
      <point x="878" y="490" type="line"/>
      <point x="-10" y="490" type="line"/>
      <point x="-10" y="467" type="line"/>
    </contour>
    <contour>
      <point x="655" y="322" type="line"/>
      <point x="680" y="322" type="line"/>
      <point x="680" y="487" type="line"/>
      <point x="655" y="487" type="line"/>
    </contour>
  </outline>
</glyph>
<glyph name="grMA" format="1">
  <advance width="903"/>
  <unicode hex="0A2E"/>
  <outline>
    <contour>
      <point x="214" y="490" type="line"/>
      <point x="189" y="490" type="line"/>
      <point x="256" y="215" type="line"/>
      <point x="166" y="68" type="line"/>
      <point x="187" y="55" type="line"/>
      <point x="283" y="209" type="line"/>
    </contour>
    <contour>
      <point x="266" y="225" type="line"/>
      <point x="266" y="202" type="line"/>
      <point x="712" y="202" type="line"/>
      <point x="712" y="225" type="line"/>
    </contour>
    <contour>
      <point x="715" y="488" type="line"/>
      <point x="690" y="488" type="line"/>
      <point x="690" y="0" type="line"/>
      <point x="715" y="0" type="line"/>
    </contour>
    <contour>
      <point x="690" y="490" type="line"/>
      <point x="690" y="467" type="line"/>
      <point x="913" y="467" type="line"/>
      <point x="913" y="490" type="line"/>
    </contour>
    <contour>
      <point x="207" y="467" type="line"/>
      <point x="207" y="490" type="line"/>
      <point x="-10" y="490" type="line"/>
      <point x="-10" y="467" type="line"/>
    </contour>
    <contour>
      <point x="690" y="490" type="move" name="top"/>
    </contour>
  </outline>
</glyph>
<glyph name="grYA" format="1">
  <advance width="1118"/>
  <unicode hex="0A2F"/>
  <outline>
    <contour>
      <point x="584" y="271" type="line"/>
      <point x="926" y="271" type="line"/>
      <point x="926" y="294" type="line"/>
      <point x="584" y="294" type="line"/>
    </contour>
    <contour>
      <point x="930" y="488" type="line"/>
      <point x="905" y="488" type="line"/>
      <point x="905" y="0" type="line"/>
      <point x="930" y="0" type="line"/>
    </contour>
    <contour>
      <point x="1128" y="467" type="line"/>
      <point x="1128" y="490" type="line"/>
      <point x="-10" y="490" type="line"/>
      <point x="-10" y="467" type="line"/>
    </contour>
    <contour>
      <point x="448" y="59" type="curve" smooth="yes"/>
      <point x="559" y="59"/>
      <point x="598" y="105"/>
      <point x="598" y="193" type="curve" smooth="yes"/>
      <point x="598" y="294" type="line"/>
      <point x="573" y="294" type="line"/>
      <point x="573" y="196" type="line" smooth="yes"/>
      <point x="573" y="120"/>
      <point x="547" y="82"/>
      <point x="448" y="82" type="curve" smooth="yes"/>
      <point x="366" y="82"/>
      <point x="249" y="113"/>
      <point x="178" y="158" type="curve"/>
      <point x="185" y="141" type="line"/>
      <point x="219" y="304" type="line"/>
      <point x="194" y="490" type="line"/>
      <point x="168" y="490" type="line"/>
      <point x="194" y="305" type="line"/>
      <point x="159" y="140" type="line"/>
      <point x="249" y="86"/>
      <point x="355" y="59"/>
    </contour>
  </outline>
</glyph>
<glyph name="grLA" format="1">
  <advance width="982"/>
  <unicode hex="0A32"/>
  <outline>
    <contour>
      <point x="789" y="482" type="curve"/>
      <point x="764" y="482" type="line"/>
      <point x="702" y="372"/>
      <point x="627" y="281"/>
      <point x="497" y="216" type="curve"/>
      <point x="506" y="216" type="line"/>
      <point x="379" y="280"/>
      <point x="284" y="378"/>
      <point x="221" y="482" type="curve"/>
      <point x="194" y="482" type="line"/>
      <point x="272" y="357"/>
      <point x="357" y="270"/>
      <point x="500" y="194" type="curve"/>
      <point x="503" y="194" type="line"/>
      <point x="648" y="269"/>
      <point x="717" y="354"/>
    </contour>
    <contour>
      <point x="992" y="467" type="line"/>
      <point x="992" y="490" type="line"/>
      <point x="-10" y="490" type="line"/>
      <point x="-10" y="467" type="line"/>
    </contour>
    <contour>
      <point x="352" y="303" type="curve"/>
      <point x="335" y="323" type="line"/>
      <point x="195" y="285"/>
      <point x="110" y="216"/>
      <point x="110" y="154" type="curve" smooth="yes"/>
      <point x="110" y="93"/>
      <point x="177" y="30"/>
      <point x="330" y="-1" type="curve"/>
      <point x="337" y="21" type="line"/>
      <point x="195" y="52"/>
      <point x="134" y="103"/>
      <point x="134" y="151" type="curve" smooth="yes"/>
      <point x="134" y="207"/>
      <point x="219" y="269"/>
    </contour>
    <contour>
      <point x="785" y="268"/>
      <point x="868" y="210"/>
      <point x="868" y="153" type="curve" smooth="yes"/>
      <point x="868" y="105"/>
      <point x="802" y="54"/>
      <point x="664" y="21" type="curve"/>
      <point x="671" y="-1" type="line"/>
      <point x="817" y="34"/>
      <point x="892" y="90"/>
      <point x="892" y="152" type="curve" smooth="yes"/>
      <point x="892" y="220"/>
      <point x="814" y="282"/>
      <point x="669" y="322" type="curve"/>
      <point x="652" y="302" type="line"/>
    </contour>
    <contour>
      <point x="765.0" y="490.0" type="move" name="top"/>
    </contour>
  </outline>
</glyph>
<glyph name="grHA" format="1">
  <advance width="864"/>
  <unicode hex="0A39"/>
  <outline>
    <contour>
      <point x="874" y="467" type="line"/>
      <point x="874" y="490" type="line"/>
      <point x="-10" y="490" type="line"/>
      <point x="-10" y="467" type="line"/>
    </contour>
    <contour>
      <point x="331" y="309" type="line"/>
      <point x="232" y="309" type="line" smooth="yes"/>
      <point x="160" y="309"/>
      <point x="130" y="297"/>
      <point x="110" y="277" type="curve" smooth="yes"/>
      <point x="99" y="266"/>
      <point x="91" y="249"/>
      <point x="91" y="229" type="curve" smooth="yes"/>
      <point x="91" y="120"/>
      <point x="320" y="-1"/>
      <point x="525" y="-1" type="curve" smooth="yes"/>
      <point x="636" y="-1"/>
      <point x="675" y="45"/>
      <point x="675" y="133" type="curve" smooth="yes"/>
      <point x="675" y="487" type="line"/>
      <point x="650" y="487" type="line"/>
      <point x="650" y="136" type="line" smooth="yes"/>
      <point x="650" y="60"/>
      <point x="624" y="22"/>
      <point x="525" y="22" type="curve" smooth="yes"/>
      <point x="340" y="22"/>
      <point x="116" y="135"/>
      <point x="116" y="228" type="curve" smooth="yes"/>
      <point x="116" y="241"/>
      <point x="121" y="253"/>
      <point x="129" y="261" type="curve" smooth="yes"/>
      <point x="144" y="276"/>
      <point x="169" y="286"/>
      <point x="236" y="286" type="curve" smooth="yes"/>
      <point x="331" y="286" type="line"/>
    </contour>
  </outline>
</glyph>
<glyph name="grNukta" format="1">
  <advance width="0"/>
  <unicode hex="0A3C"/>
  <outline>
    <contour>
      <point x="-744" y="-2"/>
      <point x="-730" y="10"/>
      <point x="-730" y="26" type="curve"/>
      <point x="-730" y="43"/>
      <point x="-744" y="53"/>
      <point x="-773" y="53" type="curve"/>
      <point x="-800" y="53"/>
      <point x="-815" y="43"/>
      <point x="-815" y="26" type="curve"/>
      <point x="-815" y="10"/>
      <point x="-800" y="-2"/>
      <point x="-773" y="-2" type="curve"/>
    </contour>
  </outline>
</glyph>
<glyph name="grmU" format="1">
  <advance width="0"/>
  <unicode hex="0A41"/>
  <outline>
    <contour>
      <point x="-740" y="-139" type="line"/>
      <point x="-637" y="-175"/>
      <point x="-542" y="-192"/>
      <point x="-439" y="-192" type="curve" smooth="yes"/>
      <point x="-329" y="-192"/>
      <point x="-230" y="-172"/>
      <point x="-144" y="-142" type="curve"/>
      <point x="-151" y="-121" type="line"/>
      <point x="-237" y="-151"/>
      <point x="-333" y="-169"/>
      <point x="-439" y="-169" type="curve" smooth="yes"/>
      <point x="-534" y="-169"/>
      <point x="-641" y="-151"/>
      <point x="-734" y="-117" type="curve"/>
    </contour>
    <contour>
      <point x="-440" y="489" type="move" name="center"/>
    </contour>
  </outline>
</glyph>
<glyph name="grmUU" format="1">
  <advance width="0"/>
  <unicode hex="0A42"/>
  <outline>
    <contour>
      <point x="-740" y="-139" type="line"/>
      <point x="-637" y="-175"/>
      <point x="-542" y="-192"/>
      <point x="-439" y="-192" type="curve" smooth="yes"/>
      <point x="-329" y="-192"/>
      <point x="-230" y="-172"/>
      <point x="-144" y="-142" type="curve"/>
      <point x="-151" y="-121" type="line"/>
      <point x="-237" y="-151"/>
      <point x="-333" y="-169"/>
      <point x="-439" y="-169" type="curve" smooth="yes"/>
      <point x="-534" y="-169"/>
      <point x="-641" y="-151"/>
      <point x="-734" y="-117" type="curve"/>
    </contour>
    <contour>
      <point x="-740" y="-251" type="line"/>
      <point x="-637" y="-287"/>
      <point x="-542" y="-304"/>
      <point x="-439" y="-304" type="curve" smooth="yes"/>
      <point x="-329" y="-304"/>
      <point x="-230" y="-284"/>
      <point x="-144" y="-254" type="curve"/>
      <point x="-151" y="-233" type="line"/>
      <point x="-237" y="-263"/>
      <point x="-333" y="-281"/>
      <point x="-439" y="-281" type="curve" smooth="yes"/>
      <point x="-534" y="-281"/>
      <point x="-641" y="-263"/>
      <point x="-734" y="-229" type="curve"/>
    </contour>
    <component base="grsignU"/>
    <contour>
      <point x="-440" y="489" type="move" name="center"/>
    </contour>
  </outline>
</glyph>
<glyph name="grmAI" format="1">
  <advance width="0"/>
  <unicode hex="0A48"/>
  <unicode hex="0A44"/>
  <outline>
    <contour>
      <point x="-687" y="654" type="line"/>
      <point x="-503" y="634"/>
      <point x="-353" y="577"/>
      <point x="-213" y="471" type="curve"/>
      <point x="-188" y="482" type="line"/>
      <point x="-346" y="600"/>
      <point x="-483" y="652"/>
      <point x="-683" y="675" type="curve"/>
    </contour>
    <contour>
      <point x="-526" y="771" type="line"/>
      <point x="-299" y="712"/>
      <point x="-213" y="613"/>
      <point x="-213" y="505" type="curve" smooth="yes"/>
      <point x="-213" y="467" type="line"/>
      <point x="-188" y="467" type="line"/>
      <point x="-188" y="504" type="line" smooth="yes"/>
      <point x="-188" y="625"/>
      <point x="-280" y="730"/>
      <point x="-518" y="790" type="curve"/>
    </contour>
  </outline>
</glyph>
<glyph name="grmOO" format="1">
  <advance width="0"/>
  <unicode hex="0A4B"/>
  <outline>
    <contour>
      <point x="-560" y="633" type="curve" smooth="yes"/>
      <point x="-482" y="633"/>
      <point x="-433" y="702"/>
      <point x="-367" y="702" type="curve" smooth="yes"/>
      <point x="-302" y="702"/>
      <point x="-253" y="652"/>
      <point x="-213" y="486" type="curve"/>
      <point x="-187" y="486" type="line"/>
      <point x="-230" y="668"/>
      <point x="-287" y="727"/>
      <point x="-367" y="727" type="curve" smooth="yes"/>
      <point x="-439" y="727"/>
      <point x="-490" y="657"/>
      <point x="-561" y="657" type="curve" smooth="yes"/>
      <point x="-610" y="657"/>
      <point x="-648" y="680"/>
      <point x="-691" y="741" type="curve"/>
      <point x="-709" y="727" type="line"/>
      <point x="-666" y="664"/>
      <point x="-619" y="633"/>
    </contour>
  </outline>
</glyph>
<glyph name="grVirama" format="1">
  <advance width="0"/>
  <unicode hex="0A4D"/>
  <outline>
    <contour>
      <point x="-396" y="-127" type="line"/>
      <point x="-258" y="-131"/>
      <point x="-199" y="-157"/>
      <point x="-69" y="-243" type="curve"/>
      <point x="-56" y="-224" type="line"/>
      <point x="-188" y="-136"/>
      <point x="-250" y="-108"/>
      <point x="-393" y="-105" type="curve"/>
    </contour>
  </outline>
</glyph>
<glyph name="grYakash" format="1">
  <advance width="0"/>
  <unicode hex="0A51"/>
  <outline>
    <contour>
      <point x="-15" y="-181" type="line"/>
      <point x="-139" y="-175"/>
      <point x="-247" y="-146"/>
      <point x="-342" y="-66" type="curve"/>
      <point x="-356" y="-85" type="line"/>
      <point x="-259" y="-167"/>
      <point x="-150" y="-198"/>
      <point x="-18" y="-203" type="curve"/>
    </contour>
  </outline>
</glyph>
<glyph name="grZero" format="1">
  <advance width="862"/>
  <unicode hex="0A66"/>
  <outline>
    <contour>
      <point x="612" y="-20"/>
      <point x="772" y="65"/>
      <point x="772" y="236" type="curve"/>
      <point x="772" y="400"/>
      <point x="612" y="491"/>
      <point x="431" y="491" type="curve"/>
      <point x="250" y="491"/>
      <point x="90" y="400"/>
      <point x="90" y="236" type="curve"/>
      <point x="90" y="65"/>
      <point x="250" y="-20"/>
      <point x="431" y="-20" type="curve"/>
    </contour>
    <contour>
      <point x="262" y="3"/>
      <point x="116" y="82"/>
      <point x="116" y="236" type="curve"/>
      <point x="116" y="382"/>
      <point x="262" y="468"/>
      <point x="431" y="468" type="curve"/>
      <point x="601" y="468"/>
      <point x="747" y="382"/>
      <point x="747" y="236" type="curve"/>
      <point x="747" y="82"/>
      <point x="601" y="3"/>
      <point x="431" y="3" type="curve"/>
    </contour>
  </outline>
</glyph>
<glyph name="grOne" format="1">
  <advance width="628"/>
  <unicode hex="0A67"/>
  <outline>
    <contour>
      <point x="484" y="163" type="line" smooth="yes"/>
      <point x="484" y="88"/>
      <point x="498" y="43"/>
      <point x="575" y="-11" type="curve"/>
      <point x="590" y="6" type="line"/>
      <point x="515" y="62"/>
      <point x="509" y="91"/>
      <point x="509" y="163" type="curve" smooth="yes"/>
      <point x="509" y="329" type="line" smooth="yes"/>
      <point x="509" y="423"/>
      <point x="426" y="490"/>
      <point x="274" y="490" type="curve" smooth="yes"/>
      <point x="150" y="490"/>
      <point x="68" y="431"/>
      <point x="68" y="352" type="curve" smooth="yes"/>
      <point x="68" y="269"/>
      <point x="154" y="215"/>
      <point x="280" y="215" type="curve" smooth="yes"/>
      <point x="373" y="215"/>
      <point x="437" y="240"/>
      <point x="499" y="275" type="curve"/>
      <point x="489" y="297" type="line"/>
      <point x="430" y="261"/>
      <point x="364" y="238"/>
      <point x="278" y="238" type="curve" smooth="yes"/>
      <point x="171" y="238"/>
      <point x="92" y="282"/>
      <point x="92" y="351" type="curve" smooth="yes"/>
      <point x="92" y="417"/>
      <point x="164" y="467"/>
      <point x="275" y="467" type="curve" smooth="yes"/>
      <point x="412" y="467"/>
      <point x="484" y="410"/>
      <point x="484" y="326" type="curve" smooth="yes"/>
    </contour>
  </outline>
</glyph>
<glyph name="grTwo" format="1">
  <advance width="779"/>
  <unicode hex="0A68"/>
  <outline>
    <contour>
      <point x="380" y="168" type="line" smooth="yes"/>
      <point x="575" y="168"/>
      <point x="669" y="236"/>
      <point x="669" y="327" type="curve" smooth="yes"/>
      <point x="669" y="412"/>
      <point x="596" y="490"/>
      <point x="423" y="490" type="curve" smooth="yes"/>
      <point x="321" y="490"/>
      <point x="225" y="467"/>
      <point x="124" y="416" type="curve"/>
      <point x="134" y="395" type="line"/>
      <point x="232" y="445"/>
      <point x="327" y="467"/>
      <point x="424" y="467" type="curve" smooth="yes"/>
      <point x="578" y="467"/>
      <point x="644" y="399"/>
      <point x="644" y="327" type="curve" smooth="yes"/>
      <point x="644" y="253"/>
      <point x="571" y="191"/>
      <point x="358" y="191" type="curve" smooth="yes"/>
      <point x="213" y="191" type="line"/>
      <point x="213" y="168" type="line"/>
    </contour>
    <contour>
      <point x="385" y="173" type="line"/>
      <point x="708" y="-40" type="line"/>
      <point x="722" y="-21" type="line"/>
      <point x="411" y="183" type="line"/>
    </contour>
  </outline>
</glyph>
<glyph name="grThree" format="1">
  <advance width="727"/>
  <unicode hex="0A69"/>
  <outline>
    <contour>
      <point x="81" y="131" type="line"/>
      <point x="69" y="112" type="line"/>
      <point x="399" y="-97" type="line"/>
      <point x="412" y="-78" type="line"/>
    </contour>
    <contour>
      <point x="170" y="66" type="curve"/>
      <point x="170" y="47" type="line"/>
      <point x="245" y="22"/>
      <point x="305" y="11"/>
      <point x="389" y="11" type="curve" smooth="yes"/>
      <point x="571" y="11"/>
      <point x="634" y="73"/>
      <point x="634" y="137" type="curve" smooth="yes"/>
      <point x="634" y="195"/>
      <point x="580" y="256"/>
      <point x="434" y="261" type="curve"/>
      <point x="434" y="253" type="line"/>
      <point x="543" y="255"/>
      <point x="630" y="302"/>
      <point x="630" y="369" type="curve" smooth="yes"/>
      <point x="630" y="431"/>
      <point x="562" y="490"/>
      <point x="382" y="490" type="curve" smooth="yes"/>
      <point x="289" y="490"/>
      <point x="198" y="474"/>
      <point x="109" y="440" type="curve"/>
      <point x="118" y="420" type="line"/>
      <point x="205" y="452"/>
      <point x="291" y="467"/>
      <point x="381" y="467" type="curve" smooth="yes"/>
      <point x="541" y="467"/>
      <point x="606" y="420"/>
      <point x="606" y="370" type="curve" smooth="yes"/>
      <point x="606" y="312"/>
      <point x="516" y="269"/>
      <point x="366" y="269" type="curve" smooth="yes"/>
      <point x="206" y="269" type="line"/>
      <point x="206" y="246" type="line"/>
      <point x="367" y="246" type="line" smooth="yes"/>
      <point x="560" y="246"/>
      <point x="610" y="184"/>
      <point x="610" y="138" type="curve" smooth="yes"/>
      <point x="610" y="82"/>
      <point x="547" y="34"/>
      <point x="387" y="34" type="curve" smooth="yes"/>
      <point x="312" y="34"/>
      <point x="228" y="46"/>
    </contour>
  </outline>
</glyph>
<glyph name="grFour" format="1">
  <advance width="795"/>
  <unicode hex="0A6A"/>
  <outline>
    <contour>
      <point x="395" y="226" type="curve" smooth="yes"/>
      <point x="187" y="226"/>
      <point x="117" y="170"/>
      <point x="117" y="116" type="curve" smooth="yes"/>
      <point x="117" y="52"/>
      <point x="195" y="3"/>
      <point x="402" y="3" type="curve" smooth="yes"/>
      <point x="594" y="3"/>
      <point x="678" y="54"/>
      <point x="678" y="116" type="curve" smooth="yes"/>
      <point x="678" y="171"/>
      <point x="621" y="226"/>
    </contour>
    <contour>
      <point x="509" y="244" type="line"/>
      <point x="659" y="226"/>
      <point x="703" y="171"/>
      <point x="703" y="116" type="curve" smooth="yes"/>
      <point x="703" y="41"/>
      <point x="617" y="-20"/>
      <point x="402" y="-20" type="curve" smooth="yes"/>
      <point x="167" y="-20"/>
      <point x="92" y="41"/>
      <point x="92" y="116" type="curve" smooth="yes"/>
      <point x="92" y="170"/>
      <point x="144" y="229"/>
      <point x="309" y="244" type="curve"/>
      <point x="319" y="232" type="line"/>
      <point x="185" y="236"/>
      <point x="111" y="282"/>
      <point x="111" y="355" type="curve" smooth="yes"/>
      <point x="111" y="406"/>
      <point x="161" y="455"/>
      <point x="254" y="474" type="curve"/>
      <point x="260" y="453" type="line"/>
      <point x="171" y="435"/>
      <point x="135" y="393"/>
      <point x="135" y="354" type="curve" smooth="yes"/>
      <point x="135" y="288"/>
      <point x="224" y="248"/>
      <point x="396" y="248" type="curve" smooth="yes"/>
      <point x="584" y="248"/>
      <point x="657" y="294"/>
      <point x="657" y="354" type="curve" smooth="yes"/>
      <point x="657" y="400"/>
      <point x="610" y="436"/>
      <point x="534" y="456" type="curve"/>
      <point x="540" y="478" type="line"/>
      <point x="629" y="454"/>
      <point x="681" y="411"/>
      <point x="681" y="355" type="curve" smooth="yes"/>
      <point x="681" y="287"/>
      <point x="617" y="244"/>
      <point x="496" y="233" type="curve"/>
    </contour>
  </outline>
</glyph>
<glyph name="grFive" format="1">
  <advance width="762"/>
  <unicode hex="0A6B"/>
  <outline>
    <contour>
      <point x="633" y="488" type="line"/>
      <point x="608" y="488" type="line"/>
      <point x="608" y="0" type="line"/>
      <point x="633" y="0" type="line"/>
    </contour>
    <contour>
      <point x="138" y="490" type="line"/>
      <point x="164" y="305" type="line"/>
      <point x="131" y="150" type="line"/>
      <point x="218" y="97"/>
      <point x="328" y="72"/>
      <point x="411" y="72" type="curve" smooth="yes"/>
      <point x="497" y="72"/>
      <point x="570" y="85"/>
      <point x="625" y="101" type="curve"/>
      <point x="625" y="125" type="line"/>
      <point x="571" y="108"/>
      <point x="488" y="95"/>
      <point x="410" y="95" type="curve" smooth="yes"/>
      <point x="334" y="95"/>
      <point x="220" y="123"/>
      <point x="150" y="168" type="curve"/>
      <point x="157" y="151" type="line"/>
      <point x="189" y="304" type="line"/>
      <point x="164" y="490" type="line"/>
    </contour>
  </outline>
</glyph>
